M48
; DRILL file {KiCad 7.0.1} date Sun Feb  4 01:39:43 2024
; FORMAT={-:-/ absolute / metric / decimal}
; #@! TF.CreationDate,2024-02-04T01:39:43+03:00
; #@! TF.GenerationSoftware,Kicad,Pcbnew,7.0.1
; #@! TF.FileFunction,Plated,1,2,PTH
FMAT,2
METRIC
; #@! TA.AperFunction,Plated,PTH,ViaDrill
T1C0.635
; #@! TA.AperFunction,Plated,PTH,ComponentDrill
T2C1.016
; #@! TA.AperFunction,Plated,PTH,ViaDrill
T3C2.000
%
G90
G05
T1
X97.663Y-49.403
X97.663Y-55.499
X97.663Y-58.547
X100.203Y-56.007
X100.203Y-58.547
X102.743Y-56.007
X102.743Y-58.547
X105.462Y-55.932
X110.438Y-58.368
X112.903Y-56.007
X128.143Y-56.769
X139.573Y-52.959
X141.605Y-50.927
X141.801Y-53.409
X144.194Y-53.516
X144.214Y-50.996
X146.685Y-53.721
X146.734Y-50.976
T2
X92.583Y-62.357
X92.583Y-67.437
X95.123Y-62.357
X95.123Y-67.437
X97.663Y-62.357
X97.663Y-67.437
X100.203Y-62.357
X100.203Y-67.437
X102.743Y-62.357
X102.743Y-67.437
X105.283Y-62.357
X105.283Y-67.437
X107.823Y-62.357
X107.823Y-67.437
X110.363Y-62.357
X110.363Y-67.437
X112.903Y-62.357
X112.903Y-67.437
X115.443Y-62.357
X115.443Y-67.437
X117.983Y-62.357
X117.983Y-67.437
X120.523Y-62.357
X120.523Y-67.437
X123.063Y-62.357
X123.063Y-67.437
X125.603Y-62.357
X125.603Y-67.437
X128.143Y-62.357
X128.143Y-67.437
X130.683Y-62.357
X130.683Y-67.437
X133.223Y-62.357
X133.223Y-67.437
X135.763Y-62.357
X135.763Y-67.437
X138.303Y-62.357
X138.303Y-67.437
X140.843Y-62.357
X140.843Y-67.437
X143.383Y-62.357
X143.383Y-67.437
X145.923Y-62.357
X145.923Y-67.437
X148.463Y-62.357
X148.463Y-67.437
X151.003Y-62.357
X151.003Y-67.437
X153.543Y-62.357
X153.543Y-67.437
X156.083Y-62.357
X156.083Y-67.437
X158.623Y-62.357
X158.623Y-67.437
X161.163Y-62.357
X161.163Y-67.437
T3
X82.0Y-66.0
X172.0Y-66.0
T0
M30
