M48
; DRILL file {KiCad 7.0.1} date Wed Oct 11 14:29:49 2023
; FORMAT={-:-/ absolute / inch / decimal}
; #@! TF.CreationDate,2023-10-11T14:29:49+03:00
; #@! TF.GenerationSoftware,Kicad,Pcbnew,7.0.1
; #@! TF.FileFunction,Plated,1,2,PTH
FMAT,2
INCH
; #@! TA.AperFunction,Plated,PTH,ViaDrill
T1C0.0250
; #@! TA.AperFunction,Plated,PTH,ComponentDrill
T2C0.0400
; #@! TA.AperFunction,Plated,PTH,ViaDrill
T3C0.0787
%
G90
G05
T1
X3.845Y-1.945
X3.845Y-2.185
X3.845Y-2.305
X3.945Y-2.205
X3.945Y-2.305
X4.045Y-2.205
X4.045Y-2.305
X4.152Y-2.202
X4.348Y-2.298
X4.445Y-2.205
X5.045Y-2.235
X5.495Y-2.085
X5.575Y-2.005
X5.5827Y-2.1027
X5.6769Y-2.1069
X5.6777Y-2.0077
X5.775Y-2.115
X5.7769Y-2.0069
T2
X3.645Y-2.455
X3.645Y-2.655
X3.745Y-2.455
X3.745Y-2.655
X3.845Y-2.455
X3.845Y-2.655
X3.945Y-2.455
X3.945Y-2.655
X4.045Y-2.455
X4.045Y-2.655
X4.145Y-2.455
X4.145Y-2.655
X4.245Y-2.455
X4.245Y-2.655
X4.345Y-2.455
X4.345Y-2.655
X4.445Y-2.455
X4.445Y-2.655
X4.545Y-2.455
X4.545Y-2.655
X4.645Y-2.455
X4.645Y-2.655
X4.745Y-2.455
X4.745Y-2.655
X4.845Y-2.455
X4.845Y-2.655
X4.945Y-2.455
X4.945Y-2.655
X5.045Y-2.455
X5.045Y-2.655
X5.145Y-2.455
X5.145Y-2.655
X5.245Y-2.455
X5.245Y-2.655
X5.345Y-2.455
X5.345Y-2.655
X5.445Y-2.455
X5.445Y-2.655
X5.545Y-2.455
X5.545Y-2.655
X5.645Y-2.455
X5.645Y-2.655
X5.745Y-2.455
X5.745Y-2.655
X5.845Y-2.455
X5.845Y-2.655
X5.945Y-2.455
X5.945Y-2.655
X6.045Y-2.455
X6.045Y-2.655
X6.145Y-2.455
X6.145Y-2.655
X6.245Y-2.455
X6.245Y-2.655
X6.345Y-2.455
X6.345Y-2.655
T3
X3.2283Y-2.5984
X6.7717Y-2.5984
T0
M30
