%TF.GenerationSoftware,KiCad,Pcbnew,7.0.1*%
%TF.CreationDate,2024-02-04T01:39:41+03:00*%
%TF.ProjectId,DeltaS48k-convertor,44656c74-6153-4343-986b-2d636f6e7665,rev?*%
%TF.SameCoordinates,Original*%
%TF.FileFunction,Copper,L2,Bot*%
%TF.FilePolarity,Positive*%
%FSLAX46Y46*%
G04 Gerber Fmt 4.6, Leading zero omitted, Abs format (unit mm)*
G04 Created by KiCad (PCBNEW 7.0.1) date 2024-02-04 01:39:41*
%MOMM*%
%LPD*%
G01*
G04 APERTURE LIST*
%TA.AperFunction,SMDPad,CuDef*%
%ADD10R,1.270000X10.000000*%
%TD*%
%TA.AperFunction,ComponentPad*%
%ADD11O,1.600000X3.000000*%
%TD*%
%TA.AperFunction,SMDPad,CuDef*%
%ADD12R,1.270000X7.620000*%
%TD*%
%TA.AperFunction,ViaPad*%
%ADD13C,3.000000*%
%TD*%
%TA.AperFunction,ViaPad*%
%ADD14C,0.889000*%
%TD*%
%TA.AperFunction,Conductor*%
%ADD15C,0.254000*%
%TD*%
%TA.AperFunction,Conductor*%
%ADD16C,0.400000*%
%TD*%
G04 APERTURE END LIST*
D10*
%TO.P,J1,33,A14*%
%TO.N,A14*%
X165572000Y-41606020D03*
%TO.P,J1,34,A12*%
%TO.N,A12*%
X163072030Y-41606020D03*
%TO.P,J1,35,"+5"*%
%TO.N,VCC*%
X160572010Y-41606020D03*
%TO.P,J1,36*%
%TO.N,unconnected-(J1-Pad36)*%
X158072040Y-41606020D03*
%TO.P,J1,37,\u041E\u0431\u0449\u0438\u0439*%
%TO.N,GND*%
X155572020Y-41606020D03*
%TO.P,J1,38,\u041E\u0431\u0449\u0438\u0439*%
X153072000Y-41606020D03*
%TO.P,J1,39*%
%TO.N,CLK*%
X150572030Y-41606020D03*
%TO.P,J1,40,A0*%
%TO.N,A0*%
X148072010Y-41606020D03*
%TO.P,J1,41,A1*%
%TO.N,A1*%
X145572040Y-41606020D03*
%TO.P,J1,42,A2*%
%TO.N,A2*%
X143072020Y-41606020D03*
%TO.P,J1,43,A3*%
%TO.N,A3*%
X140572000Y-41606020D03*
%TO.P,J1,44*%
%TO.N,unconnected-(J1-Pad44)*%
X138072030Y-41606020D03*
%TO.P,J1,45*%
%TO.N,unconnected-(J1-Pad45)*%
X135572010Y-41606020D03*
%TO.P,J1,46*%
%TO.N,unconnected-(J1-Pad46)*%
X133072040Y-41606020D03*
%TO.P,J1,47*%
%TO.N,unconnected-(J1-Pad47)*%
X130572020Y-41606020D03*
%TO.P,J1,48*%
%TO.N,unconnected-(J1-Pad48)*%
X128071990Y-41606020D03*
%TO.P,J1,49,\u0421\u0422\u0420*%
%TO.N,unconnected-(J1-Pad49)*%
X125572030Y-41606020D03*
%TO.P,J1,50,\u0417\u0410\u041F\u0420\u0428*%
%TO.N,BUSRQ*%
X123072000Y-41606020D03*
%TO.P,J1,51,BD1*%
%TO.N,unconnected-(J1-Pad51)*%
X120572040Y-41606020D03*
%TO.P,J1,52,A7*%
%TO.N,A7*%
X118072010Y-41606020D03*
%TO.P,J1,53,A6*%
%TO.N,A6*%
X115571990Y-41606020D03*
%TO.P,J1,54,A5*%
%TO.N,A5*%
X113072020Y-41606020D03*
%TO.P,J1,55,A4*%
%TO.N,A4*%
X110572000Y-41606020D03*
%TO.P,J1,56,\u0411\u041B\u041A_\u041F\u0417\u0423*%
%TO.N,ROMCS*%
X108072030Y-41606020D03*
%TO.P,J1,57,\u041F\u0417\u0428*%
%TO.N,BUSACK*%
X105572010Y-41606020D03*
%TO.P,J1,58,A9*%
%TO.N,A9*%
X103071990Y-41606020D03*
%TO.P,J1,59,A11*%
%TO.N,A11*%
X100572020Y-41606020D03*
%TO.P,J1,60*%
%TO.N,unconnected-(J1-Pad60)*%
X98072000Y-41606020D03*
%TO.P,J1,61,BD3*%
%TO.N,unconnected-(J1-Pad61)*%
X95572030Y-41606020D03*
%TO.P,J1,62,BD5*%
%TO.N,unconnected-(J1-Pad62)*%
X93072010Y-41606020D03*
%TO.P,J1,63,BD6*%
%TO.N,unconnected-(J1-Pad63)*%
X90571990Y-41606020D03*
%TO.P,J1,64,\u0413\u0422*%
%TO.N,unconnected-(J1-Pad64)*%
X88072020Y-41606020D03*
%TD*%
D11*
%TO.P,SLOT,1,A15*%
%TO.N,A15*%
X161163000Y-67437000D03*
%TO.P,SLOT,2,A13*%
%TO.N,A13*%
X158623000Y-67437000D03*
%TO.P,SLOT,3,D7*%
%TO.N,D7*%
X156083000Y-67437000D03*
%TO.P,SLOT,4,OE*%
%TO.N,unconnected-(J3-Pad4)*%
X153543000Y-67437000D03*
%TO.P,SLOT,5*%
%TO.N,N/C*%
X151003000Y-67437000D03*
%TO.P,SLOT,6,D0*%
%TO.N,D0*%
X148463000Y-67437000D03*
%TO.P,SLOT,7,D1*%
%TO.N,D1*%
X145923000Y-67437000D03*
%TO.P,SLOT,8,D2*%
%TO.N,D2*%
X143383000Y-67437000D03*
%TO.P,SLOT,9,D6*%
%TO.N,D6*%
X140843000Y-67437000D03*
%TO.P,SLOT,10,D5*%
%TO.N,D5*%
X138303000Y-67437000D03*
%TO.P,SLOT,11,D3*%
%TO.N,D3*%
X135763000Y-67437000D03*
%TO.P,SLOT,12,D4*%
%TO.N,D4*%
X133223000Y-67437000D03*
%TO.P,SLOT,13,INT*%
%TO.N,INT*%
X130683000Y-67437000D03*
%TO.P,SLOT,14,NMI*%
%TO.N,NMI*%
X128143000Y-67437000D03*
%TO.P,SLOT,15,HALT*%
%TO.N,HALT*%
X125603000Y-67437000D03*
%TO.P,SLOT,16,MREQ*%
%TO.N,MREQ*%
X123063000Y-67437000D03*
%TO.P,SLOT,17,IORQ*%
%TO.N,IOREQ*%
X120523000Y-67437000D03*
%TO.P,SLOT,18,RD*%
%TO.N,RD*%
X117983000Y-67437000D03*
%TO.P,SLOT,19,WR*%
%TO.N,WR*%
X115443000Y-67437000D03*
%TO.P,SLOT,20,-5V*%
%TO.N,unconnected-(J3-Pad20)*%
X112903000Y-67437000D03*
%TO.P,SLOT,21,WAIT*%
%TO.N,WAIT*%
X110363000Y-67437000D03*
%TO.P,SLOT,22,+12V*%
%TO.N,unconnected-(J3-Pad22)*%
X107823000Y-67437000D03*
%TO.P,SLOT,23,-12V*%
%TO.N,unconnected-(J3-Pad23)*%
X105283000Y-67437000D03*
%TO.P,SLOT,24,M1*%
%TO.N,M1*%
X102743000Y-67437000D03*
%TO.P,SLOT,25,RFSH*%
%TO.N,RFSH*%
X100203000Y-67437000D03*
%TO.P,SLOT,26,A8*%
%TO.N,A8*%
X97663000Y-67437000D03*
%TO.P,SLOT,27,A10*%
%TO.N,A10*%
X95123000Y-67437000D03*
%TO.P,SLOT,28,NC*%
%TO.N,EXTRA*%
X92583000Y-67437000D03*
%TO.P,SLOT,29,A14*%
%TO.N,A14*%
X161163000Y-62357000D03*
%TO.P,SLOT,30,A12*%
%TO.N,A12*%
X158623000Y-62357000D03*
%TO.P,SLOT,31,+5V*%
%TO.N,VCC*%
X156083000Y-62357000D03*
%TO.P,SLOT,32,NC*%
%TO.N,unconnected-(J3-Pad32)*%
X153543000Y-62357000D03*
%TO.P,SLOT,33*%
%TO.N,N/C*%
X151003000Y-62357000D03*
%TO.P,SLOT,34,GND*%
%TO.N,GND*%
X148463000Y-62357000D03*
%TO.P,SLOT,35,GND*%
X145923000Y-62357000D03*
%TO.P,SLOT,36,CLK*%
%TO.N,CLK*%
X143383000Y-62357000D03*
%TO.P,SLOT,37,A0*%
%TO.N,A0*%
X140843000Y-62357000D03*
%TO.P,SLOT,38,A1*%
%TO.N,A1*%
X138303000Y-62357000D03*
%TO.P,SLOT,39,A2*%
%TO.N,A2*%
X135763000Y-62357000D03*
%TO.P,SLOT,40,A3*%
%TO.N,A3*%
X133223000Y-62357000D03*
%TO.P,SLOT,41,NC*%
%TO.N,unconnected-(J3-Pad41)*%
X130683000Y-62357000D03*
%TO.P,SLOT,42,GND*%
%TO.N,GND*%
X128143000Y-62357000D03*
%TO.P,SLOT,43,OE*%
%TO.N,unconnected-(J3-Pad43)*%
X125603000Y-62357000D03*
%TO.P,SLOT,44,NC*%
%TO.N,unconnected-(J3-Pad44)*%
X123063000Y-62357000D03*
%TO.P,SLOT,45,NC*%
%TO.N,unconnected-(J3-Pad45)*%
X120523000Y-62357000D03*
%TO.P,SLOT,46,NC*%
%TO.N,unconnected-(J3-Pad46)*%
X117983000Y-62357000D03*
%TO.P,SLOT,47,BUSRQ*%
%TO.N,BUSRQ*%
X115443000Y-62357000D03*
%TO.P,SLOT,48,RESET*%
%TO.N,RESET*%
X112903000Y-62357000D03*
%TO.P,SLOT,49,A7*%
%TO.N,A7*%
X110363000Y-62357000D03*
%TO.P,SLOT,50,A6*%
%TO.N,A6*%
X107823000Y-62357000D03*
%TO.P,SLOT,51,A5*%
%TO.N,A5*%
X105283000Y-62357000D03*
%TO.P,SLOT,52,A4*%
%TO.N,A4*%
X102743000Y-62357000D03*
%TO.P,SLOT,53,ROMCS*%
%TO.N,ROMCS*%
X100203000Y-62357000D03*
%TO.P,SLOT,54,BUSACK*%
%TO.N,BUSACK*%
X97663000Y-62357000D03*
%TO.P,SLOT,55,A9*%
%TO.N,A9*%
X95123000Y-62357000D03*
%TO.P,SLOT,56,A11*%
%TO.N,A11*%
X92583000Y-62357000D03*
%TD*%
D12*
%TO.P,J2,29,A14*%
%TO.N,A14*%
X161163000Y-79375000D03*
%TO.P,J2,30,A12*%
%TO.N,A12*%
X158623000Y-79375000D03*
%TO.P,J2,31,+5V*%
%TO.N,VCC*%
X156083000Y-79375000D03*
%TO.P,J2,32,NC*%
%TO.N,unconnected-(J2-Pad32)*%
X153543000Y-79375000D03*
%TO.P,J2,34,GND*%
%TO.N,GND*%
X148463000Y-79375000D03*
%TO.P,J2,35,GND*%
X145923000Y-79375000D03*
%TO.P,J2,36,CLK*%
%TO.N,CLK*%
X143383000Y-79375000D03*
%TO.P,J2,37,A0*%
%TO.N,A0*%
X140843000Y-79375000D03*
%TO.P,J2,38,A1*%
%TO.N,A1*%
X138303000Y-79375000D03*
%TO.P,J2,39,A2*%
%TO.N,A2*%
X135763000Y-79375000D03*
%TO.P,J2,40,A3*%
%TO.N,A3*%
X133223000Y-79375000D03*
%TO.P,J2,41,NC*%
%TO.N,unconnected-(J2-Pad41)*%
X130683000Y-79375000D03*
%TO.P,J2,42,GND*%
%TO.N,GND*%
X128143000Y-79375000D03*
%TO.P,J2,43,OE*%
%TO.N,unconnected-(J2-Pad43)*%
X125603000Y-79375000D03*
%TO.P,J2,44,NC*%
%TO.N,unconnected-(J2-Pad44)*%
X123063000Y-79375000D03*
%TO.P,J2,45,NC*%
%TO.N,unconnected-(J2-Pad45)*%
X120523000Y-79375000D03*
%TO.P,J2,46,NC*%
%TO.N,unconnected-(J2-Pad46)*%
X117983000Y-79375000D03*
%TO.P,J2,47,BUSRQ*%
%TO.N,BUSRQ*%
X115443000Y-79375000D03*
%TO.P,J2,48,RESET*%
%TO.N,RESET*%
X112903000Y-79375000D03*
%TO.P,J2,49,A7*%
%TO.N,A7*%
X110363000Y-79375000D03*
%TO.P,J2,50,A6*%
%TO.N,A6*%
X107823000Y-79375000D03*
%TO.P,J2,51,A5*%
%TO.N,A5*%
X105283000Y-79375000D03*
%TO.P,J2,52,A4*%
%TO.N,A4*%
X102743000Y-79375000D03*
%TO.P,J2,53,ROMCS*%
%TO.N,ROMCS*%
X100203000Y-79375000D03*
%TO.P,J2,54,BUSACK*%
%TO.N,BUSACK*%
X97663000Y-79375000D03*
%TO.P,J2,55,A9*%
%TO.N,A9*%
X95123000Y-79375000D03*
%TO.P,J2,56,A11*%
%TO.N,A11*%
X92583000Y-79375000D03*
%TD*%
D13*
%TO.N,*%
X82000000Y-66000000D03*
X172000000Y-66000000D03*
D14*
%TO.N,RESET*%
X100203000Y-58547000D03*
X97663000Y-58547000D03*
X102743000Y-56007000D03*
X112903000Y-56007000D03*
X97663000Y-49403000D03*
X105461636Y-55931636D03*
X110438364Y-58368364D03*
X97663000Y-55499000D03*
X102743000Y-58547000D03*
X100203000Y-56007000D03*
%TO.N,GND*%
X141605000Y-50927000D03*
X144213879Y-50995879D03*
X146685000Y-53721000D03*
X128143000Y-56769000D03*
X141800879Y-53408879D03*
X144193889Y-53515889D03*
X139573000Y-52959000D03*
X146733889Y-50975889D03*
%TD*%
D15*
%TO.N,RESET*%
X100203000Y-58547000D02*
X102743000Y-56007000D01*
X105358364Y-55931636D02*
X105461636Y-55931636D01*
X97663000Y-49403000D02*
X97663000Y-55499000D01*
X97663000Y-58547000D02*
X100203000Y-56007000D01*
X111722000Y-63538000D02*
X112903000Y-62357000D01*
X102743000Y-58547000D02*
X105358364Y-55931636D01*
X110438364Y-58368364D02*
X110541636Y-58368364D01*
X111722000Y-78194000D02*
X111722000Y-63538000D01*
X110541636Y-58368364D02*
X112903000Y-56007000D01*
X112903000Y-79375000D02*
X111722000Y-78194000D01*
%TO.N,A14*%
X165572000Y-41606020D02*
X165572000Y-57948000D01*
X161163000Y-79375000D02*
X159982000Y-78194000D01*
X159982000Y-63538000D02*
X161163000Y-62357000D01*
X159982000Y-78194000D02*
X159982000Y-63538000D01*
X165572000Y-57948000D02*
X161163000Y-62357000D01*
%TO.N,A12*%
X163072030Y-41606020D02*
X163072030Y-57907970D01*
X158623000Y-79375000D02*
X157353000Y-78105000D01*
X157353000Y-78105000D02*
X157353000Y-63627000D01*
X163072030Y-57907970D02*
X158623000Y-62357000D01*
X157353000Y-63627000D02*
X158623000Y-62357000D01*
D16*
%TO.N,VCC*%
X154813000Y-78105000D02*
X154813000Y-64135000D01*
X154902000Y-78194000D02*
X154813000Y-78105000D01*
X156083000Y-55499000D02*
X160572010Y-51009990D01*
X154813000Y-64135000D02*
X154813000Y-63627000D01*
X160572010Y-51009990D02*
X160572010Y-41606020D01*
X156083000Y-79375000D02*
X154902000Y-78194000D01*
X154813000Y-63627000D02*
X156083000Y-62357000D01*
X156083000Y-62357000D02*
X156083000Y-55499000D01*
D15*
%TO.N,GND*%
X148463000Y-79375000D02*
X147282000Y-78194000D01*
X147282000Y-78194000D02*
X147282000Y-63538000D01*
X153072000Y-41606020D02*
X153072000Y-55208000D01*
X126962000Y-63538000D02*
X128143000Y-62357000D01*
X144564000Y-78016000D02*
X144564000Y-63716000D01*
X155572020Y-55188322D02*
X148463000Y-62297342D01*
X146685000Y-51024778D02*
X146685000Y-53721000D01*
X155572020Y-41606020D02*
X155572020Y-55188322D01*
X146733889Y-50975889D02*
X146685000Y-51024778D01*
X153072000Y-55208000D02*
X145923000Y-62357000D01*
X141605000Y-50927000D02*
X141605000Y-53213000D01*
X126962000Y-78194000D02*
X126962000Y-63538000D01*
X128143000Y-56769000D02*
X135763000Y-56769000D01*
X141605000Y-53213000D02*
X141800879Y-53408879D01*
X135763000Y-56769000D02*
X139573000Y-52959000D01*
X144213879Y-53495899D02*
X144193889Y-53515889D01*
X144564000Y-63716000D02*
X145923000Y-62357000D01*
X128143000Y-79375000D02*
X126962000Y-78194000D01*
X147282000Y-63538000D02*
X148463000Y-62357000D01*
X153072000Y-41606020D02*
X155572020Y-41606020D01*
X148463000Y-62297342D02*
X148463000Y-62357000D01*
X144213879Y-50995879D02*
X144213879Y-53495899D01*
X145923000Y-79375000D02*
X144564000Y-78016000D01*
%TO.N,CLK*%
X150572030Y-41606020D02*
X150572030Y-55167970D01*
X142202000Y-63538000D02*
X143383000Y-62357000D01*
X142202000Y-78194000D02*
X142202000Y-63538000D01*
X143383000Y-79375000D02*
X142202000Y-78194000D01*
X150572030Y-55167970D02*
X143383000Y-62357000D01*
%TO.N,A0*%
X139484000Y-78016000D02*
X139484000Y-63716000D01*
X139484000Y-63716000D02*
X140843000Y-62357000D01*
X140843000Y-79375000D02*
X139484000Y-78016000D01*
X148072010Y-41606020D02*
X148072010Y-55127990D01*
X148072010Y-55127990D02*
X140843000Y-62357000D01*
%TO.N,A1*%
X136944000Y-63716000D02*
X138303000Y-62357000D01*
X145572040Y-41606020D02*
X145572040Y-55087960D01*
X138303000Y-79375000D02*
X136944000Y-78016000D01*
X145572040Y-55087960D02*
X138303000Y-62357000D01*
X136944000Y-78016000D02*
X136944000Y-63716000D01*
%TO.N,A2*%
X135763000Y-62357000D02*
X143072020Y-55047980D01*
X143072020Y-55047980D02*
X143072020Y-41606020D01*
X134582000Y-78194000D02*
X134582000Y-63538000D01*
X135763000Y-79375000D02*
X134582000Y-78194000D01*
X134582000Y-63538000D02*
X135763000Y-62357000D01*
%TO.N,A3*%
X133223000Y-79375000D02*
X131864000Y-78016000D01*
X131864000Y-78016000D02*
X131864000Y-63716000D01*
X140572000Y-55008000D02*
X140572000Y-41606020D01*
X133223000Y-62357000D02*
X140572000Y-55008000D01*
X131864000Y-63716000D02*
X133223000Y-62357000D01*
%TO.N,BUSRQ*%
X114262000Y-78194000D02*
X114262000Y-63538000D01*
X114262000Y-63538000D02*
X115443000Y-62357000D01*
X115443000Y-62357000D02*
X123072000Y-54728000D01*
X115443000Y-79375000D02*
X114262000Y-78194000D01*
X123072000Y-54728000D02*
X123072000Y-41606020D01*
%TO.N,A7*%
X118072010Y-54647990D02*
X118072010Y-41606020D01*
X110363000Y-79375000D02*
X109182000Y-78194000D01*
X110363000Y-62357000D02*
X118072010Y-54647990D01*
X109182000Y-78194000D02*
X109182000Y-63538000D01*
X109182000Y-63538000D02*
X110363000Y-62357000D01*
%TO.N,A6*%
X107823000Y-62357000D02*
X115571990Y-54608010D01*
X106642000Y-78194000D02*
X106642000Y-63538000D01*
X107823000Y-79375000D02*
X106642000Y-78194000D01*
X115571990Y-54608010D02*
X115571990Y-41606020D01*
X106642000Y-63538000D02*
X107823000Y-62357000D01*
%TO.N,A5*%
X113072020Y-54567980D02*
X113072020Y-41606020D01*
X104102000Y-78194000D02*
X104102000Y-63538000D01*
X105283000Y-79375000D02*
X104102000Y-78194000D01*
X105283000Y-62357000D02*
X113072020Y-54567980D01*
X104102000Y-63538000D02*
X105283000Y-62357000D01*
%TO.N,A4*%
X102743000Y-62357000D02*
X110572000Y-54528000D01*
X101562000Y-78194000D02*
X101562000Y-63538000D01*
X110572000Y-54528000D02*
X110572000Y-41606020D01*
X101562000Y-63538000D02*
X102743000Y-62357000D01*
X102743000Y-79375000D02*
X101562000Y-78194000D01*
%TO.N,ROMCS*%
X108072030Y-54487970D02*
X108072030Y-41606020D01*
X99022000Y-78194000D02*
X99022000Y-63538000D01*
X100203000Y-62357000D02*
X108072030Y-54487970D01*
X100203000Y-79375000D02*
X99022000Y-78194000D01*
X99022000Y-63538000D02*
X100203000Y-62357000D01*
%TO.N,BUSACK*%
X96482000Y-78194000D02*
X96482000Y-63538000D01*
X105572010Y-54447990D02*
X97663000Y-62357000D01*
X96482000Y-63538000D02*
X97663000Y-62357000D01*
X105572010Y-41606020D02*
X105572010Y-54447990D01*
X97663000Y-79375000D02*
X96482000Y-78194000D01*
%TO.N,A9*%
X103071990Y-54408010D02*
X103071990Y-41606020D01*
X93942000Y-63538000D02*
X95123000Y-62357000D01*
X93942000Y-78194000D02*
X93942000Y-63538000D01*
X95123000Y-79375000D02*
X93942000Y-78194000D01*
X95123000Y-62357000D02*
X103071990Y-54408010D01*
%TO.N,A11*%
X92583000Y-79375000D02*
X91402000Y-78194000D01*
X100572020Y-41606020D02*
X100572020Y-54367980D01*
X91402000Y-63538000D02*
X92583000Y-62357000D01*
X100572020Y-54367980D02*
X92583000Y-62357000D01*
X91402000Y-78194000D02*
X91402000Y-63538000D01*
%TD*%
M02*
