%TF.GenerationSoftware,KiCad,Pcbnew,7.0.1*%
%TF.CreationDate,2023-06-05T11:34:12+03:00*%
%TF.ProjectId,DeltaS48k-convertor,44656c74-6153-4343-986b-2d636f6e7665,rev?*%
%TF.SameCoordinates,Original*%
%TF.FileFunction,Legend,Bot*%
%TF.FilePolarity,Positive*%
%FSLAX46Y46*%
G04 Gerber Fmt 4.6, Leading zero omitted, Abs format (unit mm)*
G04 Created by KiCad (PCBNEW 7.0.1) date 2023-06-05 11:34:12*
%MOMM*%
%LPD*%
G01*
G04 APERTURE LIST*
%ADD10C,0.150000*%
G04 APERTURE END LIST*
D10*
X95299904Y-73723380D02*
X95299904Y-74199570D01*
X95585619Y-73628142D02*
X94585619Y-73961475D01*
X94585619Y-73961475D02*
X95585619Y-74294808D01*
X95585619Y-74675761D02*
X95585619Y-74866237D01*
X95585619Y-74866237D02*
X95538000Y-74961475D01*
X95538000Y-74961475D02*
X95490380Y-75009094D01*
X95490380Y-75009094D02*
X95347523Y-75104332D01*
X95347523Y-75104332D02*
X95157047Y-75151951D01*
X95157047Y-75151951D02*
X94776095Y-75151951D01*
X94776095Y-75151951D02*
X94680857Y-75104332D01*
X94680857Y-75104332D02*
X94633238Y-75056713D01*
X94633238Y-75056713D02*
X94585619Y-74961475D01*
X94585619Y-74961475D02*
X94585619Y-74770999D01*
X94585619Y-74770999D02*
X94633238Y-74675761D01*
X94633238Y-74675761D02*
X94680857Y-74628142D01*
X94680857Y-74628142D02*
X94776095Y-74580523D01*
X94776095Y-74580523D02*
X95014190Y-74580523D01*
X95014190Y-74580523D02*
X95109428Y-74628142D01*
X95109428Y-74628142D02*
X95157047Y-74675761D01*
X95157047Y-74675761D02*
X95204666Y-74770999D01*
X95204666Y-74770999D02*
X95204666Y-74961475D01*
X95204666Y-74961475D02*
X95157047Y-75056713D01*
X95157047Y-75056713D02*
X95109428Y-75104332D01*
X95109428Y-75104332D02*
X95014190Y-75151951D01*
X118159904Y-48847666D02*
X118159904Y-49323856D01*
X118445619Y-48752428D02*
X117445619Y-49085761D01*
X117445619Y-49085761D02*
X118445619Y-49419094D01*
X117445619Y-49657190D02*
X117445619Y-50323856D01*
X117445619Y-50323856D02*
X118445619Y-49895285D01*
X145433238Y-73056714D02*
X145385619Y-72961476D01*
X145385619Y-72961476D02*
X145385619Y-72818619D01*
X145385619Y-72818619D02*
X145433238Y-72675762D01*
X145433238Y-72675762D02*
X145528476Y-72580524D01*
X145528476Y-72580524D02*
X145623714Y-72532905D01*
X145623714Y-72532905D02*
X145814190Y-72485286D01*
X145814190Y-72485286D02*
X145957047Y-72485286D01*
X145957047Y-72485286D02*
X146147523Y-72532905D01*
X146147523Y-72532905D02*
X146242761Y-72580524D01*
X146242761Y-72580524D02*
X146338000Y-72675762D01*
X146338000Y-72675762D02*
X146385619Y-72818619D01*
X146385619Y-72818619D02*
X146385619Y-72913857D01*
X146385619Y-72913857D02*
X146338000Y-73056714D01*
X146338000Y-73056714D02*
X146290380Y-73104333D01*
X146290380Y-73104333D02*
X145957047Y-73104333D01*
X145957047Y-73104333D02*
X145957047Y-72913857D01*
X146385619Y-73532905D02*
X145385619Y-73532905D01*
X145385619Y-73532905D02*
X146385619Y-74104333D01*
X146385619Y-74104333D02*
X145385619Y-74104333D01*
X146385619Y-74580524D02*
X145385619Y-74580524D01*
X145385619Y-74580524D02*
X145385619Y-74818619D01*
X145385619Y-74818619D02*
X145433238Y-74961476D01*
X145433238Y-74961476D02*
X145528476Y-75056714D01*
X145528476Y-75056714D02*
X145623714Y-75104333D01*
X145623714Y-75104333D02*
X145814190Y-75151952D01*
X145814190Y-75151952D02*
X145957047Y-75151952D01*
X145957047Y-75151952D02*
X146147523Y-75104333D01*
X146147523Y-75104333D02*
X146242761Y-75056714D01*
X146242761Y-75056714D02*
X146338000Y-74961476D01*
X146338000Y-74961476D02*
X146385619Y-74818619D01*
X146385619Y-74818619D02*
X146385619Y-74580524D01*
X97601809Y-71961476D02*
X97649428Y-72104333D01*
X97649428Y-72104333D02*
X97697047Y-72151952D01*
X97697047Y-72151952D02*
X97792285Y-72199571D01*
X97792285Y-72199571D02*
X97935142Y-72199571D01*
X97935142Y-72199571D02*
X98030380Y-72151952D01*
X98030380Y-72151952D02*
X98078000Y-72104333D01*
X98078000Y-72104333D02*
X98125619Y-72009095D01*
X98125619Y-72009095D02*
X98125619Y-71628143D01*
X98125619Y-71628143D02*
X97125619Y-71628143D01*
X97125619Y-71628143D02*
X97125619Y-71961476D01*
X97125619Y-71961476D02*
X97173238Y-72056714D01*
X97173238Y-72056714D02*
X97220857Y-72104333D01*
X97220857Y-72104333D02*
X97316095Y-72151952D01*
X97316095Y-72151952D02*
X97411333Y-72151952D01*
X97411333Y-72151952D02*
X97506571Y-72104333D01*
X97506571Y-72104333D02*
X97554190Y-72056714D01*
X97554190Y-72056714D02*
X97601809Y-71961476D01*
X97601809Y-71961476D02*
X97601809Y-71628143D01*
X98078000Y-72580524D02*
X98125619Y-72723381D01*
X98125619Y-72723381D02*
X98125619Y-72961476D01*
X98125619Y-72961476D02*
X98078000Y-73056714D01*
X98078000Y-73056714D02*
X98030380Y-73104333D01*
X98030380Y-73104333D02*
X97935142Y-73151952D01*
X97935142Y-73151952D02*
X97839904Y-73151952D01*
X97839904Y-73151952D02*
X97744666Y-73104333D01*
X97744666Y-73104333D02*
X97697047Y-73056714D01*
X97697047Y-73056714D02*
X97649428Y-72961476D01*
X97649428Y-72961476D02*
X97601809Y-72771000D01*
X97601809Y-72771000D02*
X97554190Y-72675762D01*
X97554190Y-72675762D02*
X97506571Y-72628143D01*
X97506571Y-72628143D02*
X97411333Y-72580524D01*
X97411333Y-72580524D02*
X97316095Y-72580524D01*
X97316095Y-72580524D02*
X97220857Y-72628143D01*
X97220857Y-72628143D02*
X97173238Y-72675762D01*
X97173238Y-72675762D02*
X97125619Y-72771000D01*
X97125619Y-72771000D02*
X97125619Y-73009095D01*
X97125619Y-73009095D02*
X97173238Y-73151952D01*
X98030380Y-74151952D02*
X98078000Y-74104333D01*
X98078000Y-74104333D02*
X98125619Y-73961476D01*
X98125619Y-73961476D02*
X98125619Y-73866238D01*
X98125619Y-73866238D02*
X98078000Y-73723381D01*
X98078000Y-73723381D02*
X97982761Y-73628143D01*
X97982761Y-73628143D02*
X97887523Y-73580524D01*
X97887523Y-73580524D02*
X97697047Y-73532905D01*
X97697047Y-73532905D02*
X97554190Y-73532905D01*
X97554190Y-73532905D02*
X97363714Y-73580524D01*
X97363714Y-73580524D02*
X97268476Y-73628143D01*
X97268476Y-73628143D02*
X97173238Y-73723381D01*
X97173238Y-73723381D02*
X97125619Y-73866238D01*
X97125619Y-73866238D02*
X97125619Y-73961476D01*
X97125619Y-73961476D02*
X97173238Y-74104333D01*
X97173238Y-74104333D02*
X97220857Y-74151952D01*
X98125619Y-74580524D02*
X97125619Y-74580524D01*
X98125619Y-75151952D02*
X97554190Y-74723381D01*
X97125619Y-75151952D02*
X97697047Y-74580524D01*
X140765904Y-48847666D02*
X140765904Y-49323856D01*
X141051619Y-48752428D02*
X140051619Y-49085761D01*
X140051619Y-49085761D02*
X141051619Y-49419094D01*
X140051619Y-49657190D02*
X140051619Y-50276237D01*
X140051619Y-50276237D02*
X140432571Y-49942904D01*
X140432571Y-49942904D02*
X140432571Y-50085761D01*
X140432571Y-50085761D02*
X140480190Y-50180999D01*
X140480190Y-50180999D02*
X140527809Y-50228618D01*
X140527809Y-50228618D02*
X140623047Y-50276237D01*
X140623047Y-50276237D02*
X140861142Y-50276237D01*
X140861142Y-50276237D02*
X140956380Y-50228618D01*
X140956380Y-50228618D02*
X141004000Y-50180999D01*
X141004000Y-50180999D02*
X141051619Y-50085761D01*
X141051619Y-50085761D02*
X141051619Y-49800047D01*
X141051619Y-49800047D02*
X141004000Y-49704809D01*
X141004000Y-49704809D02*
X140956380Y-49657190D01*
X143051904Y-48847666D02*
X143051904Y-49323856D01*
X143337619Y-48752428D02*
X142337619Y-49085761D01*
X142337619Y-49085761D02*
X143337619Y-49419094D01*
X142432857Y-49704809D02*
X142385238Y-49752428D01*
X142385238Y-49752428D02*
X142337619Y-49847666D01*
X142337619Y-49847666D02*
X142337619Y-50085761D01*
X142337619Y-50085761D02*
X142385238Y-50180999D01*
X142385238Y-50180999D02*
X142432857Y-50228618D01*
X142432857Y-50228618D02*
X142528095Y-50276237D01*
X142528095Y-50276237D02*
X142623333Y-50276237D01*
X142623333Y-50276237D02*
X142766190Y-50228618D01*
X142766190Y-50228618D02*
X143337619Y-49657190D01*
X143337619Y-49657190D02*
X143337619Y-50276237D01*
X133399904Y-73723380D02*
X133399904Y-74199570D01*
X133685619Y-73628142D02*
X132685619Y-73961475D01*
X132685619Y-73961475D02*
X133685619Y-74294808D01*
X132685619Y-74532904D02*
X132685619Y-75151951D01*
X132685619Y-75151951D02*
X133066571Y-74818618D01*
X133066571Y-74818618D02*
X133066571Y-74961475D01*
X133066571Y-74961475D02*
X133114190Y-75056713D01*
X133114190Y-75056713D02*
X133161809Y-75104332D01*
X133161809Y-75104332D02*
X133257047Y-75151951D01*
X133257047Y-75151951D02*
X133495142Y-75151951D01*
X133495142Y-75151951D02*
X133590380Y-75104332D01*
X133590380Y-75104332D02*
X133638000Y-75056713D01*
X133638000Y-75056713D02*
X133685619Y-74961475D01*
X133685619Y-74961475D02*
X133685619Y-74675761D01*
X133685619Y-74675761D02*
X133638000Y-74580523D01*
X133638000Y-74580523D02*
X133590380Y-74532904D01*
X107745904Y-73723380D02*
X107745904Y-74199570D01*
X108031619Y-73628142D02*
X107031619Y-73961475D01*
X107031619Y-73961475D02*
X108031619Y-74294808D01*
X107031619Y-75056713D02*
X107031619Y-74866237D01*
X107031619Y-74866237D02*
X107079238Y-74770999D01*
X107079238Y-74770999D02*
X107126857Y-74723380D01*
X107126857Y-74723380D02*
X107269714Y-74628142D01*
X107269714Y-74628142D02*
X107460190Y-74580523D01*
X107460190Y-74580523D02*
X107841142Y-74580523D01*
X107841142Y-74580523D02*
X107936380Y-74628142D01*
X107936380Y-74628142D02*
X107984000Y-74675761D01*
X107984000Y-74675761D02*
X108031619Y-74770999D01*
X108031619Y-74770999D02*
X108031619Y-74961475D01*
X108031619Y-74961475D02*
X107984000Y-75056713D01*
X107984000Y-75056713D02*
X107936380Y-75104332D01*
X107936380Y-75104332D02*
X107841142Y-75151951D01*
X107841142Y-75151951D02*
X107603047Y-75151951D01*
X107603047Y-75151951D02*
X107507809Y-75104332D01*
X107507809Y-75104332D02*
X107460190Y-75056713D01*
X107460190Y-75056713D02*
X107412571Y-74961475D01*
X107412571Y-74961475D02*
X107412571Y-74770999D01*
X107412571Y-74770999D02*
X107460190Y-74675761D01*
X107460190Y-74675761D02*
X107507809Y-74628142D01*
X107507809Y-74628142D02*
X107603047Y-74580523D01*
X155545619Y-72580524D02*
X156545619Y-72913857D01*
X156545619Y-72913857D02*
X155545619Y-73247190D01*
X156450380Y-74151952D02*
X156498000Y-74104333D01*
X156498000Y-74104333D02*
X156545619Y-73961476D01*
X156545619Y-73961476D02*
X156545619Y-73866238D01*
X156545619Y-73866238D02*
X156498000Y-73723381D01*
X156498000Y-73723381D02*
X156402761Y-73628143D01*
X156402761Y-73628143D02*
X156307523Y-73580524D01*
X156307523Y-73580524D02*
X156117047Y-73532905D01*
X156117047Y-73532905D02*
X155974190Y-73532905D01*
X155974190Y-73532905D02*
X155783714Y-73580524D01*
X155783714Y-73580524D02*
X155688476Y-73628143D01*
X155688476Y-73628143D02*
X155593238Y-73723381D01*
X155593238Y-73723381D02*
X155545619Y-73866238D01*
X155545619Y-73866238D02*
X155545619Y-73961476D01*
X155545619Y-73961476D02*
X155593238Y-74104333D01*
X155593238Y-74104333D02*
X155640857Y-74151952D01*
X156450380Y-75151952D02*
X156498000Y-75104333D01*
X156498000Y-75104333D02*
X156545619Y-74961476D01*
X156545619Y-74961476D02*
X156545619Y-74866238D01*
X156545619Y-74866238D02*
X156498000Y-74723381D01*
X156498000Y-74723381D02*
X156402761Y-74628143D01*
X156402761Y-74628143D02*
X156307523Y-74580524D01*
X156307523Y-74580524D02*
X156117047Y-74532905D01*
X156117047Y-74532905D02*
X155974190Y-74532905D01*
X155974190Y-74532905D02*
X155783714Y-74580524D01*
X155783714Y-74580524D02*
X155688476Y-74628143D01*
X155688476Y-74628143D02*
X155593238Y-74723381D01*
X155593238Y-74723381D02*
X155545619Y-74866238D01*
X155545619Y-74866238D02*
X155545619Y-74961476D01*
X155545619Y-74961476D02*
X155593238Y-75104333D01*
X155593238Y-75104333D02*
X155640857Y-75151952D01*
X165657904Y-48847667D02*
X165657904Y-49323857D01*
X165943619Y-48752429D02*
X164943619Y-49085762D01*
X164943619Y-49085762D02*
X165943619Y-49419095D01*
X165943619Y-50276238D02*
X165943619Y-49704810D01*
X165943619Y-49990524D02*
X164943619Y-49990524D01*
X164943619Y-49990524D02*
X165086476Y-49895286D01*
X165086476Y-49895286D02*
X165181714Y-49800048D01*
X165181714Y-49800048D02*
X165229333Y-49704810D01*
X165276952Y-51133381D02*
X165943619Y-51133381D01*
X164896000Y-50895286D02*
X165610285Y-50657191D01*
X165610285Y-50657191D02*
X165610285Y-51276238D01*
X110285904Y-73723380D02*
X110285904Y-74199570D01*
X110571619Y-73628142D02*
X109571619Y-73961475D01*
X109571619Y-73961475D02*
X110571619Y-74294808D01*
X109571619Y-74532904D02*
X109571619Y-75199570D01*
X109571619Y-75199570D02*
X110571619Y-74770999D01*
X123001809Y-49228619D02*
X123049428Y-49371476D01*
X123049428Y-49371476D02*
X123097047Y-49419095D01*
X123097047Y-49419095D02*
X123192285Y-49466714D01*
X123192285Y-49466714D02*
X123335142Y-49466714D01*
X123335142Y-49466714D02*
X123430380Y-49419095D01*
X123430380Y-49419095D02*
X123478000Y-49371476D01*
X123478000Y-49371476D02*
X123525619Y-49276238D01*
X123525619Y-49276238D02*
X123525619Y-48895286D01*
X123525619Y-48895286D02*
X122525619Y-48895286D01*
X122525619Y-48895286D02*
X122525619Y-49228619D01*
X122525619Y-49228619D02*
X122573238Y-49323857D01*
X122573238Y-49323857D02*
X122620857Y-49371476D01*
X122620857Y-49371476D02*
X122716095Y-49419095D01*
X122716095Y-49419095D02*
X122811333Y-49419095D01*
X122811333Y-49419095D02*
X122906571Y-49371476D01*
X122906571Y-49371476D02*
X122954190Y-49323857D01*
X122954190Y-49323857D02*
X123001809Y-49228619D01*
X123001809Y-49228619D02*
X123001809Y-48895286D01*
X122525619Y-49895286D02*
X123335142Y-49895286D01*
X123335142Y-49895286D02*
X123430380Y-49942905D01*
X123430380Y-49942905D02*
X123478000Y-49990524D01*
X123478000Y-49990524D02*
X123525619Y-50085762D01*
X123525619Y-50085762D02*
X123525619Y-50276238D01*
X123525619Y-50276238D02*
X123478000Y-50371476D01*
X123478000Y-50371476D02*
X123430380Y-50419095D01*
X123430380Y-50419095D02*
X123335142Y-50466714D01*
X123335142Y-50466714D02*
X122525619Y-50466714D01*
X123478000Y-50895286D02*
X123525619Y-51038143D01*
X123525619Y-51038143D02*
X123525619Y-51276238D01*
X123525619Y-51276238D02*
X123478000Y-51371476D01*
X123478000Y-51371476D02*
X123430380Y-51419095D01*
X123430380Y-51419095D02*
X123335142Y-51466714D01*
X123335142Y-51466714D02*
X123239904Y-51466714D01*
X123239904Y-51466714D02*
X123144666Y-51419095D01*
X123144666Y-51419095D02*
X123097047Y-51371476D01*
X123097047Y-51371476D02*
X123049428Y-51276238D01*
X123049428Y-51276238D02*
X123001809Y-51085762D01*
X123001809Y-51085762D02*
X122954190Y-50990524D01*
X122954190Y-50990524D02*
X122906571Y-50942905D01*
X122906571Y-50942905D02*
X122811333Y-50895286D01*
X122811333Y-50895286D02*
X122716095Y-50895286D01*
X122716095Y-50895286D02*
X122620857Y-50942905D01*
X122620857Y-50942905D02*
X122573238Y-50990524D01*
X122573238Y-50990524D02*
X122525619Y-51085762D01*
X122525619Y-51085762D02*
X122525619Y-51323857D01*
X122525619Y-51323857D02*
X122573238Y-51466714D01*
X123525619Y-52466714D02*
X123049428Y-52133381D01*
X123525619Y-51895286D02*
X122525619Y-51895286D01*
X122525619Y-51895286D02*
X122525619Y-52276238D01*
X122525619Y-52276238D02*
X122573238Y-52371476D01*
X122573238Y-52371476D02*
X122620857Y-52419095D01*
X122620857Y-52419095D02*
X122716095Y-52466714D01*
X122716095Y-52466714D02*
X122858952Y-52466714D01*
X122858952Y-52466714D02*
X122954190Y-52419095D01*
X122954190Y-52419095D02*
X123001809Y-52371476D01*
X123001809Y-52371476D02*
X123049428Y-52276238D01*
X123049428Y-52276238D02*
X123049428Y-51895286D01*
X123620857Y-53561952D02*
X123573238Y-53466714D01*
X123573238Y-53466714D02*
X123478000Y-53371476D01*
X123478000Y-53371476D02*
X123335142Y-53228619D01*
X123335142Y-53228619D02*
X123287523Y-53133381D01*
X123287523Y-53133381D02*
X123287523Y-53038143D01*
X123525619Y-53085762D02*
X123478000Y-52990524D01*
X123478000Y-52990524D02*
X123382761Y-52895286D01*
X123382761Y-52895286D02*
X123192285Y-52847667D01*
X123192285Y-52847667D02*
X122858952Y-52847667D01*
X122858952Y-52847667D02*
X122668476Y-52895286D01*
X122668476Y-52895286D02*
X122573238Y-52990524D01*
X122573238Y-52990524D02*
X122525619Y-53085762D01*
X122525619Y-53085762D02*
X122525619Y-53276238D01*
X122525619Y-53276238D02*
X122573238Y-53371476D01*
X122573238Y-53371476D02*
X122668476Y-53466714D01*
X122668476Y-53466714D02*
X122858952Y-53514333D01*
X122858952Y-53514333D02*
X123192285Y-53514333D01*
X123192285Y-53514333D02*
X123382761Y-53466714D01*
X123382761Y-53466714D02*
X123478000Y-53371476D01*
X123478000Y-53371476D02*
X123525619Y-53276238D01*
X123525619Y-53276238D02*
X123525619Y-53085762D01*
X113079904Y-48847666D02*
X113079904Y-49323856D01*
X113365619Y-48752428D02*
X112365619Y-49085761D01*
X112365619Y-49085761D02*
X113365619Y-49419094D01*
X112365619Y-50228618D02*
X112365619Y-49752428D01*
X112365619Y-49752428D02*
X112841809Y-49704809D01*
X112841809Y-49704809D02*
X112794190Y-49752428D01*
X112794190Y-49752428D02*
X112746571Y-49847666D01*
X112746571Y-49847666D02*
X112746571Y-50085761D01*
X112746571Y-50085761D02*
X112794190Y-50180999D01*
X112794190Y-50180999D02*
X112841809Y-50228618D01*
X112841809Y-50228618D02*
X112937047Y-50276237D01*
X112937047Y-50276237D02*
X113175142Y-50276237D01*
X113175142Y-50276237D02*
X113270380Y-50228618D01*
X113270380Y-50228618D02*
X113318000Y-50180999D01*
X113318000Y-50180999D02*
X113365619Y-50085761D01*
X113365619Y-50085761D02*
X113365619Y-49847666D01*
X113365619Y-49847666D02*
X113318000Y-49752428D01*
X113318000Y-49752428D02*
X113270380Y-49704809D01*
X110539904Y-48847666D02*
X110539904Y-49323856D01*
X110825619Y-48752428D02*
X109825619Y-49085761D01*
X109825619Y-49085761D02*
X110825619Y-49419094D01*
X110158952Y-50180999D02*
X110825619Y-50180999D01*
X109778000Y-49942904D02*
X110492285Y-49704809D01*
X110492285Y-49704809D02*
X110492285Y-50323856D01*
X160117619Y-48752429D02*
X161117619Y-49085762D01*
X161117619Y-49085762D02*
X160117619Y-49419095D01*
X161022380Y-50323857D02*
X161070000Y-50276238D01*
X161070000Y-50276238D02*
X161117619Y-50133381D01*
X161117619Y-50133381D02*
X161117619Y-50038143D01*
X161117619Y-50038143D02*
X161070000Y-49895286D01*
X161070000Y-49895286D02*
X160974761Y-49800048D01*
X160974761Y-49800048D02*
X160879523Y-49752429D01*
X160879523Y-49752429D02*
X160689047Y-49704810D01*
X160689047Y-49704810D02*
X160546190Y-49704810D01*
X160546190Y-49704810D02*
X160355714Y-49752429D01*
X160355714Y-49752429D02*
X160260476Y-49800048D01*
X160260476Y-49800048D02*
X160165238Y-49895286D01*
X160165238Y-49895286D02*
X160117619Y-50038143D01*
X160117619Y-50038143D02*
X160117619Y-50133381D01*
X160117619Y-50133381D02*
X160165238Y-50276238D01*
X160165238Y-50276238D02*
X160212857Y-50323857D01*
X161022380Y-51323857D02*
X161070000Y-51276238D01*
X161070000Y-51276238D02*
X161117619Y-51133381D01*
X161117619Y-51133381D02*
X161117619Y-51038143D01*
X161117619Y-51038143D02*
X161070000Y-50895286D01*
X161070000Y-50895286D02*
X160974761Y-50800048D01*
X160974761Y-50800048D02*
X160879523Y-50752429D01*
X160879523Y-50752429D02*
X160689047Y-50704810D01*
X160689047Y-50704810D02*
X160546190Y-50704810D01*
X160546190Y-50704810D02*
X160355714Y-50752429D01*
X160355714Y-50752429D02*
X160260476Y-50800048D01*
X160260476Y-50800048D02*
X160165238Y-50895286D01*
X160165238Y-50895286D02*
X160117619Y-51038143D01*
X160117619Y-51038143D02*
X160117619Y-51133381D01*
X160117619Y-51133381D02*
X160165238Y-51276238D01*
X160165238Y-51276238D02*
X160212857Y-51323857D01*
X160070000Y-52466714D02*
X161355714Y-51609572D01*
X160736666Y-52800048D02*
X160736666Y-53561953D01*
X161117619Y-53181000D02*
X160355714Y-53181000D01*
X160117619Y-54514333D02*
X160117619Y-54038143D01*
X160117619Y-54038143D02*
X160593809Y-53990524D01*
X160593809Y-53990524D02*
X160546190Y-54038143D01*
X160546190Y-54038143D02*
X160498571Y-54133381D01*
X160498571Y-54133381D02*
X160498571Y-54371476D01*
X160498571Y-54371476D02*
X160546190Y-54466714D01*
X160546190Y-54466714D02*
X160593809Y-54514333D01*
X160593809Y-54514333D02*
X160689047Y-54561952D01*
X160689047Y-54561952D02*
X160927142Y-54561952D01*
X160927142Y-54561952D02*
X161022380Y-54514333D01*
X161022380Y-54514333D02*
X161070000Y-54466714D01*
X161070000Y-54466714D02*
X161117619Y-54371476D01*
X161117619Y-54371476D02*
X161117619Y-54133381D01*
X161117619Y-54133381D02*
X161070000Y-54038143D01*
X161070000Y-54038143D02*
X161022380Y-53990524D01*
X160117619Y-54847667D02*
X161117619Y-55181000D01*
X161117619Y-55181000D02*
X160117619Y-55514333D01*
X150862380Y-49466713D02*
X150910000Y-49419094D01*
X150910000Y-49419094D02*
X150957619Y-49276237D01*
X150957619Y-49276237D02*
X150957619Y-49180999D01*
X150957619Y-49180999D02*
X150910000Y-49038142D01*
X150910000Y-49038142D02*
X150814761Y-48942904D01*
X150814761Y-48942904D02*
X150719523Y-48895285D01*
X150719523Y-48895285D02*
X150529047Y-48847666D01*
X150529047Y-48847666D02*
X150386190Y-48847666D01*
X150386190Y-48847666D02*
X150195714Y-48895285D01*
X150195714Y-48895285D02*
X150100476Y-48942904D01*
X150100476Y-48942904D02*
X150005238Y-49038142D01*
X150005238Y-49038142D02*
X149957619Y-49180999D01*
X149957619Y-49180999D02*
X149957619Y-49276237D01*
X149957619Y-49276237D02*
X150005238Y-49419094D01*
X150005238Y-49419094D02*
X150052857Y-49466713D01*
X150957619Y-50371475D02*
X150957619Y-49895285D01*
X150957619Y-49895285D02*
X149957619Y-49895285D01*
X150957619Y-50704809D02*
X149957619Y-50704809D01*
X150957619Y-51276237D02*
X150386190Y-50847666D01*
X149957619Y-51276237D02*
X150529047Y-50704809D01*
X145591904Y-48847666D02*
X145591904Y-49323856D01*
X145877619Y-48752428D02*
X144877619Y-49085761D01*
X144877619Y-49085761D02*
X145877619Y-49419094D01*
X145877619Y-50276237D02*
X145877619Y-49704809D01*
X145877619Y-49990523D02*
X144877619Y-49990523D01*
X144877619Y-49990523D02*
X145020476Y-49895285D01*
X145020476Y-49895285D02*
X145115714Y-49800047D01*
X145115714Y-49800047D02*
X145163333Y-49704809D01*
X113365619Y-71628141D02*
X112889428Y-71294808D01*
X113365619Y-71056713D02*
X112365619Y-71056713D01*
X112365619Y-71056713D02*
X112365619Y-71437665D01*
X112365619Y-71437665D02*
X112413238Y-71532903D01*
X112413238Y-71532903D02*
X112460857Y-71580522D01*
X112460857Y-71580522D02*
X112556095Y-71628141D01*
X112556095Y-71628141D02*
X112698952Y-71628141D01*
X112698952Y-71628141D02*
X112794190Y-71580522D01*
X112794190Y-71580522D02*
X112841809Y-71532903D01*
X112841809Y-71532903D02*
X112889428Y-71437665D01*
X112889428Y-71437665D02*
X112889428Y-71056713D01*
X112841809Y-72056713D02*
X112841809Y-72390046D01*
X113365619Y-72532903D02*
X113365619Y-72056713D01*
X113365619Y-72056713D02*
X112365619Y-72056713D01*
X112365619Y-72056713D02*
X112365619Y-72532903D01*
X113318000Y-72913856D02*
X113365619Y-73056713D01*
X113365619Y-73056713D02*
X113365619Y-73294808D01*
X113365619Y-73294808D02*
X113318000Y-73390046D01*
X113318000Y-73390046D02*
X113270380Y-73437665D01*
X113270380Y-73437665D02*
X113175142Y-73485284D01*
X113175142Y-73485284D02*
X113079904Y-73485284D01*
X113079904Y-73485284D02*
X112984666Y-73437665D01*
X112984666Y-73437665D02*
X112937047Y-73390046D01*
X112937047Y-73390046D02*
X112889428Y-73294808D01*
X112889428Y-73294808D02*
X112841809Y-73104332D01*
X112841809Y-73104332D02*
X112794190Y-73009094D01*
X112794190Y-73009094D02*
X112746571Y-72961475D01*
X112746571Y-72961475D02*
X112651333Y-72913856D01*
X112651333Y-72913856D02*
X112556095Y-72913856D01*
X112556095Y-72913856D02*
X112460857Y-72961475D01*
X112460857Y-72961475D02*
X112413238Y-73009094D01*
X112413238Y-73009094D02*
X112365619Y-73104332D01*
X112365619Y-73104332D02*
X112365619Y-73342427D01*
X112365619Y-73342427D02*
X112413238Y-73485284D01*
X112841809Y-73913856D02*
X112841809Y-74247189D01*
X113365619Y-74390046D02*
X113365619Y-73913856D01*
X113365619Y-73913856D02*
X112365619Y-73913856D01*
X112365619Y-73913856D02*
X112365619Y-74390046D01*
X112365619Y-74675761D02*
X112365619Y-75247189D01*
X113365619Y-74961475D02*
X112365619Y-74961475D01*
X138479904Y-73723380D02*
X138479904Y-74199570D01*
X138765619Y-73628142D02*
X137765619Y-73961475D01*
X137765619Y-73961475D02*
X138765619Y-74294808D01*
X138765619Y-75151951D02*
X138765619Y-74580523D01*
X138765619Y-74866237D02*
X137765619Y-74866237D01*
X137765619Y-74866237D02*
X137908476Y-74770999D01*
X137908476Y-74770999D02*
X138003714Y-74675761D01*
X138003714Y-74675761D02*
X138051333Y-74580523D01*
X100665619Y-71009095D02*
X100189428Y-70675762D01*
X100665619Y-70437667D02*
X99665619Y-70437667D01*
X99665619Y-70437667D02*
X99665619Y-70818619D01*
X99665619Y-70818619D02*
X99713238Y-70913857D01*
X99713238Y-70913857D02*
X99760857Y-70961476D01*
X99760857Y-70961476D02*
X99856095Y-71009095D01*
X99856095Y-71009095D02*
X99998952Y-71009095D01*
X99998952Y-71009095D02*
X100094190Y-70961476D01*
X100094190Y-70961476D02*
X100141809Y-70913857D01*
X100141809Y-70913857D02*
X100189428Y-70818619D01*
X100189428Y-70818619D02*
X100189428Y-70437667D01*
X99665619Y-71628143D02*
X99665619Y-71818619D01*
X99665619Y-71818619D02*
X99713238Y-71913857D01*
X99713238Y-71913857D02*
X99808476Y-72009095D01*
X99808476Y-72009095D02*
X99998952Y-72056714D01*
X99998952Y-72056714D02*
X100332285Y-72056714D01*
X100332285Y-72056714D02*
X100522761Y-72009095D01*
X100522761Y-72009095D02*
X100618000Y-71913857D01*
X100618000Y-71913857D02*
X100665619Y-71818619D01*
X100665619Y-71818619D02*
X100665619Y-71628143D01*
X100665619Y-71628143D02*
X100618000Y-71532905D01*
X100618000Y-71532905D02*
X100522761Y-71437667D01*
X100522761Y-71437667D02*
X100332285Y-71390048D01*
X100332285Y-71390048D02*
X99998952Y-71390048D01*
X99998952Y-71390048D02*
X99808476Y-71437667D01*
X99808476Y-71437667D02*
X99713238Y-71532905D01*
X99713238Y-71532905D02*
X99665619Y-71628143D01*
X100665619Y-72485286D02*
X99665619Y-72485286D01*
X99665619Y-72485286D02*
X100379904Y-72818619D01*
X100379904Y-72818619D02*
X99665619Y-73151952D01*
X99665619Y-73151952D02*
X100665619Y-73151952D01*
X100570380Y-74199571D02*
X100618000Y-74151952D01*
X100618000Y-74151952D02*
X100665619Y-74009095D01*
X100665619Y-74009095D02*
X100665619Y-73913857D01*
X100665619Y-73913857D02*
X100618000Y-73771000D01*
X100618000Y-73771000D02*
X100522761Y-73675762D01*
X100522761Y-73675762D02*
X100427523Y-73628143D01*
X100427523Y-73628143D02*
X100237047Y-73580524D01*
X100237047Y-73580524D02*
X100094190Y-73580524D01*
X100094190Y-73580524D02*
X99903714Y-73628143D01*
X99903714Y-73628143D02*
X99808476Y-73675762D01*
X99808476Y-73675762D02*
X99713238Y-73771000D01*
X99713238Y-73771000D02*
X99665619Y-73913857D01*
X99665619Y-73913857D02*
X99665619Y-74009095D01*
X99665619Y-74009095D02*
X99713238Y-74151952D01*
X99713238Y-74151952D02*
X99760857Y-74199571D01*
X100618000Y-74580524D02*
X100665619Y-74723381D01*
X100665619Y-74723381D02*
X100665619Y-74961476D01*
X100665619Y-74961476D02*
X100618000Y-75056714D01*
X100618000Y-75056714D02*
X100570380Y-75104333D01*
X100570380Y-75104333D02*
X100475142Y-75151952D01*
X100475142Y-75151952D02*
X100379904Y-75151952D01*
X100379904Y-75151952D02*
X100284666Y-75104333D01*
X100284666Y-75104333D02*
X100237047Y-75056714D01*
X100237047Y-75056714D02*
X100189428Y-74961476D01*
X100189428Y-74961476D02*
X100141809Y-74771000D01*
X100141809Y-74771000D02*
X100094190Y-74675762D01*
X100094190Y-74675762D02*
X100046571Y-74628143D01*
X100046571Y-74628143D02*
X99951333Y-74580524D01*
X99951333Y-74580524D02*
X99856095Y-74580524D01*
X99856095Y-74580524D02*
X99760857Y-74628143D01*
X99760857Y-74628143D02*
X99713238Y-74675762D01*
X99713238Y-74675762D02*
X99665619Y-74771000D01*
X99665619Y-74771000D02*
X99665619Y-75009095D01*
X99665619Y-75009095D02*
X99713238Y-75151952D01*
X105475809Y-49228619D02*
X105523428Y-49371476D01*
X105523428Y-49371476D02*
X105571047Y-49419095D01*
X105571047Y-49419095D02*
X105666285Y-49466714D01*
X105666285Y-49466714D02*
X105809142Y-49466714D01*
X105809142Y-49466714D02*
X105904380Y-49419095D01*
X105904380Y-49419095D02*
X105952000Y-49371476D01*
X105952000Y-49371476D02*
X105999619Y-49276238D01*
X105999619Y-49276238D02*
X105999619Y-48895286D01*
X105999619Y-48895286D02*
X104999619Y-48895286D01*
X104999619Y-48895286D02*
X104999619Y-49228619D01*
X104999619Y-49228619D02*
X105047238Y-49323857D01*
X105047238Y-49323857D02*
X105094857Y-49371476D01*
X105094857Y-49371476D02*
X105190095Y-49419095D01*
X105190095Y-49419095D02*
X105285333Y-49419095D01*
X105285333Y-49419095D02*
X105380571Y-49371476D01*
X105380571Y-49371476D02*
X105428190Y-49323857D01*
X105428190Y-49323857D02*
X105475809Y-49228619D01*
X105475809Y-49228619D02*
X105475809Y-48895286D01*
X104999619Y-49895286D02*
X105809142Y-49895286D01*
X105809142Y-49895286D02*
X105904380Y-49942905D01*
X105904380Y-49942905D02*
X105952000Y-49990524D01*
X105952000Y-49990524D02*
X105999619Y-50085762D01*
X105999619Y-50085762D02*
X105999619Y-50276238D01*
X105999619Y-50276238D02*
X105952000Y-50371476D01*
X105952000Y-50371476D02*
X105904380Y-50419095D01*
X105904380Y-50419095D02*
X105809142Y-50466714D01*
X105809142Y-50466714D02*
X104999619Y-50466714D01*
X105952000Y-50895286D02*
X105999619Y-51038143D01*
X105999619Y-51038143D02*
X105999619Y-51276238D01*
X105999619Y-51276238D02*
X105952000Y-51371476D01*
X105952000Y-51371476D02*
X105904380Y-51419095D01*
X105904380Y-51419095D02*
X105809142Y-51466714D01*
X105809142Y-51466714D02*
X105713904Y-51466714D01*
X105713904Y-51466714D02*
X105618666Y-51419095D01*
X105618666Y-51419095D02*
X105571047Y-51371476D01*
X105571047Y-51371476D02*
X105523428Y-51276238D01*
X105523428Y-51276238D02*
X105475809Y-51085762D01*
X105475809Y-51085762D02*
X105428190Y-50990524D01*
X105428190Y-50990524D02*
X105380571Y-50942905D01*
X105380571Y-50942905D02*
X105285333Y-50895286D01*
X105285333Y-50895286D02*
X105190095Y-50895286D01*
X105190095Y-50895286D02*
X105094857Y-50942905D01*
X105094857Y-50942905D02*
X105047238Y-50990524D01*
X105047238Y-50990524D02*
X104999619Y-51085762D01*
X104999619Y-51085762D02*
X104999619Y-51323857D01*
X104999619Y-51323857D02*
X105047238Y-51466714D01*
X105713904Y-51847667D02*
X105713904Y-52323857D01*
X105999619Y-51752429D02*
X104999619Y-52085762D01*
X104999619Y-52085762D02*
X105999619Y-52419095D01*
X105904380Y-53323857D02*
X105952000Y-53276238D01*
X105952000Y-53276238D02*
X105999619Y-53133381D01*
X105999619Y-53133381D02*
X105999619Y-53038143D01*
X105999619Y-53038143D02*
X105952000Y-52895286D01*
X105952000Y-52895286D02*
X105856761Y-52800048D01*
X105856761Y-52800048D02*
X105761523Y-52752429D01*
X105761523Y-52752429D02*
X105571047Y-52704810D01*
X105571047Y-52704810D02*
X105428190Y-52704810D01*
X105428190Y-52704810D02*
X105237714Y-52752429D01*
X105237714Y-52752429D02*
X105142476Y-52800048D01*
X105142476Y-52800048D02*
X105047238Y-52895286D01*
X105047238Y-52895286D02*
X104999619Y-53038143D01*
X104999619Y-53038143D02*
X104999619Y-53133381D01*
X104999619Y-53133381D02*
X105047238Y-53276238D01*
X105047238Y-53276238D02*
X105094857Y-53323857D01*
X105999619Y-53752429D02*
X104999619Y-53752429D01*
X105999619Y-54323857D02*
X105428190Y-53895286D01*
X104999619Y-54323857D02*
X105571047Y-53752429D01*
X161339904Y-72771000D02*
X161339904Y-73247190D01*
X161625619Y-72675762D02*
X160625619Y-73009095D01*
X160625619Y-73009095D02*
X161625619Y-73342428D01*
X161625619Y-74199571D02*
X161625619Y-73628143D01*
X161625619Y-73913857D02*
X160625619Y-73913857D01*
X160625619Y-73913857D02*
X160768476Y-73818619D01*
X160768476Y-73818619D02*
X160863714Y-73723381D01*
X160863714Y-73723381D02*
X160911333Y-73628143D01*
X160958952Y-75056714D02*
X161625619Y-75056714D01*
X160578000Y-74818619D02*
X161292285Y-74580524D01*
X161292285Y-74580524D02*
X161292285Y-75199571D01*
X127653238Y-73056714D02*
X127605619Y-72961476D01*
X127605619Y-72961476D02*
X127605619Y-72818619D01*
X127605619Y-72818619D02*
X127653238Y-72675762D01*
X127653238Y-72675762D02*
X127748476Y-72580524D01*
X127748476Y-72580524D02*
X127843714Y-72532905D01*
X127843714Y-72532905D02*
X128034190Y-72485286D01*
X128034190Y-72485286D02*
X128177047Y-72485286D01*
X128177047Y-72485286D02*
X128367523Y-72532905D01*
X128367523Y-72532905D02*
X128462761Y-72580524D01*
X128462761Y-72580524D02*
X128558000Y-72675762D01*
X128558000Y-72675762D02*
X128605619Y-72818619D01*
X128605619Y-72818619D02*
X128605619Y-72913857D01*
X128605619Y-72913857D02*
X128558000Y-73056714D01*
X128558000Y-73056714D02*
X128510380Y-73104333D01*
X128510380Y-73104333D02*
X128177047Y-73104333D01*
X128177047Y-73104333D02*
X128177047Y-72913857D01*
X128605619Y-73532905D02*
X127605619Y-73532905D01*
X127605619Y-73532905D02*
X128605619Y-74104333D01*
X128605619Y-74104333D02*
X127605619Y-74104333D01*
X128605619Y-74580524D02*
X127605619Y-74580524D01*
X127605619Y-74580524D02*
X127605619Y-74818619D01*
X127605619Y-74818619D02*
X127653238Y-74961476D01*
X127653238Y-74961476D02*
X127748476Y-75056714D01*
X127748476Y-75056714D02*
X127843714Y-75104333D01*
X127843714Y-75104333D02*
X128034190Y-75151952D01*
X128034190Y-75151952D02*
X128177047Y-75151952D01*
X128177047Y-75151952D02*
X128367523Y-75104333D01*
X128367523Y-75104333D02*
X128462761Y-75056714D01*
X128462761Y-75056714D02*
X128558000Y-74961476D01*
X128558000Y-74961476D02*
X128605619Y-74818619D01*
X128605619Y-74818619D02*
X128605619Y-74580524D01*
X135939904Y-73723380D02*
X135939904Y-74199570D01*
X136225619Y-73628142D02*
X135225619Y-73961475D01*
X135225619Y-73961475D02*
X136225619Y-74294808D01*
X135320857Y-74580523D02*
X135273238Y-74628142D01*
X135273238Y-74628142D02*
X135225619Y-74723380D01*
X135225619Y-74723380D02*
X135225619Y-74961475D01*
X135225619Y-74961475D02*
X135273238Y-75056713D01*
X135273238Y-75056713D02*
X135320857Y-75104332D01*
X135320857Y-75104332D02*
X135416095Y-75151951D01*
X135416095Y-75151951D02*
X135511333Y-75151951D01*
X135511333Y-75151951D02*
X135654190Y-75104332D01*
X135654190Y-75104332D02*
X136225619Y-74532904D01*
X136225619Y-74532904D02*
X136225619Y-75151951D01*
X163117904Y-48847667D02*
X163117904Y-49323857D01*
X163403619Y-48752429D02*
X162403619Y-49085762D01*
X162403619Y-49085762D02*
X163403619Y-49419095D01*
X163403619Y-50276238D02*
X163403619Y-49704810D01*
X163403619Y-49990524D02*
X162403619Y-49990524D01*
X162403619Y-49990524D02*
X162546476Y-49895286D01*
X162546476Y-49895286D02*
X162641714Y-49800048D01*
X162641714Y-49800048D02*
X162689333Y-49704810D01*
X162498857Y-50657191D02*
X162451238Y-50704810D01*
X162451238Y-50704810D02*
X162403619Y-50800048D01*
X162403619Y-50800048D02*
X162403619Y-51038143D01*
X162403619Y-51038143D02*
X162451238Y-51133381D01*
X162451238Y-51133381D02*
X162498857Y-51181000D01*
X162498857Y-51181000D02*
X162594095Y-51228619D01*
X162594095Y-51228619D02*
X162689333Y-51228619D01*
X162689333Y-51228619D02*
X162832190Y-51181000D01*
X162832190Y-51181000D02*
X163403619Y-50609572D01*
X163403619Y-50609572D02*
X163403619Y-51228619D01*
X155085238Y-49419095D02*
X155037619Y-49323857D01*
X155037619Y-49323857D02*
X155037619Y-49181000D01*
X155037619Y-49181000D02*
X155085238Y-49038143D01*
X155085238Y-49038143D02*
X155180476Y-48942905D01*
X155180476Y-48942905D02*
X155275714Y-48895286D01*
X155275714Y-48895286D02*
X155466190Y-48847667D01*
X155466190Y-48847667D02*
X155609047Y-48847667D01*
X155609047Y-48847667D02*
X155799523Y-48895286D01*
X155799523Y-48895286D02*
X155894761Y-48942905D01*
X155894761Y-48942905D02*
X155990000Y-49038143D01*
X155990000Y-49038143D02*
X156037619Y-49181000D01*
X156037619Y-49181000D02*
X156037619Y-49276238D01*
X156037619Y-49276238D02*
X155990000Y-49419095D01*
X155990000Y-49419095D02*
X155942380Y-49466714D01*
X155942380Y-49466714D02*
X155609047Y-49466714D01*
X155609047Y-49466714D02*
X155609047Y-49276238D01*
X156037619Y-49895286D02*
X155037619Y-49895286D01*
X155037619Y-49895286D02*
X156037619Y-50466714D01*
X156037619Y-50466714D02*
X155037619Y-50466714D01*
X156037619Y-50942905D02*
X155037619Y-50942905D01*
X155037619Y-50942905D02*
X155037619Y-51181000D01*
X155037619Y-51181000D02*
X155085238Y-51323857D01*
X155085238Y-51323857D02*
X155180476Y-51419095D01*
X155180476Y-51419095D02*
X155275714Y-51466714D01*
X155275714Y-51466714D02*
X155466190Y-51514333D01*
X155466190Y-51514333D02*
X155609047Y-51514333D01*
X155609047Y-51514333D02*
X155799523Y-51466714D01*
X155799523Y-51466714D02*
X155894761Y-51419095D01*
X155894761Y-51419095D02*
X155990000Y-51323857D01*
X155990000Y-51323857D02*
X156037619Y-51181000D01*
X156037619Y-51181000D02*
X156037619Y-50942905D01*
X103173904Y-48847666D02*
X103173904Y-49323856D01*
X103459619Y-48752428D02*
X102459619Y-49085761D01*
X102459619Y-49085761D02*
X103459619Y-49419094D01*
X103459619Y-49800047D02*
X103459619Y-49990523D01*
X103459619Y-49990523D02*
X103412000Y-50085761D01*
X103412000Y-50085761D02*
X103364380Y-50133380D01*
X103364380Y-50133380D02*
X103221523Y-50228618D01*
X103221523Y-50228618D02*
X103031047Y-50276237D01*
X103031047Y-50276237D02*
X102650095Y-50276237D01*
X102650095Y-50276237D02*
X102554857Y-50228618D01*
X102554857Y-50228618D02*
X102507238Y-50180999D01*
X102507238Y-50180999D02*
X102459619Y-50085761D01*
X102459619Y-50085761D02*
X102459619Y-49895285D01*
X102459619Y-49895285D02*
X102507238Y-49800047D01*
X102507238Y-49800047D02*
X102554857Y-49752428D01*
X102554857Y-49752428D02*
X102650095Y-49704809D01*
X102650095Y-49704809D02*
X102888190Y-49704809D01*
X102888190Y-49704809D02*
X102983428Y-49752428D01*
X102983428Y-49752428D02*
X103031047Y-49800047D01*
X103031047Y-49800047D02*
X103078666Y-49895285D01*
X103078666Y-49895285D02*
X103078666Y-50085761D01*
X103078666Y-50085761D02*
X103031047Y-50180999D01*
X103031047Y-50180999D02*
X102983428Y-50228618D01*
X102983428Y-50228618D02*
X102888190Y-50276237D01*
X115381809Y-70866238D02*
X115429428Y-71009095D01*
X115429428Y-71009095D02*
X115477047Y-71056714D01*
X115477047Y-71056714D02*
X115572285Y-71104333D01*
X115572285Y-71104333D02*
X115715142Y-71104333D01*
X115715142Y-71104333D02*
X115810380Y-71056714D01*
X115810380Y-71056714D02*
X115858000Y-71009095D01*
X115858000Y-71009095D02*
X115905619Y-70913857D01*
X115905619Y-70913857D02*
X115905619Y-70532905D01*
X115905619Y-70532905D02*
X114905619Y-70532905D01*
X114905619Y-70532905D02*
X114905619Y-70866238D01*
X114905619Y-70866238D02*
X114953238Y-70961476D01*
X114953238Y-70961476D02*
X115000857Y-71009095D01*
X115000857Y-71009095D02*
X115096095Y-71056714D01*
X115096095Y-71056714D02*
X115191333Y-71056714D01*
X115191333Y-71056714D02*
X115286571Y-71009095D01*
X115286571Y-71009095D02*
X115334190Y-70961476D01*
X115334190Y-70961476D02*
X115381809Y-70866238D01*
X115381809Y-70866238D02*
X115381809Y-70532905D01*
X114905619Y-71532905D02*
X115715142Y-71532905D01*
X115715142Y-71532905D02*
X115810380Y-71580524D01*
X115810380Y-71580524D02*
X115858000Y-71628143D01*
X115858000Y-71628143D02*
X115905619Y-71723381D01*
X115905619Y-71723381D02*
X115905619Y-71913857D01*
X115905619Y-71913857D02*
X115858000Y-72009095D01*
X115858000Y-72009095D02*
X115810380Y-72056714D01*
X115810380Y-72056714D02*
X115715142Y-72104333D01*
X115715142Y-72104333D02*
X114905619Y-72104333D01*
X115858000Y-72532905D02*
X115905619Y-72675762D01*
X115905619Y-72675762D02*
X115905619Y-72913857D01*
X115905619Y-72913857D02*
X115858000Y-73009095D01*
X115858000Y-73009095D02*
X115810380Y-73056714D01*
X115810380Y-73056714D02*
X115715142Y-73104333D01*
X115715142Y-73104333D02*
X115619904Y-73104333D01*
X115619904Y-73104333D02*
X115524666Y-73056714D01*
X115524666Y-73056714D02*
X115477047Y-73009095D01*
X115477047Y-73009095D02*
X115429428Y-72913857D01*
X115429428Y-72913857D02*
X115381809Y-72723381D01*
X115381809Y-72723381D02*
X115334190Y-72628143D01*
X115334190Y-72628143D02*
X115286571Y-72580524D01*
X115286571Y-72580524D02*
X115191333Y-72532905D01*
X115191333Y-72532905D02*
X115096095Y-72532905D01*
X115096095Y-72532905D02*
X115000857Y-72580524D01*
X115000857Y-72580524D02*
X114953238Y-72628143D01*
X114953238Y-72628143D02*
X114905619Y-72723381D01*
X114905619Y-72723381D02*
X114905619Y-72961476D01*
X114905619Y-72961476D02*
X114953238Y-73104333D01*
X115905619Y-74104333D02*
X115429428Y-73771000D01*
X115905619Y-73532905D02*
X114905619Y-73532905D01*
X114905619Y-73532905D02*
X114905619Y-73913857D01*
X114905619Y-73913857D02*
X114953238Y-74009095D01*
X114953238Y-74009095D02*
X115000857Y-74056714D01*
X115000857Y-74056714D02*
X115096095Y-74104333D01*
X115096095Y-74104333D02*
X115238952Y-74104333D01*
X115238952Y-74104333D02*
X115334190Y-74056714D01*
X115334190Y-74056714D02*
X115381809Y-74009095D01*
X115381809Y-74009095D02*
X115429428Y-73913857D01*
X115429428Y-73913857D02*
X115429428Y-73532905D01*
X116000857Y-75199571D02*
X115953238Y-75104333D01*
X115953238Y-75104333D02*
X115858000Y-75009095D01*
X115858000Y-75009095D02*
X115715142Y-74866238D01*
X115715142Y-74866238D02*
X115667523Y-74771000D01*
X115667523Y-74771000D02*
X115667523Y-74675762D01*
X115905619Y-74723381D02*
X115858000Y-74628143D01*
X115858000Y-74628143D02*
X115762761Y-74532905D01*
X115762761Y-74532905D02*
X115572285Y-74485286D01*
X115572285Y-74485286D02*
X115238952Y-74485286D01*
X115238952Y-74485286D02*
X115048476Y-74532905D01*
X115048476Y-74532905D02*
X114953238Y-74628143D01*
X114953238Y-74628143D02*
X114905619Y-74723381D01*
X114905619Y-74723381D02*
X114905619Y-74913857D01*
X114905619Y-74913857D02*
X114953238Y-75009095D01*
X114953238Y-75009095D02*
X115048476Y-75104333D01*
X115048476Y-75104333D02*
X115238952Y-75151952D01*
X115238952Y-75151952D02*
X115572285Y-75151952D01*
X115572285Y-75151952D02*
X115762761Y-75104333D01*
X115762761Y-75104333D02*
X115858000Y-75009095D01*
X115858000Y-75009095D02*
X115905619Y-74913857D01*
X115905619Y-74913857D02*
X115905619Y-74723381D01*
X105205904Y-73723380D02*
X105205904Y-74199570D01*
X105491619Y-73628142D02*
X104491619Y-73961475D01*
X104491619Y-73961475D02*
X105491619Y-74294808D01*
X104491619Y-75104332D02*
X104491619Y-74628142D01*
X104491619Y-74628142D02*
X104967809Y-74580523D01*
X104967809Y-74580523D02*
X104920190Y-74628142D01*
X104920190Y-74628142D02*
X104872571Y-74723380D01*
X104872571Y-74723380D02*
X104872571Y-74961475D01*
X104872571Y-74961475D02*
X104920190Y-75056713D01*
X104920190Y-75056713D02*
X104967809Y-75104332D01*
X104967809Y-75104332D02*
X105063047Y-75151951D01*
X105063047Y-75151951D02*
X105301142Y-75151951D01*
X105301142Y-75151951D02*
X105396380Y-75104332D01*
X105396380Y-75104332D02*
X105444000Y-75056713D01*
X105444000Y-75056713D02*
X105491619Y-74961475D01*
X105491619Y-74961475D02*
X105491619Y-74723380D01*
X105491619Y-74723380D02*
X105444000Y-74628142D01*
X105444000Y-74628142D02*
X105396380Y-74580523D01*
X102665904Y-73723380D02*
X102665904Y-74199570D01*
X102951619Y-73628142D02*
X101951619Y-73961475D01*
X101951619Y-73961475D02*
X102951619Y-74294808D01*
X102284952Y-75056713D02*
X102951619Y-75056713D01*
X101904000Y-74818618D02*
X102618285Y-74580523D01*
X102618285Y-74580523D02*
X102618285Y-75199570D01*
X158799904Y-72771000D02*
X158799904Y-73247190D01*
X159085619Y-72675762D02*
X158085619Y-73009095D01*
X158085619Y-73009095D02*
X159085619Y-73342428D01*
X159085619Y-74199571D02*
X159085619Y-73628143D01*
X159085619Y-73913857D02*
X158085619Y-73913857D01*
X158085619Y-73913857D02*
X158228476Y-73818619D01*
X158228476Y-73818619D02*
X158323714Y-73723381D01*
X158323714Y-73723381D02*
X158371333Y-73628143D01*
X158180857Y-74580524D02*
X158133238Y-74628143D01*
X158133238Y-74628143D02*
X158085619Y-74723381D01*
X158085619Y-74723381D02*
X158085619Y-74961476D01*
X158085619Y-74961476D02*
X158133238Y-75056714D01*
X158133238Y-75056714D02*
X158180857Y-75104333D01*
X158180857Y-75104333D02*
X158276095Y-75151952D01*
X158276095Y-75151952D02*
X158371333Y-75151952D01*
X158371333Y-75151952D02*
X158514190Y-75104333D01*
X158514190Y-75104333D02*
X159085619Y-74532905D01*
X159085619Y-74532905D02*
X159085619Y-75151952D01*
X152545238Y-49419095D02*
X152497619Y-49323857D01*
X152497619Y-49323857D02*
X152497619Y-49181000D01*
X152497619Y-49181000D02*
X152545238Y-49038143D01*
X152545238Y-49038143D02*
X152640476Y-48942905D01*
X152640476Y-48942905D02*
X152735714Y-48895286D01*
X152735714Y-48895286D02*
X152926190Y-48847667D01*
X152926190Y-48847667D02*
X153069047Y-48847667D01*
X153069047Y-48847667D02*
X153259523Y-48895286D01*
X153259523Y-48895286D02*
X153354761Y-48942905D01*
X153354761Y-48942905D02*
X153450000Y-49038143D01*
X153450000Y-49038143D02*
X153497619Y-49181000D01*
X153497619Y-49181000D02*
X153497619Y-49276238D01*
X153497619Y-49276238D02*
X153450000Y-49419095D01*
X153450000Y-49419095D02*
X153402380Y-49466714D01*
X153402380Y-49466714D02*
X153069047Y-49466714D01*
X153069047Y-49466714D02*
X153069047Y-49276238D01*
X153497619Y-49895286D02*
X152497619Y-49895286D01*
X152497619Y-49895286D02*
X153497619Y-50466714D01*
X153497619Y-50466714D02*
X152497619Y-50466714D01*
X153497619Y-50942905D02*
X152497619Y-50942905D01*
X152497619Y-50942905D02*
X152497619Y-51181000D01*
X152497619Y-51181000D02*
X152545238Y-51323857D01*
X152545238Y-51323857D02*
X152640476Y-51419095D01*
X152640476Y-51419095D02*
X152735714Y-51466714D01*
X152735714Y-51466714D02*
X152926190Y-51514333D01*
X152926190Y-51514333D02*
X153069047Y-51514333D01*
X153069047Y-51514333D02*
X153259523Y-51466714D01*
X153259523Y-51466714D02*
X153354761Y-51419095D01*
X153354761Y-51419095D02*
X153450000Y-51323857D01*
X153450000Y-51323857D02*
X153497619Y-51181000D01*
X153497619Y-51181000D02*
X153497619Y-50942905D01*
X115619904Y-48847666D02*
X115619904Y-49323856D01*
X115905619Y-48752428D02*
X114905619Y-49085761D01*
X114905619Y-49085761D02*
X115905619Y-49419094D01*
X114905619Y-50180999D02*
X114905619Y-49990523D01*
X114905619Y-49990523D02*
X114953238Y-49895285D01*
X114953238Y-49895285D02*
X115000857Y-49847666D01*
X115000857Y-49847666D02*
X115143714Y-49752428D01*
X115143714Y-49752428D02*
X115334190Y-49704809D01*
X115334190Y-49704809D02*
X115715142Y-49704809D01*
X115715142Y-49704809D02*
X115810380Y-49752428D01*
X115810380Y-49752428D02*
X115858000Y-49800047D01*
X115858000Y-49800047D02*
X115905619Y-49895285D01*
X115905619Y-49895285D02*
X115905619Y-50085761D01*
X115905619Y-50085761D02*
X115858000Y-50180999D01*
X115858000Y-50180999D02*
X115810380Y-50228618D01*
X115810380Y-50228618D02*
X115715142Y-50276237D01*
X115715142Y-50276237D02*
X115477047Y-50276237D01*
X115477047Y-50276237D02*
X115381809Y-50228618D01*
X115381809Y-50228618D02*
X115334190Y-50180999D01*
X115334190Y-50180999D02*
X115286571Y-50085761D01*
X115286571Y-50085761D02*
X115286571Y-49895285D01*
X115286571Y-49895285D02*
X115334190Y-49800047D01*
X115334190Y-49800047D02*
X115381809Y-49752428D01*
X115381809Y-49752428D02*
X115477047Y-49704809D01*
X92759904Y-72771000D02*
X92759904Y-73247190D01*
X93045619Y-72675762D02*
X92045619Y-73009095D01*
X92045619Y-73009095D02*
X93045619Y-73342428D01*
X93045619Y-74199571D02*
X93045619Y-73628143D01*
X93045619Y-73913857D02*
X92045619Y-73913857D01*
X92045619Y-73913857D02*
X92188476Y-73818619D01*
X92188476Y-73818619D02*
X92283714Y-73723381D01*
X92283714Y-73723381D02*
X92331333Y-73628143D01*
X93045619Y-75151952D02*
X93045619Y-74580524D01*
X93045619Y-74866238D02*
X92045619Y-74866238D01*
X92045619Y-74866238D02*
X92188476Y-74771000D01*
X92188476Y-74771000D02*
X92283714Y-74675762D01*
X92283714Y-74675762D02*
X92331333Y-74580524D01*
X147973238Y-73056714D02*
X147925619Y-72961476D01*
X147925619Y-72961476D02*
X147925619Y-72818619D01*
X147925619Y-72818619D02*
X147973238Y-72675762D01*
X147973238Y-72675762D02*
X148068476Y-72580524D01*
X148068476Y-72580524D02*
X148163714Y-72532905D01*
X148163714Y-72532905D02*
X148354190Y-72485286D01*
X148354190Y-72485286D02*
X148497047Y-72485286D01*
X148497047Y-72485286D02*
X148687523Y-72532905D01*
X148687523Y-72532905D02*
X148782761Y-72580524D01*
X148782761Y-72580524D02*
X148878000Y-72675762D01*
X148878000Y-72675762D02*
X148925619Y-72818619D01*
X148925619Y-72818619D02*
X148925619Y-72913857D01*
X148925619Y-72913857D02*
X148878000Y-73056714D01*
X148878000Y-73056714D02*
X148830380Y-73104333D01*
X148830380Y-73104333D02*
X148497047Y-73104333D01*
X148497047Y-73104333D02*
X148497047Y-72913857D01*
X148925619Y-73532905D02*
X147925619Y-73532905D01*
X147925619Y-73532905D02*
X148925619Y-74104333D01*
X148925619Y-74104333D02*
X147925619Y-74104333D01*
X148925619Y-74580524D02*
X147925619Y-74580524D01*
X147925619Y-74580524D02*
X147925619Y-74818619D01*
X147925619Y-74818619D02*
X147973238Y-74961476D01*
X147973238Y-74961476D02*
X148068476Y-75056714D01*
X148068476Y-75056714D02*
X148163714Y-75104333D01*
X148163714Y-75104333D02*
X148354190Y-75151952D01*
X148354190Y-75151952D02*
X148497047Y-75151952D01*
X148497047Y-75151952D02*
X148687523Y-75104333D01*
X148687523Y-75104333D02*
X148782761Y-75056714D01*
X148782761Y-75056714D02*
X148878000Y-74961476D01*
X148878000Y-74961476D02*
X148925619Y-74818619D01*
X148925619Y-74818619D02*
X148925619Y-74580524D01*
X141019904Y-73723380D02*
X141019904Y-74199570D01*
X141305619Y-73628142D02*
X140305619Y-73961475D01*
X140305619Y-73961475D02*
X141305619Y-74294808D01*
X140305619Y-74818618D02*
X140305619Y-74913856D01*
X140305619Y-74913856D02*
X140353238Y-75009094D01*
X140353238Y-75009094D02*
X140400857Y-75056713D01*
X140400857Y-75056713D02*
X140496095Y-75104332D01*
X140496095Y-75104332D02*
X140686571Y-75151951D01*
X140686571Y-75151951D02*
X140924666Y-75151951D01*
X140924666Y-75151951D02*
X141115142Y-75104332D01*
X141115142Y-75104332D02*
X141210380Y-75056713D01*
X141210380Y-75056713D02*
X141258000Y-75009094D01*
X141258000Y-75009094D02*
X141305619Y-74913856D01*
X141305619Y-74913856D02*
X141305619Y-74818618D01*
X141305619Y-74818618D02*
X141258000Y-74723380D01*
X141258000Y-74723380D02*
X141210380Y-74675761D01*
X141210380Y-74675761D02*
X141115142Y-74628142D01*
X141115142Y-74628142D02*
X140924666Y-74580523D01*
X140924666Y-74580523D02*
X140686571Y-74580523D01*
X140686571Y-74580523D02*
X140496095Y-74628142D01*
X140496095Y-74628142D02*
X140400857Y-74675761D01*
X140400857Y-74675761D02*
X140353238Y-74723380D01*
X140353238Y-74723380D02*
X140305619Y-74818618D01*
X100633904Y-48847667D02*
X100633904Y-49323857D01*
X100919619Y-48752429D02*
X99919619Y-49085762D01*
X99919619Y-49085762D02*
X100919619Y-49419095D01*
X100919619Y-50276238D02*
X100919619Y-49704810D01*
X100919619Y-49990524D02*
X99919619Y-49990524D01*
X99919619Y-49990524D02*
X100062476Y-49895286D01*
X100062476Y-49895286D02*
X100157714Y-49800048D01*
X100157714Y-49800048D02*
X100205333Y-49704810D01*
X100919619Y-51228619D02*
X100919619Y-50657191D01*
X100919619Y-50942905D02*
X99919619Y-50942905D01*
X99919619Y-50942905D02*
X100062476Y-50847667D01*
X100062476Y-50847667D02*
X100157714Y-50752429D01*
X100157714Y-50752429D02*
X100205333Y-50657191D01*
X143750380Y-73342427D02*
X143798000Y-73294808D01*
X143798000Y-73294808D02*
X143845619Y-73151951D01*
X143845619Y-73151951D02*
X143845619Y-73056713D01*
X143845619Y-73056713D02*
X143798000Y-72913856D01*
X143798000Y-72913856D02*
X143702761Y-72818618D01*
X143702761Y-72818618D02*
X143607523Y-72770999D01*
X143607523Y-72770999D02*
X143417047Y-72723380D01*
X143417047Y-72723380D02*
X143274190Y-72723380D01*
X143274190Y-72723380D02*
X143083714Y-72770999D01*
X143083714Y-72770999D02*
X142988476Y-72818618D01*
X142988476Y-72818618D02*
X142893238Y-72913856D01*
X142893238Y-72913856D02*
X142845619Y-73056713D01*
X142845619Y-73056713D02*
X142845619Y-73151951D01*
X142845619Y-73151951D02*
X142893238Y-73294808D01*
X142893238Y-73294808D02*
X142940857Y-73342427D01*
X143845619Y-74247189D02*
X143845619Y-73770999D01*
X143845619Y-73770999D02*
X142845619Y-73770999D01*
X143845619Y-74580523D02*
X142845619Y-74580523D01*
X143845619Y-75151951D02*
X143274190Y-74723380D01*
X142845619Y-75151951D02*
X143417047Y-74580523D01*
X148131904Y-48847666D02*
X148131904Y-49323856D01*
X148417619Y-48752428D02*
X147417619Y-49085761D01*
X147417619Y-49085761D02*
X148417619Y-49419094D01*
X147417619Y-49942904D02*
X147417619Y-50038142D01*
X147417619Y-50038142D02*
X147465238Y-50133380D01*
X147465238Y-50133380D02*
X147512857Y-50180999D01*
X147512857Y-50180999D02*
X147608095Y-50228618D01*
X147608095Y-50228618D02*
X147798571Y-50276237D01*
X147798571Y-50276237D02*
X148036666Y-50276237D01*
X148036666Y-50276237D02*
X148227142Y-50228618D01*
X148227142Y-50228618D02*
X148322380Y-50180999D01*
X148322380Y-50180999D02*
X148370000Y-50133380D01*
X148370000Y-50133380D02*
X148417619Y-50038142D01*
X148417619Y-50038142D02*
X148417619Y-49942904D01*
X148417619Y-49942904D02*
X148370000Y-49847666D01*
X148370000Y-49847666D02*
X148322380Y-49800047D01*
X148322380Y-49800047D02*
X148227142Y-49752428D01*
X148227142Y-49752428D02*
X148036666Y-49704809D01*
X148036666Y-49704809D02*
X147798571Y-49704809D01*
X147798571Y-49704809D02*
X147608095Y-49752428D01*
X147608095Y-49752428D02*
X147512857Y-49800047D01*
X147512857Y-49800047D02*
X147465238Y-49847666D01*
X147465238Y-49847666D02*
X147417619Y-49942904D01*
X108539619Y-49466714D02*
X108063428Y-49133381D01*
X108539619Y-48895286D02*
X107539619Y-48895286D01*
X107539619Y-48895286D02*
X107539619Y-49276238D01*
X107539619Y-49276238D02*
X107587238Y-49371476D01*
X107587238Y-49371476D02*
X107634857Y-49419095D01*
X107634857Y-49419095D02*
X107730095Y-49466714D01*
X107730095Y-49466714D02*
X107872952Y-49466714D01*
X107872952Y-49466714D02*
X107968190Y-49419095D01*
X107968190Y-49419095D02*
X108015809Y-49371476D01*
X108015809Y-49371476D02*
X108063428Y-49276238D01*
X108063428Y-49276238D02*
X108063428Y-48895286D01*
X107539619Y-50085762D02*
X107539619Y-50276238D01*
X107539619Y-50276238D02*
X107587238Y-50371476D01*
X107587238Y-50371476D02*
X107682476Y-50466714D01*
X107682476Y-50466714D02*
X107872952Y-50514333D01*
X107872952Y-50514333D02*
X108206285Y-50514333D01*
X108206285Y-50514333D02*
X108396761Y-50466714D01*
X108396761Y-50466714D02*
X108492000Y-50371476D01*
X108492000Y-50371476D02*
X108539619Y-50276238D01*
X108539619Y-50276238D02*
X108539619Y-50085762D01*
X108539619Y-50085762D02*
X108492000Y-49990524D01*
X108492000Y-49990524D02*
X108396761Y-49895286D01*
X108396761Y-49895286D02*
X108206285Y-49847667D01*
X108206285Y-49847667D02*
X107872952Y-49847667D01*
X107872952Y-49847667D02*
X107682476Y-49895286D01*
X107682476Y-49895286D02*
X107587238Y-49990524D01*
X107587238Y-49990524D02*
X107539619Y-50085762D01*
X108539619Y-50942905D02*
X107539619Y-50942905D01*
X107539619Y-50942905D02*
X108253904Y-51276238D01*
X108253904Y-51276238D02*
X107539619Y-51609571D01*
X107539619Y-51609571D02*
X108539619Y-51609571D01*
X108444380Y-52657190D02*
X108492000Y-52609571D01*
X108492000Y-52609571D02*
X108539619Y-52466714D01*
X108539619Y-52466714D02*
X108539619Y-52371476D01*
X108539619Y-52371476D02*
X108492000Y-52228619D01*
X108492000Y-52228619D02*
X108396761Y-52133381D01*
X108396761Y-52133381D02*
X108301523Y-52085762D01*
X108301523Y-52085762D02*
X108111047Y-52038143D01*
X108111047Y-52038143D02*
X107968190Y-52038143D01*
X107968190Y-52038143D02*
X107777714Y-52085762D01*
X107777714Y-52085762D02*
X107682476Y-52133381D01*
X107682476Y-52133381D02*
X107587238Y-52228619D01*
X107587238Y-52228619D02*
X107539619Y-52371476D01*
X107539619Y-52371476D02*
X107539619Y-52466714D01*
X107539619Y-52466714D02*
X107587238Y-52609571D01*
X107587238Y-52609571D02*
X107634857Y-52657190D01*
X108492000Y-53038143D02*
X108539619Y-53181000D01*
X108539619Y-53181000D02*
X108539619Y-53419095D01*
X108539619Y-53419095D02*
X108492000Y-53514333D01*
X108492000Y-53514333D02*
X108444380Y-53561952D01*
X108444380Y-53561952D02*
X108349142Y-53609571D01*
X108349142Y-53609571D02*
X108253904Y-53609571D01*
X108253904Y-53609571D02*
X108158666Y-53561952D01*
X108158666Y-53561952D02*
X108111047Y-53514333D01*
X108111047Y-53514333D02*
X108063428Y-53419095D01*
X108063428Y-53419095D02*
X108015809Y-53228619D01*
X108015809Y-53228619D02*
X107968190Y-53133381D01*
X107968190Y-53133381D02*
X107920571Y-53085762D01*
X107920571Y-53085762D02*
X107825333Y-53038143D01*
X107825333Y-53038143D02*
X107730095Y-53038143D01*
X107730095Y-53038143D02*
X107634857Y-53085762D01*
X107634857Y-53085762D02*
X107587238Y-53133381D01*
X107587238Y-53133381D02*
X107539619Y-53228619D01*
X107539619Y-53228619D02*
X107539619Y-53466714D01*
X107539619Y-53466714D02*
X107587238Y-53609571D01*
M02*
