%TF.GenerationSoftware,KiCad,Pcbnew,7.0.1*%
%TF.CreationDate,2024-02-04T01:39:41+03:00*%
%TF.ProjectId,DeltaS48k-convertor,44656c74-6153-4343-986b-2d636f6e7665,rev?*%
%TF.SameCoordinates,Original*%
%TF.FileFunction,Profile,NP*%
%FSLAX46Y46*%
G04 Gerber Fmt 4.6, Leading zero omitted, Abs format (unit mm)*
G04 Created by KiCad (PCBNEW 7.0.1) date 2024-02-04 01:39:41*
%MOMM*%
%LPD*%
G01*
G04 APERTURE LIST*
%TA.AperFunction,Profile*%
%ADD10C,0.100000*%
%TD*%
G04 APERTURE END LIST*
D10*
X175447980Y-36002020D02*
G75*
G03*
X174448020Y-35002020I-999980J20D01*
G01*
X79420020Y-35002020D02*
G75*
G03*
X78420020Y-36002020I-20J-999980D01*
G01*
X78419990Y-68761510D02*
G75*
G03*
X79420020Y-69761510I1000010J10D01*
G01*
X174448020Y-69761520D02*
G75*
G03*
X175448020Y-68761510I-20J1000020D01*
G01*
X89862990Y-70761510D02*
G75*
G03*
X88863000Y-69761510I-999990J10D01*
G01*
X162851000Y-83693000D02*
G75*
G03*
X163851000Y-82693000I0J1000000D01*
G01*
X164851000Y-69761500D02*
G75*
G03*
X163851000Y-70761510I0J-1000000D01*
G01*
X148479000Y-83693000D02*
G75*
G03*
X149479000Y-82693000I0J1000000D01*
G01*
X89863000Y-82693000D02*
G75*
G03*
X90863000Y-83693000I1000000J0D01*
G01*
X150479000Y-74295000D02*
G75*
G03*
X149479000Y-75295000I0J-1000000D01*
G01*
X152527000Y-82693000D02*
G75*
G03*
X153527000Y-83693000I1000000J0D01*
G01*
X152527000Y-75295000D02*
G75*
G03*
X151527000Y-74295000I-1000000J0D01*
G01*
X89863000Y-82693000D02*
X89863000Y-70761510D01*
X163851000Y-82693000D02*
X163851000Y-70761510D01*
X174448020Y-35002020D02*
X79420020Y-35002020D01*
X78420020Y-36002020D02*
X78420020Y-68761510D01*
X153527000Y-83693000D02*
X162851000Y-83693000D01*
X79420020Y-69761510D02*
X88863000Y-69761510D01*
X149479000Y-82693000D02*
X149479000Y-75295000D01*
X152527000Y-75295000D02*
X152527000Y-82693000D01*
X164851000Y-69761510D02*
X174448020Y-69761510D01*
X175448020Y-68761510D02*
X175448020Y-36002020D01*
X90863000Y-83693000D02*
X148479000Y-83693000D01*
X150479000Y-74295000D02*
X151527000Y-74295000D01*
M02*
