%TF.GenerationSoftware,KiCad,Pcbnew,7.0.1*%
%TF.CreationDate,2023-06-05T11:34:12+03:00*%
%TF.ProjectId,DeltaS48k-convertor,44656c74-6153-4343-986b-2d636f6e7665,rev?*%
%TF.SameCoordinates,Original*%
%TF.FileFunction,Soldermask,Bot*%
%TF.FilePolarity,Negative*%
%FSLAX46Y46*%
G04 Gerber Fmt 4.6, Leading zero omitted, Abs format (unit mm)*
G04 Created by KiCad (PCBNEW 7.0.1) date 2023-06-05 11:34:12*
%MOMM*%
%LPD*%
G01*
G04 APERTURE LIST*
%ADD10C,0.120000*%
%ADD11O,1.600000X3.000000*%
G04 APERTURE END LIST*
D10*
%TO.C,J1*%
X87432010Y-36602010D02*
X88732010Y-36602010D01*
X88732010Y-36602010D02*
X88732010Y-46602010D01*
X88732010Y-46602010D02*
X87432010Y-46602010D01*
X87432010Y-46602010D02*
X87432010Y-36602010D01*
G36*
X87432010Y-36602010D02*
G01*
X88732010Y-36602010D01*
X88732010Y-46602010D01*
X87432010Y-46602010D01*
X87432010Y-36602010D01*
G37*
X89932010Y-36602010D02*
X91232010Y-36602010D01*
X91232010Y-36602010D02*
X91232010Y-46602010D01*
X91232010Y-46602010D02*
X89932010Y-46602010D01*
X89932010Y-46602010D02*
X89932010Y-36602010D01*
G36*
X89932010Y-36602010D02*
G01*
X91232010Y-36602010D01*
X91232010Y-46602010D01*
X89932010Y-46602010D01*
X89932010Y-36602010D01*
G37*
X92432010Y-36602010D02*
X93732010Y-36602010D01*
X93732010Y-36602010D02*
X93732010Y-46602010D01*
X93732010Y-46602010D02*
X92432010Y-46602010D01*
X92432010Y-46602010D02*
X92432010Y-36602010D01*
G36*
X92432010Y-36602010D02*
G01*
X93732010Y-36602010D01*
X93732010Y-46602010D01*
X92432010Y-46602010D01*
X92432010Y-36602010D01*
G37*
X94932010Y-36602010D02*
X96232010Y-36602010D01*
X96232010Y-36602010D02*
X96232010Y-46602010D01*
X96232010Y-46602010D02*
X94932010Y-46602010D01*
X94932010Y-46602010D02*
X94932010Y-36602010D01*
G36*
X94932010Y-36602010D02*
G01*
X96232010Y-36602010D01*
X96232010Y-46602010D01*
X94932010Y-46602010D01*
X94932010Y-36602010D01*
G37*
X97432010Y-36602010D02*
X98732010Y-36602010D01*
X98732010Y-36602010D02*
X98732010Y-46602010D01*
X98732010Y-46602010D02*
X97432010Y-46602010D01*
X97432010Y-46602010D02*
X97432010Y-36602010D01*
G36*
X97432010Y-36602010D02*
G01*
X98732010Y-36602010D01*
X98732010Y-46602010D01*
X97432010Y-46602010D01*
X97432010Y-36602010D01*
G37*
X99932010Y-36602010D02*
X101232010Y-36602010D01*
X101232010Y-36602010D02*
X101232010Y-46602010D01*
X101232010Y-46602010D02*
X99932010Y-46602010D01*
X99932010Y-46602010D02*
X99932010Y-36602010D01*
G36*
X99932010Y-36602010D02*
G01*
X101232010Y-36602010D01*
X101232010Y-46602010D01*
X99932010Y-46602010D01*
X99932010Y-36602010D01*
G37*
X102432010Y-36602010D02*
X103732010Y-36602010D01*
X103732010Y-36602010D02*
X103732010Y-46602010D01*
X103732010Y-46602010D02*
X102432010Y-46602010D01*
X102432010Y-46602010D02*
X102432010Y-36602010D01*
G36*
X102432010Y-36602010D02*
G01*
X103732010Y-36602010D01*
X103732010Y-46602010D01*
X102432010Y-46602010D01*
X102432010Y-36602010D01*
G37*
X104932010Y-36602010D02*
X106232010Y-36602010D01*
X106232010Y-36602010D02*
X106232010Y-46602010D01*
X106232010Y-46602010D02*
X104932010Y-46602010D01*
X104932010Y-46602010D02*
X104932010Y-36602010D01*
G36*
X104932010Y-36602010D02*
G01*
X106232010Y-36602010D01*
X106232010Y-46602010D01*
X104932010Y-46602010D01*
X104932010Y-36602010D01*
G37*
X107432010Y-36602010D02*
X108732010Y-36602010D01*
X108732010Y-36602010D02*
X108732010Y-46602010D01*
X108732010Y-46602010D02*
X107432010Y-46602010D01*
X107432010Y-46602010D02*
X107432010Y-36602010D01*
G36*
X107432010Y-36602010D02*
G01*
X108732010Y-36602010D01*
X108732010Y-46602010D01*
X107432010Y-46602010D01*
X107432010Y-36602010D01*
G37*
X109932010Y-36602010D02*
X111232010Y-36602010D01*
X111232010Y-36602010D02*
X111232010Y-46602010D01*
X111232010Y-46602010D02*
X109932010Y-46602010D01*
X109932010Y-46602010D02*
X109932010Y-36602010D01*
G36*
X109932010Y-36602010D02*
G01*
X111232010Y-36602010D01*
X111232010Y-46602010D01*
X109932010Y-46602010D01*
X109932010Y-36602010D01*
G37*
X112432010Y-36602010D02*
X113732010Y-36602010D01*
X113732010Y-36602010D02*
X113732010Y-46602010D01*
X113732010Y-46602010D02*
X112432010Y-46602010D01*
X112432010Y-46602010D02*
X112432010Y-36602010D01*
G36*
X112432010Y-36602010D02*
G01*
X113732010Y-36602010D01*
X113732010Y-46602010D01*
X112432010Y-46602010D01*
X112432010Y-36602010D01*
G37*
X114932010Y-36602010D02*
X116232010Y-36602010D01*
X116232010Y-36602010D02*
X116232010Y-46602010D01*
X116232010Y-46602010D02*
X114932010Y-46602010D01*
X114932010Y-46602010D02*
X114932010Y-36602010D01*
G36*
X114932010Y-36602010D02*
G01*
X116232010Y-36602010D01*
X116232010Y-46602010D01*
X114932010Y-46602010D01*
X114932010Y-36602010D01*
G37*
X117432010Y-36602010D02*
X118732010Y-36602010D01*
X118732010Y-36602010D02*
X118732010Y-46602010D01*
X118732010Y-46602010D02*
X117432010Y-46602010D01*
X117432010Y-46602010D02*
X117432010Y-36602010D01*
G36*
X117432010Y-36602010D02*
G01*
X118732010Y-36602010D01*
X118732010Y-46602010D01*
X117432010Y-46602010D01*
X117432010Y-36602010D01*
G37*
X119932010Y-36602010D02*
X121232010Y-36602010D01*
X121232010Y-36602010D02*
X121232010Y-46602010D01*
X121232010Y-46602010D02*
X119932010Y-46602010D01*
X119932010Y-46602010D02*
X119932010Y-36602010D01*
G36*
X119932010Y-36602010D02*
G01*
X121232010Y-36602010D01*
X121232010Y-46602010D01*
X119932010Y-46602010D01*
X119932010Y-36602010D01*
G37*
X122432010Y-36602010D02*
X123732010Y-36602010D01*
X123732010Y-36602010D02*
X123732010Y-46602010D01*
X123732010Y-46602010D02*
X122432010Y-46602010D01*
X122432010Y-46602010D02*
X122432010Y-36602010D01*
G36*
X122432010Y-36602010D02*
G01*
X123732010Y-36602010D01*
X123732010Y-46602010D01*
X122432010Y-46602010D01*
X122432010Y-36602010D01*
G37*
X124932010Y-36602010D02*
X126232010Y-36602010D01*
X126232010Y-36602010D02*
X126232010Y-46602010D01*
X126232010Y-46602010D02*
X124932010Y-46602010D01*
X124932010Y-46602010D02*
X124932010Y-36602010D01*
G36*
X124932010Y-36602010D02*
G01*
X126232010Y-36602010D01*
X126232010Y-46602010D01*
X124932010Y-46602010D01*
X124932010Y-36602010D01*
G37*
X127432010Y-36602010D02*
X128732010Y-36602010D01*
X128732010Y-36602010D02*
X128732010Y-46602010D01*
X128732010Y-46602010D02*
X127432010Y-46602010D01*
X127432010Y-46602010D02*
X127432010Y-36602010D01*
G36*
X127432010Y-36602010D02*
G01*
X128732010Y-36602010D01*
X128732010Y-46602010D01*
X127432010Y-46602010D01*
X127432010Y-36602010D01*
G37*
X129932010Y-36602010D02*
X131232010Y-36602010D01*
X131232010Y-36602010D02*
X131232010Y-46602010D01*
X131232010Y-46602010D02*
X129932010Y-46602010D01*
X129932010Y-46602010D02*
X129932010Y-36602010D01*
G36*
X129932010Y-36602010D02*
G01*
X131232010Y-36602010D01*
X131232010Y-46602010D01*
X129932010Y-46602010D01*
X129932010Y-36602010D01*
G37*
X132432010Y-36602010D02*
X133732010Y-36602010D01*
X133732010Y-36602010D02*
X133732010Y-46602010D01*
X133732010Y-46602010D02*
X132432010Y-46602010D01*
X132432010Y-46602010D02*
X132432010Y-36602010D01*
G36*
X132432010Y-36602010D02*
G01*
X133732010Y-36602010D01*
X133732010Y-46602010D01*
X132432010Y-46602010D01*
X132432010Y-36602010D01*
G37*
X134932010Y-36602010D02*
X136232010Y-36602010D01*
X136232010Y-36602010D02*
X136232010Y-46602010D01*
X136232010Y-46602010D02*
X134932010Y-46602010D01*
X134932010Y-46602010D02*
X134932010Y-36602010D01*
G36*
X134932010Y-36602010D02*
G01*
X136232010Y-36602010D01*
X136232010Y-46602010D01*
X134932010Y-46602010D01*
X134932010Y-36602010D01*
G37*
X137432010Y-36602010D02*
X138732010Y-36602010D01*
X138732010Y-36602010D02*
X138732010Y-46602010D01*
X138732010Y-46602010D02*
X137432010Y-46602010D01*
X137432010Y-46602010D02*
X137432010Y-36602010D01*
G36*
X137432010Y-36602010D02*
G01*
X138732010Y-36602010D01*
X138732010Y-46602010D01*
X137432010Y-46602010D01*
X137432010Y-36602010D01*
G37*
X139932010Y-36602010D02*
X141232010Y-36602010D01*
X141232010Y-36602010D02*
X141232010Y-46602010D01*
X141232010Y-46602010D02*
X139932010Y-46602010D01*
X139932010Y-46602010D02*
X139932010Y-36602010D01*
G36*
X139932010Y-36602010D02*
G01*
X141232010Y-36602010D01*
X141232010Y-46602010D01*
X139932010Y-46602010D01*
X139932010Y-36602010D01*
G37*
X142432010Y-36602010D02*
X143732010Y-36602010D01*
X143732010Y-36602010D02*
X143732010Y-46602010D01*
X143732010Y-46602010D02*
X142432010Y-46602010D01*
X142432010Y-46602010D02*
X142432010Y-36602010D01*
G36*
X142432010Y-36602010D02*
G01*
X143732010Y-36602010D01*
X143732010Y-46602010D01*
X142432010Y-46602010D01*
X142432010Y-36602010D01*
G37*
X144932010Y-36602010D02*
X146232010Y-36602010D01*
X146232010Y-36602010D02*
X146232010Y-46602010D01*
X146232010Y-46602010D02*
X144932010Y-46602010D01*
X144932010Y-46602010D02*
X144932010Y-36602010D01*
G36*
X144932010Y-36602010D02*
G01*
X146232010Y-36602010D01*
X146232010Y-46602010D01*
X144932010Y-46602010D01*
X144932010Y-36602010D01*
G37*
X147432010Y-36602010D02*
X148732010Y-36602010D01*
X148732010Y-36602010D02*
X148732010Y-46602010D01*
X148732010Y-46602010D02*
X147432010Y-46602010D01*
X147432010Y-46602010D02*
X147432010Y-36602010D01*
G36*
X147432010Y-36602010D02*
G01*
X148732010Y-36602010D01*
X148732010Y-46602010D01*
X147432010Y-46602010D01*
X147432010Y-36602010D01*
G37*
X149932010Y-36602010D02*
X151232010Y-36602010D01*
X151232010Y-36602010D02*
X151232010Y-46602010D01*
X151232010Y-46602010D02*
X149932010Y-46602010D01*
X149932010Y-46602010D02*
X149932010Y-36602010D01*
G36*
X149932010Y-36602010D02*
G01*
X151232010Y-36602010D01*
X151232010Y-46602010D01*
X149932010Y-46602010D01*
X149932010Y-36602010D01*
G37*
X152432010Y-36602010D02*
X153732010Y-36602010D01*
X153732010Y-36602010D02*
X153732010Y-46602010D01*
X153732010Y-46602010D02*
X152432010Y-46602010D01*
X152432010Y-46602010D02*
X152432010Y-36602010D01*
G36*
X152432010Y-36602010D02*
G01*
X153732010Y-36602010D01*
X153732010Y-46602010D01*
X152432010Y-46602010D01*
X152432010Y-36602010D01*
G37*
X154932010Y-36602010D02*
X156232010Y-36602010D01*
X156232010Y-36602010D02*
X156232010Y-46602010D01*
X156232010Y-46602010D02*
X154932010Y-46602010D01*
X154932010Y-46602010D02*
X154932010Y-36602010D01*
G36*
X154932010Y-36602010D02*
G01*
X156232010Y-36602010D01*
X156232010Y-46602010D01*
X154932010Y-46602010D01*
X154932010Y-36602010D01*
G37*
X157432010Y-36602010D02*
X158732010Y-36602010D01*
X158732010Y-36602010D02*
X158732010Y-46602010D01*
X158732010Y-46602010D02*
X157432010Y-46602010D01*
X157432010Y-46602010D02*
X157432010Y-36602010D01*
G36*
X157432010Y-36602010D02*
G01*
X158732010Y-36602010D01*
X158732010Y-46602010D01*
X157432010Y-46602010D01*
X157432010Y-36602010D01*
G37*
X159932010Y-36602010D02*
X161232010Y-36602010D01*
X161232010Y-36602010D02*
X161232010Y-46602010D01*
X161232010Y-46602010D02*
X159932010Y-46602010D01*
X159932010Y-46602010D02*
X159932010Y-36602010D01*
G36*
X159932010Y-36602010D02*
G01*
X161232010Y-36602010D01*
X161232010Y-46602010D01*
X159932010Y-46602010D01*
X159932010Y-36602010D01*
G37*
X162432010Y-36602010D02*
X163732010Y-36602010D01*
X163732010Y-36602010D02*
X163732010Y-46602010D01*
X163732010Y-46602010D02*
X162432010Y-46602010D01*
X162432010Y-46602010D02*
X162432010Y-36602010D01*
G36*
X162432010Y-36602010D02*
G01*
X163732010Y-36602010D01*
X163732010Y-46602010D01*
X162432010Y-46602010D01*
X162432010Y-36602010D01*
G37*
X164932010Y-36602010D02*
X166232010Y-36602010D01*
X166232010Y-36602010D02*
X166232010Y-46602010D01*
X166232010Y-46602010D02*
X164932010Y-46602010D01*
X164932010Y-46602010D02*
X164932010Y-36602010D01*
G36*
X164932010Y-36602010D02*
G01*
X166232010Y-36602010D01*
X166232010Y-46602010D01*
X164932010Y-46602010D01*
X164932010Y-36602010D01*
G37*
%TO.C,J2*%
X91948000Y-83185000D02*
X93218000Y-83185000D01*
X93218000Y-83185000D02*
X93218000Y-75565000D01*
X93218000Y-75565000D02*
X91948000Y-75565000D01*
X91948000Y-75565000D02*
X91948000Y-83185000D01*
G36*
X91948000Y-83185000D02*
G01*
X93218000Y-83185000D01*
X93218000Y-75565000D01*
X91948000Y-75565000D01*
X91948000Y-83185000D01*
G37*
X94488000Y-83185000D02*
X95758000Y-83185000D01*
X95758000Y-83185000D02*
X95758000Y-75565000D01*
X95758000Y-75565000D02*
X94488000Y-75565000D01*
X94488000Y-75565000D02*
X94488000Y-83185000D01*
G36*
X94488000Y-83185000D02*
G01*
X95758000Y-83185000D01*
X95758000Y-75565000D01*
X94488000Y-75565000D01*
X94488000Y-83185000D01*
G37*
X97028000Y-83185000D02*
X98298000Y-83185000D01*
X98298000Y-83185000D02*
X98298000Y-75565000D01*
X98298000Y-75565000D02*
X97028000Y-75565000D01*
X97028000Y-75565000D02*
X97028000Y-83185000D01*
G36*
X97028000Y-83185000D02*
G01*
X98298000Y-83185000D01*
X98298000Y-75565000D01*
X97028000Y-75565000D01*
X97028000Y-83185000D01*
G37*
X99568000Y-83185000D02*
X100838000Y-83185000D01*
X100838000Y-83185000D02*
X100838000Y-75565000D01*
X100838000Y-75565000D02*
X99568000Y-75565000D01*
X99568000Y-75565000D02*
X99568000Y-83185000D01*
G36*
X99568000Y-83185000D02*
G01*
X100838000Y-83185000D01*
X100838000Y-75565000D01*
X99568000Y-75565000D01*
X99568000Y-83185000D01*
G37*
X102108000Y-83185000D02*
X103378000Y-83185000D01*
X103378000Y-83185000D02*
X103378000Y-75565000D01*
X103378000Y-75565000D02*
X102108000Y-75565000D01*
X102108000Y-75565000D02*
X102108000Y-83185000D01*
G36*
X102108000Y-83185000D02*
G01*
X103378000Y-83185000D01*
X103378000Y-75565000D01*
X102108000Y-75565000D01*
X102108000Y-83185000D01*
G37*
X104648000Y-83185000D02*
X105918000Y-83185000D01*
X105918000Y-83185000D02*
X105918000Y-75565000D01*
X105918000Y-75565000D02*
X104648000Y-75565000D01*
X104648000Y-75565000D02*
X104648000Y-83185000D01*
G36*
X104648000Y-83185000D02*
G01*
X105918000Y-83185000D01*
X105918000Y-75565000D01*
X104648000Y-75565000D01*
X104648000Y-83185000D01*
G37*
X107188000Y-83185000D02*
X108458000Y-83185000D01*
X108458000Y-83185000D02*
X108458000Y-75565000D01*
X108458000Y-75565000D02*
X107188000Y-75565000D01*
X107188000Y-75565000D02*
X107188000Y-83185000D01*
G36*
X107188000Y-83185000D02*
G01*
X108458000Y-83185000D01*
X108458000Y-75565000D01*
X107188000Y-75565000D01*
X107188000Y-83185000D01*
G37*
X109728000Y-83185000D02*
X110998000Y-83185000D01*
X110998000Y-83185000D02*
X110998000Y-75565000D01*
X110998000Y-75565000D02*
X109728000Y-75565000D01*
X109728000Y-75565000D02*
X109728000Y-83185000D01*
G36*
X109728000Y-83185000D02*
G01*
X110998000Y-83185000D01*
X110998000Y-75565000D01*
X109728000Y-75565000D01*
X109728000Y-83185000D01*
G37*
X112268000Y-83185000D02*
X113538000Y-83185000D01*
X113538000Y-83185000D02*
X113538000Y-75565000D01*
X113538000Y-75565000D02*
X112268000Y-75565000D01*
X112268000Y-75565000D02*
X112268000Y-83185000D01*
G36*
X112268000Y-83185000D02*
G01*
X113538000Y-83185000D01*
X113538000Y-75565000D01*
X112268000Y-75565000D01*
X112268000Y-83185000D01*
G37*
X114808000Y-83185000D02*
X116078000Y-83185000D01*
X116078000Y-83185000D02*
X116078000Y-75565000D01*
X116078000Y-75565000D02*
X114808000Y-75565000D01*
X114808000Y-75565000D02*
X114808000Y-83185000D01*
G36*
X114808000Y-83185000D02*
G01*
X116078000Y-83185000D01*
X116078000Y-75565000D01*
X114808000Y-75565000D01*
X114808000Y-83185000D01*
G37*
X117348000Y-83185000D02*
X118618000Y-83185000D01*
X118618000Y-83185000D02*
X118618000Y-75565000D01*
X118618000Y-75565000D02*
X117348000Y-75565000D01*
X117348000Y-75565000D02*
X117348000Y-83185000D01*
G36*
X117348000Y-83185000D02*
G01*
X118618000Y-83185000D01*
X118618000Y-75565000D01*
X117348000Y-75565000D01*
X117348000Y-83185000D01*
G37*
X119888000Y-83185000D02*
X121158000Y-83185000D01*
X121158000Y-83185000D02*
X121158000Y-75565000D01*
X121158000Y-75565000D02*
X119888000Y-75565000D01*
X119888000Y-75565000D02*
X119888000Y-83185000D01*
G36*
X119888000Y-83185000D02*
G01*
X121158000Y-83185000D01*
X121158000Y-75565000D01*
X119888000Y-75565000D01*
X119888000Y-83185000D01*
G37*
X122428000Y-83185000D02*
X123698000Y-83185000D01*
X123698000Y-83185000D02*
X123698000Y-75565000D01*
X123698000Y-75565000D02*
X122428000Y-75565000D01*
X122428000Y-75565000D02*
X122428000Y-83185000D01*
G36*
X122428000Y-83185000D02*
G01*
X123698000Y-83185000D01*
X123698000Y-75565000D01*
X122428000Y-75565000D01*
X122428000Y-83185000D01*
G37*
X124968000Y-83185000D02*
X126238000Y-83185000D01*
X126238000Y-83185000D02*
X126238000Y-75565000D01*
X126238000Y-75565000D02*
X124968000Y-75565000D01*
X124968000Y-75565000D02*
X124968000Y-83185000D01*
G36*
X124968000Y-83185000D02*
G01*
X126238000Y-83185000D01*
X126238000Y-75565000D01*
X124968000Y-75565000D01*
X124968000Y-83185000D01*
G37*
X127508000Y-83185000D02*
X128778000Y-83185000D01*
X128778000Y-83185000D02*
X128778000Y-75565000D01*
X128778000Y-75565000D02*
X127508000Y-75565000D01*
X127508000Y-75565000D02*
X127508000Y-83185000D01*
G36*
X127508000Y-83185000D02*
G01*
X128778000Y-83185000D01*
X128778000Y-75565000D01*
X127508000Y-75565000D01*
X127508000Y-83185000D01*
G37*
X130048000Y-83185000D02*
X131318000Y-83185000D01*
X131318000Y-83185000D02*
X131318000Y-75565000D01*
X131318000Y-75565000D02*
X130048000Y-75565000D01*
X130048000Y-75565000D02*
X130048000Y-83185000D01*
G36*
X130048000Y-83185000D02*
G01*
X131318000Y-83185000D01*
X131318000Y-75565000D01*
X130048000Y-75565000D01*
X130048000Y-83185000D01*
G37*
X132588000Y-83185000D02*
X133858000Y-83185000D01*
X133858000Y-83185000D02*
X133858000Y-75565000D01*
X133858000Y-75565000D02*
X132588000Y-75565000D01*
X132588000Y-75565000D02*
X132588000Y-83185000D01*
G36*
X132588000Y-83185000D02*
G01*
X133858000Y-83185000D01*
X133858000Y-75565000D01*
X132588000Y-75565000D01*
X132588000Y-83185000D01*
G37*
X135128000Y-83185000D02*
X136398000Y-83185000D01*
X136398000Y-83185000D02*
X136398000Y-75565000D01*
X136398000Y-75565000D02*
X135128000Y-75565000D01*
X135128000Y-75565000D02*
X135128000Y-83185000D01*
G36*
X135128000Y-83185000D02*
G01*
X136398000Y-83185000D01*
X136398000Y-75565000D01*
X135128000Y-75565000D01*
X135128000Y-83185000D01*
G37*
X137668000Y-83185000D02*
X138938000Y-83185000D01*
X138938000Y-83185000D02*
X138938000Y-75565000D01*
X138938000Y-75565000D02*
X137668000Y-75565000D01*
X137668000Y-75565000D02*
X137668000Y-83185000D01*
G36*
X137668000Y-83185000D02*
G01*
X138938000Y-83185000D01*
X138938000Y-75565000D01*
X137668000Y-75565000D01*
X137668000Y-83185000D01*
G37*
X140208000Y-83185000D02*
X141478000Y-83185000D01*
X141478000Y-83185000D02*
X141478000Y-75565000D01*
X141478000Y-75565000D02*
X140208000Y-75565000D01*
X140208000Y-75565000D02*
X140208000Y-83185000D01*
G36*
X140208000Y-83185000D02*
G01*
X141478000Y-83185000D01*
X141478000Y-75565000D01*
X140208000Y-75565000D01*
X140208000Y-83185000D01*
G37*
X142748000Y-83185000D02*
X144018000Y-83185000D01*
X144018000Y-83185000D02*
X144018000Y-75565000D01*
X144018000Y-75565000D02*
X142748000Y-75565000D01*
X142748000Y-75565000D02*
X142748000Y-83185000D01*
G36*
X142748000Y-83185000D02*
G01*
X144018000Y-83185000D01*
X144018000Y-75565000D01*
X142748000Y-75565000D01*
X142748000Y-83185000D01*
G37*
X145288000Y-83185000D02*
X146558000Y-83185000D01*
X146558000Y-83185000D02*
X146558000Y-75565000D01*
X146558000Y-75565000D02*
X145288000Y-75565000D01*
X145288000Y-75565000D02*
X145288000Y-83185000D01*
G36*
X145288000Y-83185000D02*
G01*
X146558000Y-83185000D01*
X146558000Y-75565000D01*
X145288000Y-75565000D01*
X145288000Y-83185000D01*
G37*
X147828000Y-83185000D02*
X149098000Y-83185000D01*
X149098000Y-83185000D02*
X149098000Y-75565000D01*
X149098000Y-75565000D02*
X147828000Y-75565000D01*
X147828000Y-75565000D02*
X147828000Y-83185000D01*
G36*
X147828000Y-83185000D02*
G01*
X149098000Y-83185000D01*
X149098000Y-75565000D01*
X147828000Y-75565000D01*
X147828000Y-83185000D01*
G37*
X152908000Y-83185000D02*
X154178000Y-83185000D01*
X154178000Y-83185000D02*
X154178000Y-75565000D01*
X154178000Y-75565000D02*
X152908000Y-75565000D01*
X152908000Y-75565000D02*
X152908000Y-83185000D01*
G36*
X152908000Y-83185000D02*
G01*
X154178000Y-83185000D01*
X154178000Y-75565000D01*
X152908000Y-75565000D01*
X152908000Y-83185000D01*
G37*
X155448000Y-83185000D02*
X156718000Y-83185000D01*
X156718000Y-83185000D02*
X156718000Y-75565000D01*
X156718000Y-75565000D02*
X155448000Y-75565000D01*
X155448000Y-75565000D02*
X155448000Y-83185000D01*
G36*
X155448000Y-83185000D02*
G01*
X156718000Y-83185000D01*
X156718000Y-75565000D01*
X155448000Y-75565000D01*
X155448000Y-83185000D01*
G37*
X157988000Y-83185000D02*
X159258000Y-83185000D01*
X159258000Y-83185000D02*
X159258000Y-75565000D01*
X159258000Y-75565000D02*
X157988000Y-75565000D01*
X157988000Y-75565000D02*
X157988000Y-83185000D01*
G36*
X157988000Y-83185000D02*
G01*
X159258000Y-83185000D01*
X159258000Y-75565000D01*
X157988000Y-75565000D01*
X157988000Y-83185000D01*
G37*
X160528000Y-83185000D02*
X161798000Y-83185000D01*
X161798000Y-83185000D02*
X161798000Y-75565000D01*
X161798000Y-75565000D02*
X160528000Y-75565000D01*
X160528000Y-75565000D02*
X160528000Y-83185000D01*
G36*
X160528000Y-83185000D02*
G01*
X161798000Y-83185000D01*
X161798000Y-75565000D01*
X160528000Y-75565000D01*
X160528000Y-83185000D01*
G37*
%TD*%
D11*
%TO.C,SLOT*%
X161163000Y-67437000D03*
X158623000Y-67437000D03*
X156083000Y-67437000D03*
X153543000Y-67437000D03*
X151003000Y-67437000D03*
X148463000Y-67437000D03*
X145923000Y-67437000D03*
X143383000Y-67437000D03*
X140843000Y-67437000D03*
X138303000Y-67437000D03*
X135763000Y-67437000D03*
X133223000Y-67437000D03*
X130683000Y-67437000D03*
X128143000Y-67437000D03*
X125603000Y-67437000D03*
X123063000Y-67437000D03*
X120523000Y-67437000D03*
X117983000Y-67437000D03*
X115443000Y-67437000D03*
X112903000Y-67437000D03*
X110363000Y-67437000D03*
X107823000Y-67437000D03*
X105283000Y-67437000D03*
X102743000Y-67437000D03*
X100203000Y-67437000D03*
X97663000Y-67437000D03*
X95123000Y-67437000D03*
X92583000Y-67437000D03*
X161163000Y-62357000D03*
X158623000Y-62357000D03*
X156083000Y-62357000D03*
X153543000Y-62357000D03*
X151003000Y-62357000D03*
X148463000Y-62357000D03*
X145923000Y-62357000D03*
X143383000Y-62357000D03*
X140843000Y-62357000D03*
X138303000Y-62357000D03*
X135763000Y-62357000D03*
X133223000Y-62357000D03*
X130683000Y-62357000D03*
X128143000Y-62357000D03*
X125603000Y-62357000D03*
X123063000Y-62357000D03*
X120523000Y-62357000D03*
X117983000Y-62357000D03*
X115443000Y-62357000D03*
X112903000Y-62357000D03*
X110363000Y-62357000D03*
X107823000Y-62357000D03*
X105283000Y-62357000D03*
X102743000Y-62357000D03*
X100203000Y-62357000D03*
X97663000Y-62357000D03*
X95123000Y-62357000D03*
X92583000Y-62357000D03*
%TD*%
M02*
