%TF.GenerationSoftware,KiCad,Pcbnew,7.0.1*%
%TF.CreationDate,2023-10-11T14:29:49+03:00*%
%TF.ProjectId,DeltaS48k-convertor,44656c74-6153-4343-986b-2d636f6e7665,rev?*%
%TF.SameCoordinates,Original*%
%TF.FileFunction,Drillmap*%
%TF.FilePolarity,Positive*%
%FSLAX45Y45*%
G04 Gerber Fmt 4.5, Leading zero omitted, Abs format (unit mm)*
G04 Created by KiCad (PCBNEW 7.0.1) date 2023-10-11 14:29:49*
%MOMM*%
%LPD*%
G01*
G04 APERTURE LIST*
%ADD10C,0.100000*%
%ADD11C,0.200000*%
G04 APERTURE END LIST*
D10*
X17544802Y-3500202D02*
X7842002Y-3500202D01*
X7842002Y-3500202D02*
X7842002Y-6925351D01*
X7842002Y-6925351D02*
X7892802Y-6976151D01*
X15208002Y-8369300D02*
X16478002Y-8369300D01*
X7892802Y-6976151D02*
X8908802Y-6976151D01*
X15004802Y-8369300D02*
X15004802Y-7429500D01*
X15208002Y-7429500D02*
X15208002Y-8369300D01*
X16478002Y-6976151D02*
X17494002Y-6976151D01*
X17544802Y-6925351D02*
X17544802Y-3500202D01*
X8908802Y-8369300D02*
X15004802Y-8369300D01*
X17494002Y-6976151D02*
X17544802Y-6925351D01*
X15004802Y-7429500D02*
X15208002Y-7429500D01*
X16478002Y-8369300D02*
X16478002Y-6976151D01*
X8908802Y-6976151D02*
X8908802Y-8369300D01*
D11*
X8084621Y-8686824D02*
X8084621Y-8486824D01*
X8084621Y-8486824D02*
X8132240Y-8486824D01*
X8132240Y-8486824D02*
X8160811Y-8496348D01*
X8160811Y-8496348D02*
X8179859Y-8515395D01*
X8179859Y-8515395D02*
X8189383Y-8534443D01*
X8189383Y-8534443D02*
X8198907Y-8572538D01*
X8198907Y-8572538D02*
X8198907Y-8601110D01*
X8198907Y-8601110D02*
X8189383Y-8639205D01*
X8189383Y-8639205D02*
X8179859Y-8658252D01*
X8179859Y-8658252D02*
X8160811Y-8677300D01*
X8160811Y-8677300D02*
X8132240Y-8686824D01*
X8132240Y-8686824D02*
X8084621Y-8686824D01*
X8284621Y-8686824D02*
X8284621Y-8553490D01*
X8284621Y-8591586D02*
X8294145Y-8572538D01*
X8294145Y-8572538D02*
X8303669Y-8563014D01*
X8303669Y-8563014D02*
X8322716Y-8553490D01*
X8322716Y-8553490D02*
X8341764Y-8553490D01*
X8408431Y-8686824D02*
X8408431Y-8553490D01*
X8408431Y-8486824D02*
X8398907Y-8496348D01*
X8398907Y-8496348D02*
X8408431Y-8505871D01*
X8408431Y-8505871D02*
X8417954Y-8496348D01*
X8417954Y-8496348D02*
X8408431Y-8486824D01*
X8408431Y-8486824D02*
X8408431Y-8505871D01*
X8532240Y-8686824D02*
X8513192Y-8677300D01*
X8513192Y-8677300D02*
X8503669Y-8658252D01*
X8503669Y-8658252D02*
X8503669Y-8486824D01*
X8637002Y-8686824D02*
X8617954Y-8677300D01*
X8617954Y-8677300D02*
X8608431Y-8658252D01*
X8608431Y-8658252D02*
X8608431Y-8486824D01*
X8865573Y-8686824D02*
X8865573Y-8486824D01*
X8865573Y-8486824D02*
X8932240Y-8629681D01*
X8932240Y-8629681D02*
X8998907Y-8486824D01*
X8998907Y-8486824D02*
X8998907Y-8686824D01*
X9179859Y-8686824D02*
X9179859Y-8582062D01*
X9179859Y-8582062D02*
X9170335Y-8563014D01*
X9170335Y-8563014D02*
X9151288Y-8553490D01*
X9151288Y-8553490D02*
X9113192Y-8553490D01*
X9113192Y-8553490D02*
X9094145Y-8563014D01*
X9179859Y-8677300D02*
X9160812Y-8686824D01*
X9160812Y-8686824D02*
X9113192Y-8686824D01*
X9113192Y-8686824D02*
X9094145Y-8677300D01*
X9094145Y-8677300D02*
X9084621Y-8658252D01*
X9084621Y-8658252D02*
X9084621Y-8639205D01*
X9084621Y-8639205D02*
X9094145Y-8620157D01*
X9094145Y-8620157D02*
X9113192Y-8610633D01*
X9113192Y-8610633D02*
X9160812Y-8610633D01*
X9160812Y-8610633D02*
X9179859Y-8601110D01*
X9275097Y-8553490D02*
X9275097Y-8753490D01*
X9275097Y-8563014D02*
X9294145Y-8553490D01*
X9294145Y-8553490D02*
X9332240Y-8553490D01*
X9332240Y-8553490D02*
X9351288Y-8563014D01*
X9351288Y-8563014D02*
X9360812Y-8572538D01*
X9360812Y-8572538D02*
X9370335Y-8591586D01*
X9370335Y-8591586D02*
X9370335Y-8648729D01*
X9370335Y-8648729D02*
X9360812Y-8667776D01*
X9360812Y-8667776D02*
X9351288Y-8677300D01*
X9351288Y-8677300D02*
X9332240Y-8686824D01*
X9332240Y-8686824D02*
X9294145Y-8686824D01*
X9294145Y-8686824D02*
X9275097Y-8677300D01*
X9456050Y-8667776D02*
X9465573Y-8677300D01*
X9465573Y-8677300D02*
X9456050Y-8686824D01*
X9456050Y-8686824D02*
X9446526Y-8677300D01*
X9446526Y-8677300D02*
X9456050Y-8667776D01*
X9456050Y-8667776D02*
X9456050Y-8686824D01*
X9456050Y-8563014D02*
X9465573Y-8572538D01*
X9465573Y-8572538D02*
X9456050Y-8582062D01*
X9456050Y-8582062D02*
X9446526Y-8572538D01*
X9446526Y-8572538D02*
X9456050Y-8563014D01*
X9456050Y-8563014D02*
X9456050Y-8582062D01*
M02*
