%TF.GenerationSoftware,KiCad,Pcbnew,(6.0.10)*%
%TF.CreationDate,2023-02-24T21:34:05+03:00*%
%TF.ProjectId,Ver2.2,56657232-2e32-42e6-9b69-6361645f7063,rev?*%
%TF.SameCoordinates,Original*%
%TF.FileFunction,Legend,Top*%
%TF.FilePolarity,Positive*%
%FSLAX46Y46*%
G04 Gerber Fmt 4.6, Leading zero omitted, Abs format (unit mm)*
G04 Created by KiCad (PCBNEW (6.0.10)) date 2023-02-24 21:34:05*
%MOMM*%
%LPD*%
G01*
G04 APERTURE LIST*
%ADD10C,0.150000*%
%ADD11C,0.254000*%
%ADD12O,1.600000X3.000000*%
G04 APERTURE END LIST*
D10*
X90820904Y-58507380D02*
X90344714Y-58507380D01*
X90297095Y-58983571D01*
X90344714Y-58935952D01*
X90439952Y-58888333D01*
X90678047Y-58888333D01*
X90773285Y-58935952D01*
X90820904Y-58983571D01*
X90868523Y-59078809D01*
X90868523Y-59316904D01*
X90820904Y-59412142D01*
X90773285Y-59459761D01*
X90678047Y-59507380D01*
X90439952Y-59507380D01*
X90344714Y-59459761D01*
X90297095Y-59412142D01*
X91725666Y-58507380D02*
X91535190Y-58507380D01*
X91439952Y-58555000D01*
X91392333Y-58602619D01*
X91297095Y-58745476D01*
X91249476Y-58935952D01*
X91249476Y-59316904D01*
X91297095Y-59412142D01*
X91344714Y-59459761D01*
X91439952Y-59507380D01*
X91630428Y-59507380D01*
X91725666Y-59459761D01*
X91773285Y-59412142D01*
X91820904Y-59316904D01*
X91820904Y-59078809D01*
X91773285Y-58983571D01*
X91725666Y-58935952D01*
X91630428Y-58888333D01*
X91439952Y-58888333D01*
X91344714Y-58935952D01*
X91297095Y-58983571D01*
X91249476Y-59078809D01*
X133736400Y-51686496D02*
X132736400Y-51686496D01*
X133212591Y-51686496D02*
X133212591Y-51115067D01*
X133736400Y-51115067D02*
X132736400Y-51115067D01*
X133450686Y-50686496D02*
X133450686Y-50210305D01*
X133736400Y-50781734D02*
X132736400Y-50448400D01*
X133736400Y-50115067D01*
X133736400Y-49305543D02*
X133736400Y-49781734D01*
X132736400Y-49781734D01*
X132736400Y-49115067D02*
X132736400Y-48543638D01*
X133736400Y-48829353D02*
X132736400Y-48829353D01*
X103195380Y-74461475D02*
X102195380Y-74461475D01*
X102909666Y-74128142D01*
X102195380Y-73794809D01*
X103195380Y-73794809D01*
X103195380Y-72794809D02*
X103195380Y-73366237D01*
X103195380Y-73080523D02*
X102195380Y-73080523D01*
X102338238Y-73175761D01*
X102433476Y-73270999D01*
X102481095Y-73366237D01*
X126116400Y-49638877D02*
X125640210Y-49972210D01*
X126116400Y-50210305D02*
X125116400Y-50210305D01*
X125116400Y-49829353D01*
X125164020Y-49734115D01*
X125211639Y-49686496D01*
X125306877Y-49638877D01*
X125449734Y-49638877D01*
X125544972Y-49686496D01*
X125592591Y-49734115D01*
X125640210Y-49829353D01*
X125640210Y-50210305D01*
X126116400Y-49210305D02*
X125116400Y-49210305D01*
X125116400Y-48972210D01*
X125164020Y-48829353D01*
X125259258Y-48734115D01*
X125354496Y-48686496D01*
X125544972Y-48638877D01*
X125687829Y-48638877D01*
X125878305Y-48686496D01*
X125973543Y-48734115D01*
X126068781Y-48829353D01*
X126116400Y-48972210D01*
X126116400Y-49210305D01*
X161168400Y-50162687D02*
X160168400Y-50162687D01*
X160168400Y-49924592D01*
X160216020Y-49781734D01*
X160311258Y-49686496D01*
X160406496Y-49638877D01*
X160596972Y-49591258D01*
X160739829Y-49591258D01*
X160930305Y-49638877D01*
X161025543Y-49686496D01*
X161120781Y-49781734D01*
X161168400Y-49924592D01*
X161168400Y-50162687D01*
X160168400Y-49257925D02*
X160168400Y-48591258D01*
X161168400Y-49019830D01*
X136276400Y-50876973D02*
X135276400Y-50876973D01*
X136276400Y-50305544D01*
X135276400Y-50305544D01*
X136276400Y-49829354D02*
X135276400Y-49829354D01*
X135990686Y-49496020D01*
X135276400Y-49162687D01*
X136276400Y-49162687D01*
X136276400Y-48686496D02*
X135276400Y-48686496D01*
X161329666Y-74509095D02*
X161329666Y-74032904D01*
X161615380Y-74604333D02*
X160615380Y-74270999D01*
X161615380Y-73937666D01*
X161615380Y-73080523D02*
X161615380Y-73651952D01*
X161615380Y-73366238D02*
X160615380Y-73366238D01*
X160758238Y-73461476D01*
X160853476Y-73556714D01*
X160901095Y-73651952D01*
X160615380Y-72175761D02*
X160615380Y-72651952D01*
X161091571Y-72699571D01*
X161043952Y-72651952D01*
X160996333Y-72556714D01*
X160996333Y-72318619D01*
X161043952Y-72223380D01*
X161091571Y-72175761D01*
X161186809Y-72128142D01*
X161424904Y-72128142D01*
X161520142Y-72175761D01*
X161567761Y-72223380D01*
X161615380Y-72318619D01*
X161615380Y-72556714D01*
X161567761Y-72651952D01*
X161520142Y-72699571D01*
X131135380Y-74461475D02*
X130135380Y-74461475D01*
X131135380Y-73985285D02*
X130135380Y-73985285D01*
X131135380Y-73413856D01*
X130135380Y-73413856D01*
X130135380Y-73080523D02*
X130135380Y-72509094D01*
X131135380Y-72794809D02*
X130135380Y-72794809D01*
X151008400Y-50162687D02*
X150008400Y-50162687D01*
X150008400Y-49924592D01*
X150056020Y-49781734D01*
X150151258Y-49686496D01*
X150246496Y-49638877D01*
X150436972Y-49591258D01*
X150579829Y-49591258D01*
X150770305Y-49638877D01*
X150865543Y-49686496D01*
X150960781Y-49781734D01*
X151008400Y-49924592D01*
X151008400Y-50162687D01*
X150103639Y-49210306D02*
X150056020Y-49162687D01*
X150008400Y-49067449D01*
X150008400Y-48829353D01*
X150056020Y-48734115D01*
X150103639Y-48686496D01*
X150198877Y-48638877D01*
X150294115Y-48638877D01*
X150436972Y-48686496D01*
X151008400Y-49257925D01*
X151008400Y-48638877D01*
X143388400Y-50162687D02*
X142388400Y-50162687D01*
X142388400Y-49924592D01*
X142436020Y-49781734D01*
X142531258Y-49686496D01*
X142626496Y-49638877D01*
X142816972Y-49591258D01*
X142959829Y-49591258D01*
X143150305Y-49638877D01*
X143245543Y-49686496D01*
X143340781Y-49781734D01*
X143388400Y-49924592D01*
X143388400Y-50162687D01*
X142388400Y-49257925D02*
X142388400Y-48638877D01*
X142769353Y-48972211D01*
X142769353Y-48829353D01*
X142816972Y-48734115D01*
X142864591Y-48686496D01*
X142959829Y-48638877D01*
X143197924Y-48638877D01*
X143293162Y-48686496D01*
X143340781Y-48734115D01*
X143388400Y-48829353D01*
X143388400Y-49115068D01*
X143340781Y-49210306D01*
X143293162Y-49257925D01*
X122576400Y-50448401D02*
X123576400Y-50210306D01*
X122862115Y-50019830D01*
X123576400Y-49829353D01*
X122576400Y-49591258D01*
X123576400Y-48638877D02*
X123100210Y-48972210D01*
X123576400Y-49210306D02*
X122576400Y-49210306D01*
X122576400Y-48829353D01*
X122624020Y-48734115D01*
X122671639Y-48686496D01*
X122766877Y-48638877D01*
X122909734Y-48638877D01*
X123004972Y-48686496D01*
X123052591Y-48734115D01*
X123100210Y-48829353D01*
X123100210Y-49210306D01*
X153548400Y-50162687D02*
X152548400Y-50162687D01*
X152548400Y-49924592D01*
X152596020Y-49781734D01*
X152691258Y-49686496D01*
X152786496Y-49638877D01*
X152976972Y-49591258D01*
X153119829Y-49591258D01*
X153310305Y-49638877D01*
X153405543Y-49686496D01*
X153500781Y-49781734D01*
X153548400Y-49924592D01*
X153548400Y-50162687D01*
X153548400Y-48638877D02*
X153548400Y-49210306D01*
X153548400Y-48924592D02*
X152548400Y-48924592D01*
X152691258Y-49019830D01*
X152786496Y-49115068D01*
X152834115Y-49210306D01*
X109815380Y-74556714D02*
X110815380Y-74318619D01*
X110101095Y-74128143D01*
X110815380Y-73937666D01*
X109815380Y-73699571D01*
X110529666Y-73366238D02*
X110529666Y-72890047D01*
X110815380Y-73461476D02*
X109815380Y-73128143D01*
X110815380Y-72794809D01*
X110815380Y-72461476D02*
X109815380Y-72461476D01*
X109815380Y-72128143D02*
X109815380Y-71556714D01*
X110815380Y-71842428D02*
X109815380Y-71842428D01*
X87939571Y-52019829D02*
X87939571Y-51686496D01*
X88463380Y-51543639D02*
X88463380Y-52019829D01*
X87463380Y-52019829D01*
X87463380Y-51543639D01*
X88463380Y-51210305D02*
X87796714Y-50686496D01*
X87796714Y-51210305D02*
X88463380Y-50686496D01*
X87796714Y-50448401D02*
X87796714Y-50067448D01*
X87463380Y-50305543D02*
X88320523Y-50305543D01*
X88415761Y-50257924D01*
X88463380Y-50162686D01*
X88463380Y-50067448D01*
X88463380Y-49734115D02*
X87796714Y-49734115D01*
X87987190Y-49734115D02*
X87891952Y-49686496D01*
X87844333Y-49638877D01*
X87796714Y-49543639D01*
X87796714Y-49448401D01*
X88463380Y-48686496D02*
X87939571Y-48686496D01*
X87844333Y-48734115D01*
X87796714Y-48829353D01*
X87796714Y-49019829D01*
X87844333Y-49115067D01*
X88415761Y-48686496D02*
X88463380Y-48781734D01*
X88463380Y-49019829D01*
X88415761Y-49115067D01*
X88320523Y-49162686D01*
X88225285Y-49162686D01*
X88130047Y-49115067D01*
X88082428Y-49019829D01*
X88082428Y-48781734D01*
X88034809Y-48686496D01*
X90043095Y-70286619D02*
X90090714Y-70239000D01*
X90185952Y-70191380D01*
X90424047Y-70191380D01*
X90519285Y-70239000D01*
X90566904Y-70286619D01*
X90614523Y-70381857D01*
X90614523Y-70477095D01*
X90566904Y-70619952D01*
X89995476Y-71191380D01*
X90614523Y-71191380D01*
X91185952Y-70619952D02*
X91090714Y-70572333D01*
X91043095Y-70524714D01*
X90995476Y-70429476D01*
X90995476Y-70381857D01*
X91043095Y-70286619D01*
X91090714Y-70239000D01*
X91185952Y-70191380D01*
X91376428Y-70191380D01*
X91471666Y-70239000D01*
X91519285Y-70286619D01*
X91566904Y-70381857D01*
X91566904Y-70429476D01*
X91519285Y-70524714D01*
X91471666Y-70572333D01*
X91376428Y-70619952D01*
X91185952Y-70619952D01*
X91090714Y-70667571D01*
X91043095Y-70715190D01*
X90995476Y-70810428D01*
X90995476Y-71000904D01*
X91043095Y-71096142D01*
X91090714Y-71143761D01*
X91185952Y-71191380D01*
X91376428Y-71191380D01*
X91471666Y-71143761D01*
X91519285Y-71096142D01*
X91566904Y-71000904D01*
X91566904Y-70810428D01*
X91519285Y-70715190D01*
X91471666Y-70667571D01*
X91376428Y-70619952D01*
X128656400Y-52686496D02*
X127656400Y-52686496D01*
X127656400Y-52019829D02*
X127656400Y-51829353D01*
X127704020Y-51734115D01*
X127799258Y-51638876D01*
X127989734Y-51591257D01*
X128323067Y-51591257D01*
X128513543Y-51638876D01*
X128608781Y-51734115D01*
X128656400Y-51829353D01*
X128656400Y-52019829D01*
X128608781Y-52115067D01*
X128513543Y-52210305D01*
X128323067Y-52257924D01*
X127989734Y-52257924D01*
X127799258Y-52210305D01*
X127704020Y-52115067D01*
X127656400Y-52019829D01*
X128656400Y-50591257D02*
X128180210Y-50924591D01*
X128656400Y-51162686D02*
X127656400Y-51162686D01*
X127656400Y-50781734D01*
X127704020Y-50686496D01*
X127751639Y-50638876D01*
X127846877Y-50591257D01*
X127989734Y-50591257D01*
X128084972Y-50638876D01*
X128132591Y-50686496D01*
X128180210Y-50781734D01*
X128180210Y-51162686D01*
X128132591Y-50162686D02*
X128132591Y-49829353D01*
X128656400Y-49686496D02*
X128656400Y-50162686D01*
X127656400Y-50162686D01*
X127656400Y-49686496D01*
X128751639Y-48591257D02*
X128704020Y-48686496D01*
X128608781Y-48781734D01*
X128465924Y-48924591D01*
X128418305Y-49019829D01*
X128418305Y-49115067D01*
X128656400Y-49067448D02*
X128608781Y-49162686D01*
X128513543Y-49257924D01*
X128323067Y-49305543D01*
X127989734Y-49305543D01*
X127799258Y-49257924D01*
X127704020Y-49162686D01*
X127656400Y-49067448D01*
X127656400Y-48876972D01*
X127704020Y-48781734D01*
X127799258Y-48686496D01*
X127989734Y-48638876D01*
X128323067Y-48638876D01*
X128513543Y-48686496D01*
X128608781Y-48781734D01*
X128656400Y-48876972D01*
X128656400Y-49067448D01*
X140848400Y-50162687D02*
X139848400Y-50162687D01*
X139848400Y-49924592D01*
X139896020Y-49781734D01*
X139991258Y-49686496D01*
X140086496Y-49638877D01*
X140276972Y-49591258D01*
X140419829Y-49591258D01*
X140610305Y-49638877D01*
X140705543Y-49686496D01*
X140800781Y-49781734D01*
X140848400Y-49924592D01*
X140848400Y-50162687D01*
X140181734Y-48734115D02*
X140848400Y-48734115D01*
X139800781Y-48972211D02*
X140515067Y-49210306D01*
X140515067Y-48591258D01*
X143835380Y-74461476D02*
X142835380Y-74461476D01*
X142835380Y-74223381D01*
X142883000Y-74080523D01*
X142978238Y-73985285D01*
X143073476Y-73937666D01*
X143263952Y-73890047D01*
X143406809Y-73890047D01*
X143597285Y-73937666D01*
X143692523Y-73985285D01*
X143787761Y-74080523D01*
X143835380Y-74223381D01*
X143835380Y-74461476D01*
X142930619Y-73509095D02*
X142883000Y-73461476D01*
X142835380Y-73366238D01*
X142835380Y-73128142D01*
X142883000Y-73032904D01*
X142930619Y-72985285D01*
X143025857Y-72937666D01*
X143121095Y-72937666D01*
X143263952Y-72985285D01*
X143835380Y-73556714D01*
X143835380Y-72937666D01*
X120975380Y-74461476D02*
X119975380Y-74461476D01*
X119975380Y-73794809D02*
X119975380Y-73604333D01*
X120023000Y-73509095D01*
X120118238Y-73413856D01*
X120308714Y-73366237D01*
X120642047Y-73366237D01*
X120832523Y-73413856D01*
X120927761Y-73509095D01*
X120975380Y-73604333D01*
X120975380Y-73794809D01*
X120927761Y-73890047D01*
X120832523Y-73985285D01*
X120642047Y-74032904D01*
X120308714Y-74032904D01*
X120118238Y-73985285D01*
X120023000Y-73890047D01*
X119975380Y-73794809D01*
X120975380Y-72366237D02*
X120499190Y-72699571D01*
X120975380Y-72937666D02*
X119975380Y-72937666D01*
X119975380Y-72556714D01*
X120023000Y-72461476D01*
X120070619Y-72413856D01*
X120165857Y-72366237D01*
X120308714Y-72366237D01*
X120403952Y-72413856D01*
X120451571Y-72461476D01*
X120499190Y-72556714D01*
X120499190Y-72937666D01*
X120451571Y-71937666D02*
X120451571Y-71604333D01*
X120975380Y-71461476D02*
X120975380Y-71937666D01*
X119975380Y-71937666D01*
X119975380Y-71461476D01*
X121070619Y-70366237D02*
X121023000Y-70461476D01*
X120927761Y-70556714D01*
X120784904Y-70699571D01*
X120737285Y-70794809D01*
X120737285Y-70890047D01*
X120975380Y-70842428D02*
X120927761Y-70937666D01*
X120832523Y-71032904D01*
X120642047Y-71080523D01*
X120308714Y-71080523D01*
X120118238Y-71032904D01*
X120023000Y-70937666D01*
X119975380Y-70842428D01*
X119975380Y-70651952D01*
X120023000Y-70556714D01*
X120118238Y-70461476D01*
X120308714Y-70413856D01*
X120642047Y-70413856D01*
X120832523Y-70461476D01*
X120927761Y-70556714D01*
X120975380Y-70651952D01*
X120975380Y-70842428D01*
X100909380Y-51734115D02*
X100433190Y-52067448D01*
X100909380Y-52305543D02*
X99909380Y-52305543D01*
X99909380Y-51924591D01*
X99957000Y-51829353D01*
X100004619Y-51781734D01*
X100099857Y-51734115D01*
X100242714Y-51734115D01*
X100337952Y-51781734D01*
X100385571Y-51829353D01*
X100433190Y-51924591D01*
X100433190Y-52305543D01*
X100861761Y-50924591D02*
X100909380Y-51019829D01*
X100909380Y-51210305D01*
X100861761Y-51305543D01*
X100766523Y-51353162D01*
X100385571Y-51353162D01*
X100290333Y-51305543D01*
X100242714Y-51210305D01*
X100242714Y-51019829D01*
X100290333Y-50924591D01*
X100385571Y-50876972D01*
X100480809Y-50876972D01*
X100576047Y-51353162D01*
X100861761Y-50496020D02*
X100909380Y-50400781D01*
X100909380Y-50210305D01*
X100861761Y-50115067D01*
X100766523Y-50067448D01*
X100718904Y-50067448D01*
X100623666Y-50115067D01*
X100576047Y-50210305D01*
X100576047Y-50353162D01*
X100528428Y-50448400D01*
X100433190Y-50496020D01*
X100385571Y-50496020D01*
X100290333Y-50448400D01*
X100242714Y-50353162D01*
X100242714Y-50210305D01*
X100290333Y-50115067D01*
X100861761Y-49257924D02*
X100909380Y-49353162D01*
X100909380Y-49543639D01*
X100861761Y-49638877D01*
X100766523Y-49686496D01*
X100385571Y-49686496D01*
X100290333Y-49638877D01*
X100242714Y-49543639D01*
X100242714Y-49353162D01*
X100290333Y-49257924D01*
X100385571Y-49210305D01*
X100480809Y-49210305D01*
X100576047Y-49686496D01*
X100242714Y-48924591D02*
X100242714Y-48543639D01*
X99909380Y-48781734D02*
X100766523Y-48781734D01*
X100861761Y-48734115D01*
X100909380Y-48638877D01*
X100909380Y-48543639D01*
X158789666Y-74509095D02*
X158789666Y-74032904D01*
X159075380Y-74604333D02*
X158075380Y-74270999D01*
X159075380Y-73937666D01*
X159075380Y-73080523D02*
X159075380Y-73651952D01*
X159075380Y-73366238D02*
X158075380Y-73366238D01*
X158218238Y-73461476D01*
X158313476Y-73556714D01*
X158361095Y-73651952D01*
X158075380Y-72747190D02*
X158075380Y-72128142D01*
X158456333Y-72461476D01*
X158456333Y-72318619D01*
X158503952Y-72223380D01*
X158551571Y-72175761D01*
X158646809Y-72128142D01*
X158884904Y-72128142D01*
X158980142Y-72175761D01*
X159027761Y-72223380D01*
X159075380Y-72318619D01*
X159075380Y-72604333D01*
X159027761Y-72699571D01*
X158980142Y-72747190D01*
X114895380Y-74556714D02*
X115895380Y-74318619D01*
X115181095Y-74128143D01*
X115895380Y-73937666D01*
X114895380Y-73699571D01*
X115895380Y-72747190D02*
X115419190Y-73080523D01*
X115895380Y-73318619D02*
X114895380Y-73318619D01*
X114895380Y-72937666D01*
X114943000Y-72842428D01*
X114990619Y-72794809D01*
X115085857Y-72747190D01*
X115228714Y-72747190D01*
X115323952Y-72794809D01*
X115371571Y-72842428D01*
X115419190Y-72937666D01*
X115419190Y-73318619D01*
X111069380Y-50305543D02*
X110069380Y-50305543D01*
X110783666Y-49972210D01*
X110069380Y-49638877D01*
X111069380Y-49638877D01*
X111069380Y-48638877D02*
X111069380Y-49210305D01*
X111069380Y-48924591D02*
X110069380Y-48924591D01*
X110212238Y-49019829D01*
X110307476Y-49115067D01*
X110355095Y-49210305D01*
X162433095Y-58602619D02*
X162480714Y-58555000D01*
X162575952Y-58507380D01*
X162814047Y-58507380D01*
X162909285Y-58555000D01*
X162956904Y-58602619D01*
X163004523Y-58697857D01*
X163004523Y-58793095D01*
X162956904Y-58935952D01*
X162385476Y-59507380D01*
X163004523Y-59507380D01*
X163480714Y-59507380D02*
X163671190Y-59507380D01*
X163766428Y-59459761D01*
X163814047Y-59412142D01*
X163909285Y-59269285D01*
X163956904Y-59078809D01*
X163956904Y-58697857D01*
X163909285Y-58602619D01*
X163861666Y-58555000D01*
X163766428Y-58507380D01*
X163575952Y-58507380D01*
X163480714Y-58555000D01*
X163433095Y-58602619D01*
X163385476Y-58697857D01*
X163385476Y-58935952D01*
X163433095Y-59031190D01*
X163480714Y-59078809D01*
X163575952Y-59126428D01*
X163766428Y-59126428D01*
X163861666Y-59078809D01*
X163909285Y-59031190D01*
X163956904Y-58935952D01*
X80619142Y-62704714D02*
X80666761Y-62752333D01*
X80714380Y-62895190D01*
X80714380Y-62990428D01*
X80666761Y-63133285D01*
X80571523Y-63228523D01*
X80476285Y-63276142D01*
X80285809Y-63323761D01*
X80142952Y-63323761D01*
X79952476Y-63276142D01*
X79857238Y-63228523D01*
X79762000Y-63133285D01*
X79714380Y-62990428D01*
X79714380Y-62895190D01*
X79762000Y-62752333D01*
X79809619Y-62704714D01*
X80714380Y-62276142D02*
X79714380Y-62276142D01*
X80190571Y-62276142D02*
X80190571Y-61704714D01*
X80714380Y-61704714D02*
X79714380Y-61704714D01*
X80714380Y-61228523D02*
X79714380Y-61228523D01*
X79714380Y-60657095D01*
X80714380Y-60657095D01*
X80714380Y-60133285D02*
X80714380Y-59942809D01*
X80666761Y-59847571D01*
X80619142Y-59799952D01*
X80476285Y-59704714D01*
X80285809Y-59657095D01*
X79904857Y-59657095D01*
X79809619Y-59704714D01*
X79762000Y-59752333D01*
X79714380Y-59847571D01*
X79714380Y-60038047D01*
X79762000Y-60133285D01*
X79809619Y-60180904D01*
X79904857Y-60228523D01*
X80142952Y-60228523D01*
X80238190Y-60180904D01*
X80285809Y-60133285D01*
X80333428Y-60038047D01*
X80333428Y-59847571D01*
X80285809Y-59752333D01*
X80238190Y-59704714D01*
X80142952Y-59657095D01*
X79714380Y-58799952D02*
X79714380Y-58990428D01*
X79762000Y-59085666D01*
X79809619Y-59133285D01*
X79952476Y-59228523D01*
X80142952Y-59276142D01*
X80523904Y-59276142D01*
X80619142Y-59228523D01*
X80666761Y-59180904D01*
X80714380Y-59085666D01*
X80714380Y-58895190D01*
X80666761Y-58799952D01*
X80619142Y-58752333D01*
X80523904Y-58704714D01*
X80285809Y-58704714D01*
X80190571Y-58752333D01*
X80142952Y-58799952D01*
X80095333Y-58895190D01*
X80095333Y-59085666D01*
X80142952Y-59180904D01*
X80190571Y-59228523D01*
X80285809Y-59276142D01*
X80333428Y-57514238D02*
X80333428Y-56752333D01*
X79714380Y-55609476D02*
X79714380Y-54942809D01*
X80714380Y-55609476D01*
X80714380Y-54942809D01*
X79714380Y-54657095D02*
X80714380Y-53990428D01*
X79714380Y-53990428D02*
X80714380Y-54657095D01*
X80333428Y-53609476D02*
X80333428Y-52847571D01*
X80190571Y-52038047D02*
X80238190Y-51895190D01*
X80285809Y-51847571D01*
X80381047Y-51799952D01*
X80523904Y-51799952D01*
X80619142Y-51847571D01*
X80666761Y-51895190D01*
X80714380Y-51990428D01*
X80714380Y-52371380D01*
X79714380Y-52371380D01*
X79714380Y-52038047D01*
X79762000Y-51942809D01*
X79809619Y-51895190D01*
X79904857Y-51847571D01*
X80000095Y-51847571D01*
X80095333Y-51895190D01*
X80142952Y-51942809D01*
X80190571Y-52038047D01*
X80190571Y-52371380D01*
X79714380Y-51371380D02*
X80523904Y-51371380D01*
X80619142Y-51323761D01*
X80666761Y-51276142D01*
X80714380Y-51180904D01*
X80714380Y-50990428D01*
X80666761Y-50895190D01*
X80619142Y-50847571D01*
X80523904Y-50799952D01*
X79714380Y-50799952D01*
X80666761Y-50371380D02*
X80714380Y-50228523D01*
X80714380Y-49990428D01*
X80666761Y-49895190D01*
X80619142Y-49847571D01*
X80523904Y-49799952D01*
X80428666Y-49799952D01*
X80333428Y-49847571D01*
X80285809Y-49895190D01*
X80238190Y-49990428D01*
X80190571Y-50180904D01*
X80142952Y-50276142D01*
X80095333Y-50323761D01*
X80000095Y-50371380D01*
X79904857Y-50371380D01*
X79809619Y-50323761D01*
X79762000Y-50276142D01*
X79714380Y-50180904D01*
X79714380Y-49942809D01*
X79762000Y-49799952D01*
X80619142Y-48038047D02*
X80666761Y-48085666D01*
X80714380Y-48228523D01*
X80714380Y-48323761D01*
X80666761Y-48466619D01*
X80571523Y-48561857D01*
X80476285Y-48609476D01*
X80285809Y-48657095D01*
X80142952Y-48657095D01*
X79952476Y-48609476D01*
X79857238Y-48561857D01*
X79762000Y-48466619D01*
X79714380Y-48323761D01*
X79714380Y-48228523D01*
X79762000Y-48085666D01*
X79809619Y-48038047D01*
X80714380Y-47466619D02*
X80666761Y-47561857D01*
X80619142Y-47609476D01*
X80523904Y-47657095D01*
X80238190Y-47657095D01*
X80142952Y-47609476D01*
X80095333Y-47561857D01*
X80047714Y-47466619D01*
X80047714Y-47323761D01*
X80095333Y-47228523D01*
X80142952Y-47180904D01*
X80238190Y-47133285D01*
X80523904Y-47133285D01*
X80619142Y-47180904D01*
X80666761Y-47228523D01*
X80714380Y-47323761D01*
X80714380Y-47466619D01*
X80047714Y-46704714D02*
X80714380Y-46704714D01*
X80142952Y-46704714D02*
X80095333Y-46657095D01*
X80047714Y-46561857D01*
X80047714Y-46419000D01*
X80095333Y-46323761D01*
X80190571Y-46276142D01*
X80714380Y-46276142D01*
X80047714Y-45895190D02*
X80714380Y-45657095D01*
X80047714Y-45419000D01*
X80666761Y-44657095D02*
X80714380Y-44752333D01*
X80714380Y-44942809D01*
X80666761Y-45038047D01*
X80571523Y-45085666D01*
X80190571Y-45085666D01*
X80095333Y-45038047D01*
X80047714Y-44942809D01*
X80047714Y-44752333D01*
X80095333Y-44657095D01*
X80190571Y-44609476D01*
X80285809Y-44609476D01*
X80381047Y-45085666D01*
X80714380Y-44180904D02*
X80047714Y-44180904D01*
X80238190Y-44180904D02*
X80142952Y-44133285D01*
X80095333Y-44085666D01*
X80047714Y-43990428D01*
X80047714Y-43895190D01*
X80047714Y-43704714D02*
X80047714Y-43323761D01*
X79714380Y-43561857D02*
X80571523Y-43561857D01*
X80666761Y-43514238D01*
X80714380Y-43419000D01*
X80714380Y-43323761D01*
X80714380Y-42847571D02*
X80666761Y-42942809D01*
X80619142Y-42990428D01*
X80523904Y-43038047D01*
X80238190Y-43038047D01*
X80142952Y-42990428D01*
X80095333Y-42942809D01*
X80047714Y-42847571D01*
X80047714Y-42704714D01*
X80095333Y-42609476D01*
X80142952Y-42561857D01*
X80238190Y-42514238D01*
X80523904Y-42514238D01*
X80619142Y-42561857D01*
X80666761Y-42609476D01*
X80714380Y-42704714D01*
X80714380Y-42847571D01*
X80714380Y-42085666D02*
X80047714Y-42085666D01*
X80238190Y-42085666D02*
X80142952Y-42038047D01*
X80095333Y-41990428D01*
X80047714Y-41895190D01*
X80047714Y-41799952D01*
X80047714Y-40799952D02*
X80714380Y-40561857D01*
X80047714Y-40323761D01*
X80619142Y-39942809D02*
X80666761Y-39895190D01*
X80714380Y-39942809D01*
X80666761Y-39990428D01*
X80619142Y-39942809D01*
X80714380Y-39942809D01*
X79809619Y-39514238D02*
X79762000Y-39466619D01*
X79714380Y-39371380D01*
X79714380Y-39133285D01*
X79762000Y-39038047D01*
X79809619Y-38990428D01*
X79904857Y-38942809D01*
X80000095Y-38942809D01*
X80142952Y-38990428D01*
X80714380Y-39561857D01*
X80714380Y-38942809D01*
X80619142Y-38514238D02*
X80666761Y-38466619D01*
X80714380Y-38514238D01*
X80666761Y-38561857D01*
X80619142Y-38514238D01*
X80714380Y-38514238D01*
X79809619Y-38085666D02*
X79762000Y-38038047D01*
X79714380Y-37942809D01*
X79714380Y-37704714D01*
X79762000Y-37609476D01*
X79809619Y-37561857D01*
X79904857Y-37514238D01*
X80000095Y-37514238D01*
X80142952Y-37561857D01*
X80714380Y-38133285D01*
X80714380Y-37514238D01*
X82324380Y-57799952D02*
X81324380Y-57799952D01*
X81324380Y-57561857D01*
X81372000Y-57419000D01*
X81467238Y-57323761D01*
X81562476Y-57276142D01*
X81752952Y-57228523D01*
X81895809Y-57228523D01*
X82086285Y-57276142D01*
X82181523Y-57323761D01*
X82276761Y-57419000D01*
X82324380Y-57561857D01*
X82324380Y-57799952D01*
X82276761Y-56419000D02*
X82324380Y-56514238D01*
X82324380Y-56704714D01*
X82276761Y-56799952D01*
X82181523Y-56847571D01*
X81800571Y-56847571D01*
X81705333Y-56799952D01*
X81657714Y-56704714D01*
X81657714Y-56514238D01*
X81705333Y-56419000D01*
X81800571Y-56371380D01*
X81895809Y-56371380D01*
X81991047Y-56847571D01*
X82324380Y-55799952D02*
X82276761Y-55895190D01*
X82181523Y-55942809D01*
X81324380Y-55942809D01*
X81657714Y-55561857D02*
X81657714Y-55180904D01*
X81324380Y-55419000D02*
X82181523Y-55419000D01*
X82276761Y-55371380D01*
X82324380Y-55276142D01*
X82324380Y-55180904D01*
X82324380Y-54419000D02*
X81800571Y-54419000D01*
X81705333Y-54466619D01*
X81657714Y-54561857D01*
X81657714Y-54752333D01*
X81705333Y-54847571D01*
X82276761Y-54419000D02*
X82324380Y-54514238D01*
X82324380Y-54752333D01*
X82276761Y-54847571D01*
X82181523Y-54895190D01*
X82086285Y-54895190D01*
X81991047Y-54847571D01*
X81943428Y-54752333D01*
X81943428Y-54514238D01*
X81895809Y-54419000D01*
X81943428Y-53942809D02*
X81943428Y-53180904D01*
X82276761Y-52752333D02*
X82324380Y-52609476D01*
X82324380Y-52371380D01*
X82276761Y-52276142D01*
X82229142Y-52228523D01*
X82133904Y-52180904D01*
X82038666Y-52180904D01*
X81943428Y-52228523D01*
X81895809Y-52276142D01*
X81848190Y-52371380D01*
X81800571Y-52561857D01*
X81752952Y-52657095D01*
X81705333Y-52704714D01*
X81610095Y-52752333D01*
X81514857Y-52752333D01*
X81419619Y-52704714D01*
X81372000Y-52657095D01*
X81324380Y-52561857D01*
X81324380Y-52323761D01*
X81372000Y-52180904D01*
X81657714Y-50561857D02*
X82324380Y-50561857D01*
X81276761Y-50799952D02*
X81991047Y-51038047D01*
X81991047Y-50419000D01*
X81752952Y-49895190D02*
X81705333Y-49990428D01*
X81657714Y-50038047D01*
X81562476Y-50085666D01*
X81514857Y-50085666D01*
X81419619Y-50038047D01*
X81372000Y-49990428D01*
X81324380Y-49895190D01*
X81324380Y-49704714D01*
X81372000Y-49609476D01*
X81419619Y-49561857D01*
X81514857Y-49514238D01*
X81562476Y-49514238D01*
X81657714Y-49561857D01*
X81705333Y-49609476D01*
X81752952Y-49704714D01*
X81752952Y-49895190D01*
X81800571Y-49990428D01*
X81848190Y-50038047D01*
X81943428Y-50085666D01*
X82133904Y-50085666D01*
X82229142Y-50038047D01*
X82276761Y-49990428D01*
X82324380Y-49895190D01*
X82324380Y-49704714D01*
X82276761Y-49609476D01*
X82229142Y-49561857D01*
X82133904Y-49514238D01*
X81943428Y-49514238D01*
X81848190Y-49561857D01*
X81800571Y-49609476D01*
X81752952Y-49704714D01*
X82324380Y-49085666D02*
X81324380Y-49085666D01*
X82324380Y-48514238D02*
X81752952Y-48942809D01*
X81324380Y-48514238D02*
X81895809Y-49085666D01*
X81324380Y-47466619D02*
X81324380Y-46895190D01*
X82324380Y-47180904D02*
X81324380Y-47180904D01*
X82276761Y-46180904D02*
X82324380Y-46276142D01*
X82324380Y-46466619D01*
X82276761Y-46561857D01*
X82181523Y-46609476D01*
X81800571Y-46609476D01*
X81705333Y-46561857D01*
X81657714Y-46466619D01*
X81657714Y-46276142D01*
X81705333Y-46180904D01*
X81800571Y-46133285D01*
X81895809Y-46133285D01*
X81991047Y-46609476D01*
X82276761Y-45752333D02*
X82324380Y-45657095D01*
X82324380Y-45466619D01*
X82276761Y-45371380D01*
X82181523Y-45323761D01*
X82133904Y-45323761D01*
X82038666Y-45371380D01*
X81991047Y-45466619D01*
X81991047Y-45609476D01*
X81943428Y-45704714D01*
X81848190Y-45752333D01*
X81800571Y-45752333D01*
X81705333Y-45704714D01*
X81657714Y-45609476D01*
X81657714Y-45466619D01*
X81705333Y-45371380D01*
X81657714Y-45038047D02*
X81657714Y-44657095D01*
X81324380Y-44895190D02*
X82181523Y-44895190D01*
X82276761Y-44847571D01*
X82324380Y-44752333D01*
X82324380Y-44657095D01*
X82276761Y-43942809D02*
X82324380Y-44038047D01*
X82324380Y-44228523D01*
X82276761Y-44323761D01*
X82181523Y-44371380D01*
X81800571Y-44371380D01*
X81705333Y-44323761D01*
X81657714Y-44228523D01*
X81657714Y-44038047D01*
X81705333Y-43942809D01*
X81800571Y-43895190D01*
X81895809Y-43895190D01*
X81991047Y-44371380D01*
X82324380Y-43038047D02*
X81324380Y-43038047D01*
X82276761Y-43038047D02*
X82324380Y-43133285D01*
X82324380Y-43323761D01*
X82276761Y-43419000D01*
X82229142Y-43466619D01*
X82133904Y-43514238D01*
X81848190Y-43514238D01*
X81752952Y-43466619D01*
X81705333Y-43419000D01*
X81657714Y-43323761D01*
X81657714Y-43133285D01*
X81705333Y-43038047D01*
X83934380Y-56966619D02*
X82934380Y-56966619D01*
X82934380Y-56728523D01*
X82982000Y-56585666D01*
X83077238Y-56490428D01*
X83172476Y-56442809D01*
X83362952Y-56395190D01*
X83505809Y-56395190D01*
X83696285Y-56442809D01*
X83791523Y-56490428D01*
X83886761Y-56585666D01*
X83934380Y-56728523D01*
X83934380Y-56966619D01*
X83886761Y-55585666D02*
X83934380Y-55680904D01*
X83934380Y-55871380D01*
X83886761Y-55966619D01*
X83791523Y-56014238D01*
X83410571Y-56014238D01*
X83315333Y-55966619D01*
X83267714Y-55871380D01*
X83267714Y-55680904D01*
X83315333Y-55585666D01*
X83410571Y-55538047D01*
X83505809Y-55538047D01*
X83601047Y-56014238D01*
X83886761Y-55157095D02*
X83934380Y-55061857D01*
X83934380Y-54871380D01*
X83886761Y-54776142D01*
X83791523Y-54728523D01*
X83743904Y-54728523D01*
X83648666Y-54776142D01*
X83601047Y-54871380D01*
X83601047Y-55014238D01*
X83553428Y-55109476D01*
X83458190Y-55157095D01*
X83410571Y-55157095D01*
X83315333Y-55109476D01*
X83267714Y-55014238D01*
X83267714Y-54871380D01*
X83315333Y-54776142D01*
X83934380Y-54299952D02*
X83267714Y-54299952D01*
X82934380Y-54299952D02*
X82982000Y-54347571D01*
X83029619Y-54299952D01*
X82982000Y-54252333D01*
X82934380Y-54299952D01*
X83029619Y-54299952D01*
X83267714Y-53395190D02*
X84077238Y-53395190D01*
X84172476Y-53442809D01*
X84220095Y-53490428D01*
X84267714Y-53585666D01*
X84267714Y-53728523D01*
X84220095Y-53823761D01*
X83886761Y-53395190D02*
X83934380Y-53490428D01*
X83934380Y-53680904D01*
X83886761Y-53776142D01*
X83839142Y-53823761D01*
X83743904Y-53871380D01*
X83458190Y-53871380D01*
X83362952Y-53823761D01*
X83315333Y-53776142D01*
X83267714Y-53680904D01*
X83267714Y-53490428D01*
X83315333Y-53395190D01*
X83267714Y-52919000D02*
X83934380Y-52919000D01*
X83362952Y-52919000D02*
X83315333Y-52871380D01*
X83267714Y-52776142D01*
X83267714Y-52633285D01*
X83315333Y-52538047D01*
X83410571Y-52490428D01*
X83934380Y-52490428D01*
X83934380Y-51252333D02*
X82934380Y-51252333D01*
X83315333Y-51252333D02*
X83267714Y-51157095D01*
X83267714Y-50966619D01*
X83315333Y-50871380D01*
X83362952Y-50823761D01*
X83458190Y-50776142D01*
X83743904Y-50776142D01*
X83839142Y-50823761D01*
X83886761Y-50871380D01*
X83934380Y-50966619D01*
X83934380Y-51157095D01*
X83886761Y-51252333D01*
X83267714Y-50442809D02*
X83934380Y-50204714D01*
X83267714Y-49966619D02*
X83934380Y-50204714D01*
X84172476Y-50299952D01*
X84220095Y-50347571D01*
X84267714Y-50442809D01*
X83934380Y-48823761D02*
X82934380Y-48823761D01*
X83648666Y-48490428D01*
X82934380Y-48157095D01*
X83934380Y-48157095D01*
X83934380Y-47252333D02*
X83410571Y-47252333D01*
X83315333Y-47299952D01*
X83267714Y-47395190D01*
X83267714Y-47585666D01*
X83315333Y-47680904D01*
X83886761Y-47252333D02*
X83934380Y-47347571D01*
X83934380Y-47585666D01*
X83886761Y-47680904D01*
X83791523Y-47728523D01*
X83696285Y-47728523D01*
X83601047Y-47680904D01*
X83553428Y-47585666D01*
X83553428Y-47347571D01*
X83505809Y-47252333D01*
X83934380Y-46347571D02*
X82934380Y-46347571D01*
X83886761Y-46347571D02*
X83934380Y-46442809D01*
X83934380Y-46633285D01*
X83886761Y-46728523D01*
X83839142Y-46776142D01*
X83743904Y-46823761D01*
X83458190Y-46823761D01*
X83362952Y-46776142D01*
X83315333Y-46728523D01*
X83267714Y-46633285D01*
X83267714Y-46442809D01*
X83315333Y-46347571D01*
X83839142Y-45299952D02*
X83886761Y-45347571D01*
X83934380Y-45490428D01*
X83934380Y-45585666D01*
X83886761Y-45728523D01*
X83791523Y-45823761D01*
X83696285Y-45871380D01*
X83505809Y-45919000D01*
X83362952Y-45919000D01*
X83172476Y-45871380D01*
X83077238Y-45823761D01*
X82982000Y-45728523D01*
X82934380Y-45585666D01*
X82934380Y-45490428D01*
X82982000Y-45347571D01*
X83029619Y-45299952D01*
X83934380Y-44442809D02*
X83410571Y-44442809D01*
X83315333Y-44490428D01*
X83267714Y-44585666D01*
X83267714Y-44776142D01*
X83315333Y-44871380D01*
X83886761Y-44442809D02*
X83934380Y-44538047D01*
X83934380Y-44776142D01*
X83886761Y-44871380D01*
X83791523Y-44919000D01*
X83696285Y-44919000D01*
X83601047Y-44871380D01*
X83553428Y-44776142D01*
X83553428Y-44538047D01*
X83505809Y-44442809D01*
X83267714Y-44109476D02*
X83267714Y-43728523D01*
X82934380Y-43966619D02*
X83791523Y-43966619D01*
X83886761Y-43919000D01*
X83934380Y-43823761D01*
X83934380Y-43728523D01*
X84639619Y-52133285D02*
X84592000Y-52085666D01*
X84544380Y-51990428D01*
X84544380Y-51752333D01*
X84592000Y-51657095D01*
X84639619Y-51609476D01*
X84734857Y-51561857D01*
X84830095Y-51561857D01*
X84972952Y-51609476D01*
X85544380Y-52180904D01*
X85544380Y-51561857D01*
X84544380Y-50942809D02*
X84544380Y-50847571D01*
X84592000Y-50752333D01*
X84639619Y-50704714D01*
X84734857Y-50657095D01*
X84925333Y-50609476D01*
X85163428Y-50609476D01*
X85353904Y-50657095D01*
X85449142Y-50704714D01*
X85496761Y-50752333D01*
X85544380Y-50847571D01*
X85544380Y-50942809D01*
X85496761Y-51038047D01*
X85449142Y-51085666D01*
X85353904Y-51133285D01*
X85163428Y-51180904D01*
X84925333Y-51180904D01*
X84734857Y-51133285D01*
X84639619Y-51085666D01*
X84592000Y-51038047D01*
X84544380Y-50942809D01*
X84639619Y-50228523D02*
X84592000Y-50180904D01*
X84544380Y-50085666D01*
X84544380Y-49847571D01*
X84592000Y-49752333D01*
X84639619Y-49704714D01*
X84734857Y-49657095D01*
X84830095Y-49657095D01*
X84972952Y-49704714D01*
X85544380Y-50276142D01*
X85544380Y-49657095D01*
X84544380Y-49323761D02*
X84544380Y-48704714D01*
X84925333Y-49038047D01*
X84925333Y-48895190D01*
X84972952Y-48799952D01*
X85020571Y-48752333D01*
X85115809Y-48704714D01*
X85353904Y-48704714D01*
X85449142Y-48752333D01*
X85496761Y-48799952D01*
X85544380Y-48895190D01*
X85544380Y-49180904D01*
X85496761Y-49276142D01*
X85449142Y-49323761D01*
X123515380Y-74461475D02*
X122515380Y-74461475D01*
X123229666Y-74128142D01*
X122515380Y-73794809D01*
X123515380Y-73794809D01*
X123515380Y-72747190D02*
X123039190Y-73080523D01*
X123515380Y-73318618D02*
X122515380Y-73318618D01*
X122515380Y-72937666D01*
X122563000Y-72842428D01*
X122610619Y-72794809D01*
X122705857Y-72747190D01*
X122848714Y-72747190D01*
X122943952Y-72794809D01*
X122991571Y-72842428D01*
X123039190Y-72937666D01*
X123039190Y-73318618D01*
X122991571Y-72318618D02*
X122991571Y-71985285D01*
X123515380Y-71842428D02*
X123515380Y-72318618D01*
X122515380Y-72318618D01*
X122515380Y-71842428D01*
X123610619Y-70747190D02*
X123563000Y-70842428D01*
X123467761Y-70937666D01*
X123324904Y-71080523D01*
X123277285Y-71175761D01*
X123277285Y-71270999D01*
X123515380Y-71223380D02*
X123467761Y-71318618D01*
X123372523Y-71413856D01*
X123182047Y-71461475D01*
X122848714Y-71461475D01*
X122658238Y-71413856D01*
X122563000Y-71318618D01*
X122515380Y-71223380D01*
X122515380Y-71032904D01*
X122563000Y-70937666D01*
X122658238Y-70842428D01*
X122848714Y-70794809D01*
X123182047Y-70794809D01*
X123372523Y-70842428D01*
X123467761Y-70937666D01*
X123515380Y-71032904D01*
X123515380Y-71223380D01*
X138755380Y-74461476D02*
X137755380Y-74461476D01*
X137755380Y-74223381D01*
X137803000Y-74080523D01*
X137898238Y-73985285D01*
X137993476Y-73937666D01*
X138183952Y-73890047D01*
X138326809Y-73890047D01*
X138517285Y-73937666D01*
X138612523Y-73985285D01*
X138707761Y-74080523D01*
X138755380Y-74223381D01*
X138755380Y-74461476D01*
X137755380Y-72985285D02*
X137755380Y-73461476D01*
X138231571Y-73509095D01*
X138183952Y-73461476D01*
X138136333Y-73366238D01*
X138136333Y-73128142D01*
X138183952Y-73032904D01*
X138231571Y-72985285D01*
X138326809Y-72937666D01*
X138564904Y-72937666D01*
X138660142Y-72985285D01*
X138707761Y-73032904D01*
X138755380Y-73128142D01*
X138755380Y-73366238D01*
X138707761Y-73461476D01*
X138660142Y-73509095D01*
X165962686Y-51019830D02*
X165962686Y-50543639D01*
X166248400Y-51115068D02*
X165248400Y-50781734D01*
X166248400Y-50448401D01*
X166248400Y-49591258D02*
X166248400Y-50162687D01*
X166248400Y-49876973D02*
X165248400Y-49876973D01*
X165391258Y-49972211D01*
X165486496Y-50067449D01*
X165534115Y-50162687D01*
X165248400Y-48686496D02*
X165248400Y-49162687D01*
X165724591Y-49210306D01*
X165676972Y-49162687D01*
X165629353Y-49067449D01*
X165629353Y-48829354D01*
X165676972Y-48734115D01*
X165724591Y-48686496D01*
X165819829Y-48638877D01*
X166057924Y-48638877D01*
X166153162Y-48686496D01*
X166200781Y-48734115D01*
X166248400Y-48829354D01*
X166248400Y-49067449D01*
X166200781Y-49162687D01*
X166153162Y-49210306D01*
X148468400Y-50162687D02*
X147468400Y-50162687D01*
X147468400Y-49924592D01*
X147516020Y-49781734D01*
X147611258Y-49686496D01*
X147706496Y-49638877D01*
X147896972Y-49591258D01*
X148039829Y-49591258D01*
X148230305Y-49638877D01*
X148325543Y-49686496D01*
X148420781Y-49781734D01*
X148468400Y-49924592D01*
X148468400Y-50162687D01*
X147468400Y-48734115D02*
X147468400Y-48924592D01*
X147516020Y-49019830D01*
X147563639Y-49067449D01*
X147706496Y-49162687D01*
X147896972Y-49210306D01*
X148277924Y-49210306D01*
X148373162Y-49162687D01*
X148420781Y-49115068D01*
X148468400Y-49019830D01*
X148468400Y-48829353D01*
X148420781Y-48734115D01*
X148373162Y-48686496D01*
X148277924Y-48638877D01*
X148039829Y-48638877D01*
X147944591Y-48686496D01*
X147896972Y-48734115D01*
X147849353Y-48829353D01*
X147849353Y-49019830D01*
X147896972Y-49115068D01*
X147944591Y-49162687D01*
X148039829Y-49210306D01*
X97829666Y-74509094D02*
X97829666Y-74032904D01*
X98115380Y-74604332D02*
X97115380Y-74270999D01*
X98115380Y-73937666D01*
X97543952Y-73461475D02*
X97496333Y-73556713D01*
X97448714Y-73604332D01*
X97353476Y-73651951D01*
X97305857Y-73651951D01*
X97210619Y-73604332D01*
X97163000Y-73556713D01*
X97115380Y-73461475D01*
X97115380Y-73270999D01*
X97163000Y-73175761D01*
X97210619Y-73128142D01*
X97305857Y-73080523D01*
X97353476Y-73080523D01*
X97448714Y-73128142D01*
X97496333Y-73175761D01*
X97543952Y-73270999D01*
X97543952Y-73461475D01*
X97591571Y-73556713D01*
X97639190Y-73604332D01*
X97734428Y-73651951D01*
X97924904Y-73651951D01*
X98020142Y-73604332D01*
X98067761Y-73556713D01*
X98115380Y-73461475D01*
X98115380Y-73270999D01*
X98067761Y-73175761D01*
X98020142Y-73128142D01*
X97924904Y-73080523D01*
X97734428Y-73080523D01*
X97639190Y-73128142D01*
X97591571Y-73175761D01*
X97543952Y-73270999D01*
X145928400Y-50162687D02*
X144928400Y-50162687D01*
X144928400Y-49924592D01*
X144976020Y-49781734D01*
X145071258Y-49686496D01*
X145166496Y-49638877D01*
X145356972Y-49591258D01*
X145499829Y-49591258D01*
X145690305Y-49638877D01*
X145785543Y-49686496D01*
X145880781Y-49781734D01*
X145928400Y-49924592D01*
X145928400Y-50162687D01*
X144928400Y-48686496D02*
X144928400Y-49162687D01*
X145404591Y-49210306D01*
X145356972Y-49162687D01*
X145309353Y-49067449D01*
X145309353Y-48829353D01*
X145356972Y-48734115D01*
X145404591Y-48686496D01*
X145499829Y-48638877D01*
X145737924Y-48638877D01*
X145833162Y-48686496D01*
X145880781Y-48734115D01*
X145928400Y-48829353D01*
X145928400Y-49067449D01*
X145880781Y-49162687D01*
X145833162Y-49210306D01*
X156088400Y-50162687D02*
X155088400Y-50162687D01*
X155088400Y-49924592D01*
X155136020Y-49781734D01*
X155231258Y-49686496D01*
X155326496Y-49638877D01*
X155516972Y-49591258D01*
X155659829Y-49591258D01*
X155850305Y-49638877D01*
X155945543Y-49686496D01*
X156040781Y-49781734D01*
X156088400Y-49924592D01*
X156088400Y-50162687D01*
X155088400Y-48972211D02*
X155088400Y-48876972D01*
X155136020Y-48781734D01*
X155183639Y-48734115D01*
X155278877Y-48686496D01*
X155469353Y-48638877D01*
X155707448Y-48638877D01*
X155897924Y-48686496D01*
X155993162Y-48734115D01*
X156040781Y-48781734D01*
X156088400Y-48876972D01*
X156088400Y-48972211D01*
X156040781Y-49067449D01*
X155993162Y-49115068D01*
X155897924Y-49162687D01*
X155707448Y-49210306D01*
X155469353Y-49210306D01*
X155278877Y-49162687D01*
X155183639Y-49115068D01*
X155136020Y-49067449D01*
X155088400Y-48972211D01*
X126055380Y-74461476D02*
X125055380Y-74461476D01*
X125531571Y-74461476D02*
X125531571Y-73890047D01*
X126055380Y-73890047D02*
X125055380Y-73890047D01*
X125769666Y-73461476D02*
X125769666Y-72985285D01*
X126055380Y-73556714D02*
X125055380Y-73223380D01*
X126055380Y-72890047D01*
X126055380Y-72080523D02*
X126055380Y-72556714D01*
X125055380Y-72556714D01*
X125055380Y-71890047D02*
X125055380Y-71318618D01*
X126055380Y-71604333D02*
X125055380Y-71604333D01*
X168990714Y-55561761D02*
X168990714Y-55180809D01*
X168657380Y-55418904D02*
X169514523Y-55418904D01*
X169609761Y-55371285D01*
X169657380Y-55276047D01*
X169657380Y-55180809D01*
X169562142Y-54847476D02*
X169609761Y-54799857D01*
X169657380Y-54847476D01*
X169609761Y-54895095D01*
X169562142Y-54847476D01*
X169657380Y-54847476D01*
X169657380Y-54371285D02*
X168990714Y-54371285D01*
X169085952Y-54371285D02*
X169038333Y-54323666D01*
X168990714Y-54228428D01*
X168990714Y-54085571D01*
X169038333Y-53990333D01*
X169133571Y-53942714D01*
X169657380Y-53942714D01*
X169133571Y-53942714D02*
X169038333Y-53895095D01*
X168990714Y-53799857D01*
X168990714Y-53657000D01*
X169038333Y-53561761D01*
X169133571Y-53514142D01*
X169657380Y-53514142D01*
X169609761Y-52657000D02*
X169657380Y-52752238D01*
X169657380Y-52942714D01*
X169609761Y-53037952D01*
X169514523Y-53085571D01*
X169133571Y-53085571D01*
X169038333Y-53037952D01*
X168990714Y-52942714D01*
X168990714Y-52752238D01*
X169038333Y-52657000D01*
X169133571Y-52609380D01*
X169228809Y-52609380D01*
X169324047Y-53085571D01*
X168609761Y-51466523D02*
X169895476Y-52323666D01*
X168990714Y-51228428D02*
X168990714Y-50704619D01*
X169657380Y-51228428D01*
X169657380Y-50704619D01*
X169657380Y-50418904D02*
X168990714Y-49895095D01*
X168990714Y-50418904D02*
X169657380Y-49895095D01*
X169752619Y-49752238D02*
X169752619Y-48990333D01*
X169657380Y-48323666D02*
X168657380Y-48323666D01*
X169609761Y-48323666D02*
X169657380Y-48418904D01*
X169657380Y-48609380D01*
X169609761Y-48704619D01*
X169562142Y-48752238D01*
X169466904Y-48799857D01*
X169181190Y-48799857D01*
X169085952Y-48752238D01*
X169038333Y-48704619D01*
X168990714Y-48609380D01*
X168990714Y-48418904D01*
X169038333Y-48323666D01*
X169609761Y-47466523D02*
X169657380Y-47561761D01*
X169657380Y-47752238D01*
X169609761Y-47847476D01*
X169514523Y-47895095D01*
X169133571Y-47895095D01*
X169038333Y-47847476D01*
X168990714Y-47752238D01*
X168990714Y-47561761D01*
X169038333Y-47466523D01*
X169133571Y-47418904D01*
X169228809Y-47418904D01*
X169324047Y-47895095D01*
X169657380Y-46847476D02*
X169609761Y-46942714D01*
X169514523Y-46990333D01*
X168657380Y-46990333D01*
X168990714Y-46609380D02*
X168990714Y-46228428D01*
X168657380Y-46466523D02*
X169514523Y-46466523D01*
X169609761Y-46418904D01*
X169657380Y-46323666D01*
X169657380Y-46228428D01*
X169657380Y-45466523D02*
X169133571Y-45466523D01*
X169038333Y-45514142D01*
X168990714Y-45609380D01*
X168990714Y-45799857D01*
X169038333Y-45895095D01*
X169609761Y-45466523D02*
X169657380Y-45561761D01*
X169657380Y-45799857D01*
X169609761Y-45895095D01*
X169514523Y-45942714D01*
X169419285Y-45942714D01*
X169324047Y-45895095D01*
X169276428Y-45799857D01*
X169276428Y-45561761D01*
X169228809Y-45466523D01*
X169752619Y-45228428D02*
X169752619Y-44466523D01*
X169609761Y-44276047D02*
X169657380Y-44180809D01*
X169657380Y-43990333D01*
X169609761Y-43895095D01*
X169514523Y-43847476D01*
X169466904Y-43847476D01*
X169371666Y-43895095D01*
X169324047Y-43990333D01*
X169324047Y-44133190D01*
X169276428Y-44228428D01*
X169181190Y-44276047D01*
X169133571Y-44276047D01*
X169038333Y-44228428D01*
X168990714Y-44133190D01*
X168990714Y-43990333D01*
X169038333Y-43895095D01*
X171267380Y-53299857D02*
X170267380Y-53299857D01*
X171219761Y-53299857D02*
X171267380Y-53395095D01*
X171267380Y-53585571D01*
X171219761Y-53680809D01*
X171172142Y-53728428D01*
X171076904Y-53776047D01*
X170791190Y-53776047D01*
X170695952Y-53728428D01*
X170648333Y-53680809D01*
X170600714Y-53585571D01*
X170600714Y-53395095D01*
X170648333Y-53299857D01*
X171219761Y-52442714D02*
X171267380Y-52537952D01*
X171267380Y-52728428D01*
X171219761Y-52823666D01*
X171124523Y-52871285D01*
X170743571Y-52871285D01*
X170648333Y-52823666D01*
X170600714Y-52728428D01*
X170600714Y-52537952D01*
X170648333Y-52442714D01*
X170743571Y-52395095D01*
X170838809Y-52395095D01*
X170934047Y-52871285D01*
X171267380Y-51823666D02*
X171219761Y-51918904D01*
X171124523Y-51966523D01*
X170267380Y-51966523D01*
X170600714Y-51585571D02*
X170600714Y-51204619D01*
X170267380Y-51442714D02*
X171124523Y-51442714D01*
X171219761Y-51395095D01*
X171267380Y-51299857D01*
X171267380Y-51204619D01*
X171267380Y-50442714D02*
X170743571Y-50442714D01*
X170648333Y-50490333D01*
X170600714Y-50585571D01*
X170600714Y-50776047D01*
X170648333Y-50871285D01*
X171219761Y-50442714D02*
X171267380Y-50537952D01*
X171267380Y-50776047D01*
X171219761Y-50871285D01*
X171124523Y-50918904D01*
X171029285Y-50918904D01*
X170934047Y-50871285D01*
X170886428Y-50776047D01*
X170886428Y-50537952D01*
X170838809Y-50442714D01*
X170886428Y-49966523D02*
X170886428Y-49204619D01*
X170600714Y-48823666D02*
X170600714Y-48299857D01*
X171267380Y-48823666D01*
X171267380Y-48299857D01*
X171267380Y-48014142D02*
X170600714Y-47490333D01*
X170600714Y-48014142D02*
X171267380Y-47490333D01*
X171172142Y-47109380D02*
X171219761Y-47061761D01*
X171267380Y-47109380D01*
X171219761Y-47157000D01*
X171172142Y-47109380D01*
X171267380Y-47109380D01*
X171267380Y-46633190D02*
X170600714Y-46633190D01*
X170791190Y-46633190D02*
X170695952Y-46585571D01*
X170648333Y-46537952D01*
X170600714Y-46442714D01*
X170600714Y-46347476D01*
X170600714Y-45585571D02*
X171267380Y-45585571D01*
X170600714Y-46014142D02*
X171124523Y-46014142D01*
X171219761Y-45966523D01*
X171267380Y-45871285D01*
X171267380Y-45728428D01*
X171219761Y-45633190D01*
X171172142Y-45585571D01*
X172210714Y-61204619D02*
X172877380Y-61014142D01*
X172401190Y-60823666D01*
X172877380Y-60633190D01*
X172210714Y-60442714D01*
X172210714Y-60157000D02*
X172877380Y-59966523D01*
X172401190Y-59776047D01*
X172877380Y-59585571D01*
X172210714Y-59395095D01*
X172210714Y-59109380D02*
X172877380Y-58918904D01*
X172401190Y-58728428D01*
X172877380Y-58537952D01*
X172210714Y-58347476D01*
X172782142Y-57966523D02*
X172829761Y-57918904D01*
X172877380Y-57966523D01*
X172829761Y-58014142D01*
X172782142Y-57966523D01*
X172877380Y-57966523D01*
X172210714Y-57585571D02*
X172877380Y-57347476D01*
X172210714Y-57109380D02*
X172877380Y-57347476D01*
X173115476Y-57442714D01*
X173163095Y-57490333D01*
X173210714Y-57585571D01*
X172877380Y-56585571D02*
X172829761Y-56680809D01*
X172782142Y-56728428D01*
X172686904Y-56776047D01*
X172401190Y-56776047D01*
X172305952Y-56728428D01*
X172258333Y-56680809D01*
X172210714Y-56585571D01*
X172210714Y-56442714D01*
X172258333Y-56347476D01*
X172305952Y-56299857D01*
X172401190Y-56252238D01*
X172686904Y-56252238D01*
X172782142Y-56299857D01*
X172829761Y-56347476D01*
X172877380Y-56442714D01*
X172877380Y-56585571D01*
X172210714Y-55395095D02*
X172877380Y-55395095D01*
X172210714Y-55823666D02*
X172734523Y-55823666D01*
X172829761Y-55776047D01*
X172877380Y-55680809D01*
X172877380Y-55537952D01*
X172829761Y-55442714D01*
X172782142Y-55395095D01*
X172210714Y-55061761D02*
X172210714Y-54680809D01*
X171877380Y-54918904D02*
X172734523Y-54918904D01*
X172829761Y-54871285D01*
X172877380Y-54776047D01*
X172877380Y-54680809D01*
X172210714Y-53918904D02*
X172877380Y-53918904D01*
X172210714Y-54347476D02*
X172734523Y-54347476D01*
X172829761Y-54299857D01*
X172877380Y-54204619D01*
X172877380Y-54061761D01*
X172829761Y-53966523D01*
X172782142Y-53918904D01*
X172877380Y-53442714D02*
X171877380Y-53442714D01*
X172258333Y-53442714D02*
X172210714Y-53347476D01*
X172210714Y-53157000D01*
X172258333Y-53061761D01*
X172305952Y-53014142D01*
X172401190Y-52966523D01*
X172686904Y-52966523D01*
X172782142Y-53014142D01*
X172829761Y-53061761D01*
X172877380Y-53157000D01*
X172877380Y-53347476D01*
X172829761Y-53442714D01*
X172829761Y-52157000D02*
X172877380Y-52252238D01*
X172877380Y-52442714D01*
X172829761Y-52537952D01*
X172734523Y-52585571D01*
X172353571Y-52585571D01*
X172258333Y-52537952D01*
X172210714Y-52442714D01*
X172210714Y-52252238D01*
X172258333Y-52157000D01*
X172353571Y-52109380D01*
X172448809Y-52109380D01*
X172544047Y-52585571D01*
X172782142Y-51680809D02*
X172829761Y-51633190D01*
X172877380Y-51680809D01*
X172829761Y-51728428D01*
X172782142Y-51680809D01*
X172877380Y-51680809D01*
X172829761Y-50776047D02*
X172877380Y-50871285D01*
X172877380Y-51061761D01*
X172829761Y-51157000D01*
X172782142Y-51204619D01*
X172686904Y-51252238D01*
X172401190Y-51252238D01*
X172305952Y-51204619D01*
X172258333Y-51157000D01*
X172210714Y-51061761D01*
X172210714Y-50871285D01*
X172258333Y-50776047D01*
X172877380Y-50204619D02*
X172829761Y-50299857D01*
X172782142Y-50347476D01*
X172686904Y-50395095D01*
X172401190Y-50395095D01*
X172305952Y-50347476D01*
X172258333Y-50299857D01*
X172210714Y-50204619D01*
X172210714Y-50061761D01*
X172258333Y-49966523D01*
X172305952Y-49918904D01*
X172401190Y-49871285D01*
X172686904Y-49871285D01*
X172782142Y-49918904D01*
X172829761Y-49966523D01*
X172877380Y-50061761D01*
X172877380Y-50204619D01*
X172877380Y-49442714D02*
X172210714Y-49442714D01*
X172305952Y-49442714D02*
X172258333Y-49395095D01*
X172210714Y-49299857D01*
X172210714Y-49157000D01*
X172258333Y-49061761D01*
X172353571Y-49014142D01*
X172877380Y-49014142D01*
X172353571Y-49014142D02*
X172258333Y-48966523D01*
X172210714Y-48871285D01*
X172210714Y-48728428D01*
X172258333Y-48633190D01*
X172353571Y-48585571D01*
X172877380Y-48585571D01*
X171829761Y-47395095D02*
X173115476Y-48252238D01*
X172401190Y-46442714D02*
X172353571Y-46490333D01*
X172305952Y-46585571D01*
X172305952Y-46680809D01*
X172353571Y-46776047D01*
X172401190Y-46823666D01*
X172496428Y-46871285D01*
X172591666Y-46871285D01*
X172686904Y-46823666D01*
X172734523Y-46776047D01*
X172782142Y-46680809D01*
X172782142Y-46585571D01*
X172734523Y-46490333D01*
X172686904Y-46442714D01*
X172305952Y-46442714D02*
X172686904Y-46442714D01*
X172734523Y-46395095D01*
X172734523Y-46347476D01*
X172686904Y-46252238D01*
X172591666Y-46204619D01*
X172353571Y-46204619D01*
X172210714Y-46299857D01*
X172115476Y-46442714D01*
X172067857Y-46633190D01*
X172115476Y-46823666D01*
X172210714Y-46966523D01*
X172353571Y-47061761D01*
X172544047Y-47109380D01*
X172734523Y-47061761D01*
X172877380Y-46966523D01*
X172972619Y-46823666D01*
X173020238Y-46633190D01*
X172972619Y-46442714D01*
X172877380Y-46299857D01*
X172877380Y-45776047D02*
X171877380Y-45776047D01*
X172591666Y-45442714D01*
X171877380Y-45109380D01*
X172877380Y-45109380D01*
X172877380Y-44204619D02*
X172353571Y-44204619D01*
X172258333Y-44252238D01*
X172210714Y-44347476D01*
X172210714Y-44537952D01*
X172258333Y-44633190D01*
X172829761Y-44204619D02*
X172877380Y-44299857D01*
X172877380Y-44537952D01*
X172829761Y-44633190D01*
X172734523Y-44680809D01*
X172639285Y-44680809D01*
X172544047Y-44633190D01*
X172496428Y-44537952D01*
X172496428Y-44299857D01*
X172448809Y-44204619D01*
X172877380Y-43299857D02*
X171877380Y-43299857D01*
X172829761Y-43299857D02*
X172877380Y-43395095D01*
X172877380Y-43585571D01*
X172829761Y-43680809D01*
X172782142Y-43728428D01*
X172686904Y-43776047D01*
X172401190Y-43776047D01*
X172305952Y-43728428D01*
X172258333Y-43680809D01*
X172210714Y-43585571D01*
X172210714Y-43395095D01*
X172258333Y-43299857D01*
X172782142Y-42252238D02*
X172829761Y-42299857D01*
X172877380Y-42442714D01*
X172877380Y-42537952D01*
X172829761Y-42680809D01*
X172734523Y-42776047D01*
X172639285Y-42823666D01*
X172448809Y-42871285D01*
X172305952Y-42871285D01*
X172115476Y-42823666D01*
X172020238Y-42776047D01*
X171925000Y-42680809D01*
X171877380Y-42537952D01*
X171877380Y-42442714D01*
X171925000Y-42299857D01*
X171972619Y-42252238D01*
X172877380Y-41395095D02*
X172353571Y-41395095D01*
X172258333Y-41442714D01*
X172210714Y-41537952D01*
X172210714Y-41728428D01*
X172258333Y-41823666D01*
X172829761Y-41395095D02*
X172877380Y-41490333D01*
X172877380Y-41728428D01*
X172829761Y-41823666D01*
X172734523Y-41871285D01*
X172639285Y-41871285D01*
X172544047Y-41823666D01*
X172496428Y-41728428D01*
X172496428Y-41490333D01*
X172448809Y-41395095D01*
X172210714Y-41061761D02*
X172210714Y-40680809D01*
X171877380Y-40918904D02*
X172734523Y-40918904D01*
X172829761Y-40871285D01*
X172877380Y-40776047D01*
X172877380Y-40680809D01*
X172829761Y-40395095D02*
X172877380Y-40252238D01*
X172877380Y-40014142D01*
X172829761Y-39918904D01*
X172782142Y-39871285D01*
X172686904Y-39823666D01*
X172591666Y-39823666D01*
X172496428Y-39871285D01*
X172448809Y-39918904D01*
X172401190Y-40014142D01*
X172353571Y-40204619D01*
X172305952Y-40299857D01*
X172258333Y-40347476D01*
X172163095Y-40395095D01*
X172067857Y-40395095D01*
X171972619Y-40347476D01*
X171925000Y-40299857D01*
X171877380Y-40204619D01*
X171877380Y-39966523D01*
X171925000Y-39823666D01*
X172353571Y-39395095D02*
X172353571Y-39061761D01*
X172877380Y-38918904D02*
X172877380Y-39395095D01*
X171877380Y-39395095D01*
X171877380Y-38918904D01*
X128595380Y-74461476D02*
X127595380Y-74461476D01*
X128595380Y-73890047D01*
X127595380Y-73890047D01*
X128595380Y-73413857D02*
X127595380Y-73413857D01*
X128309666Y-73080523D01*
X127595380Y-72747190D01*
X128595380Y-72747190D01*
X128595380Y-72270999D02*
X127595380Y-72270999D01*
X138816400Y-50496019D02*
X137816400Y-50496019D01*
X138816400Y-50019829D02*
X137816400Y-50019829D01*
X138816400Y-49448400D01*
X137816400Y-49448400D01*
X137816400Y-49115067D02*
X137816400Y-48543638D01*
X138816400Y-48829353D02*
X137816400Y-48829353D01*
X84661476Y-36409380D02*
X85280523Y-36409380D01*
X84947190Y-36790333D01*
X85090047Y-36790333D01*
X85185285Y-36837952D01*
X85232904Y-36885571D01*
X85280523Y-36980809D01*
X85280523Y-37218904D01*
X85232904Y-37314142D01*
X85185285Y-37361761D01*
X85090047Y-37409380D01*
X84804333Y-37409380D01*
X84709095Y-37361761D01*
X84661476Y-37314142D01*
X85661476Y-36504619D02*
X85709095Y-36457000D01*
X85804333Y-36409380D01*
X86042428Y-36409380D01*
X86137666Y-36457000D01*
X86185285Y-36504619D01*
X86232904Y-36599857D01*
X86232904Y-36695095D01*
X86185285Y-36837952D01*
X85613857Y-37409380D01*
X86232904Y-37409380D01*
X95289666Y-74509095D02*
X95289666Y-74032904D01*
X95575380Y-74604333D02*
X94575380Y-74270999D01*
X95575380Y-73937666D01*
X95575380Y-73080523D02*
X95575380Y-73651952D01*
X95575380Y-73366238D02*
X94575380Y-73366238D01*
X94718238Y-73461476D01*
X94813476Y-73556714D01*
X94861095Y-73651952D01*
X94575380Y-72461476D02*
X94575380Y-72366238D01*
X94623000Y-72270999D01*
X94670619Y-72223380D01*
X94765857Y-72175761D01*
X94956333Y-72128142D01*
X95194428Y-72128142D01*
X95384904Y-72175761D01*
X95480142Y-72223380D01*
X95527761Y-72270999D01*
X95575380Y-72366238D01*
X95575380Y-72461476D01*
X95527761Y-72556714D01*
X95480142Y-72604333D01*
X95384904Y-72651952D01*
X95194428Y-72699571D01*
X94956333Y-72699571D01*
X94765857Y-72651952D01*
X94670619Y-72604333D01*
X94623000Y-72556714D01*
X94575380Y-72461476D01*
X163422686Y-51019830D02*
X163422686Y-50543639D01*
X163708400Y-51115068D02*
X162708400Y-50781734D01*
X163708400Y-50448401D01*
X163708400Y-49591258D02*
X163708400Y-50162687D01*
X163708400Y-49876973D02*
X162708400Y-49876973D01*
X162851258Y-49972211D01*
X162946496Y-50067449D01*
X162994115Y-50162687D01*
X162708400Y-49257925D02*
X162708400Y-48638877D01*
X163089353Y-48972211D01*
X163089353Y-48829354D01*
X163136972Y-48734115D01*
X163184591Y-48686496D01*
X163279829Y-48638877D01*
X163517924Y-48638877D01*
X163613162Y-48686496D01*
X163660781Y-48734115D01*
X163708400Y-48829354D01*
X163708400Y-49115068D01*
X163660781Y-49210306D01*
X163613162Y-49257925D01*
X131196400Y-52305543D02*
X130196400Y-52305543D01*
X130910686Y-51972210D01*
X130196400Y-51638877D01*
X131196400Y-51638877D01*
X131196400Y-50591258D02*
X130720210Y-50924591D01*
X131196400Y-51162686D02*
X130196400Y-51162686D01*
X130196400Y-50781734D01*
X130244020Y-50686496D01*
X130291639Y-50638877D01*
X130386877Y-50591258D01*
X130529734Y-50591258D01*
X130624972Y-50638877D01*
X130672591Y-50686496D01*
X130720210Y-50781734D01*
X130720210Y-51162686D01*
X130672591Y-50162686D02*
X130672591Y-49829353D01*
X131196400Y-49686496D02*
X131196400Y-50162686D01*
X130196400Y-50162686D01*
X130196400Y-49686496D01*
X131291639Y-48591258D02*
X131244020Y-48686496D01*
X131148781Y-48781734D01*
X131005924Y-48924591D01*
X130958305Y-49019829D01*
X130958305Y-49115067D01*
X131196400Y-49067448D02*
X131148781Y-49162686D01*
X131053543Y-49257924D01*
X130863067Y-49305543D01*
X130529734Y-49305543D01*
X130339258Y-49257924D01*
X130244020Y-49162686D01*
X130196400Y-49067448D01*
X130196400Y-48876972D01*
X130244020Y-48781734D01*
X130339258Y-48686496D01*
X130529734Y-48638877D01*
X130863067Y-48638877D01*
X131053543Y-48686496D01*
X131148781Y-48781734D01*
X131196400Y-48876972D01*
X131196400Y-49067448D01*
X92511571Y-74461475D02*
X92511571Y-74128142D01*
X93035380Y-73985285D02*
X93035380Y-74461475D01*
X92035380Y-74461475D01*
X92035380Y-73985285D01*
X93035380Y-73651951D02*
X92368714Y-73128142D01*
X92368714Y-73651951D02*
X93035380Y-73128142D01*
X92368714Y-72890047D02*
X92368714Y-72509094D01*
X92035380Y-72747189D02*
X92892523Y-72747189D01*
X92987761Y-72699570D01*
X93035380Y-72604332D01*
X93035380Y-72509094D01*
X93035380Y-72175761D02*
X92368714Y-72175761D01*
X92559190Y-72175761D02*
X92463952Y-72128142D01*
X92416333Y-72080523D01*
X92368714Y-71985285D01*
X92368714Y-71890047D01*
X93035380Y-71128142D02*
X92511571Y-71128142D01*
X92416333Y-71175761D01*
X92368714Y-71270999D01*
X92368714Y-71461475D01*
X92416333Y-71556713D01*
X92987761Y-71128142D02*
X93035380Y-71223380D01*
X93035380Y-71461475D01*
X92987761Y-71556713D01*
X92892523Y-71604332D01*
X92797285Y-71604332D01*
X92702047Y-71556713D01*
X92654428Y-71461475D01*
X92654428Y-71223380D01*
X92606809Y-71128142D01*
X148915380Y-74461476D02*
X147915380Y-74461476D01*
X147915380Y-74223381D01*
X147963000Y-74080523D01*
X148058238Y-73985285D01*
X148153476Y-73937666D01*
X148343952Y-73890047D01*
X148486809Y-73890047D01*
X148677285Y-73937666D01*
X148772523Y-73985285D01*
X148867761Y-74080523D01*
X148915380Y-74223381D01*
X148915380Y-74461476D01*
X147915380Y-73271000D02*
X147915380Y-73175761D01*
X147963000Y-73080523D01*
X148010619Y-73032904D01*
X148105857Y-72985285D01*
X148296333Y-72937666D01*
X148534428Y-72937666D01*
X148724904Y-72985285D01*
X148820142Y-73032904D01*
X148867761Y-73080523D01*
X148915380Y-73175761D01*
X148915380Y-73271000D01*
X148867761Y-73366238D01*
X148820142Y-73413857D01*
X148724904Y-73461476D01*
X148534428Y-73509095D01*
X148296333Y-73509095D01*
X148105857Y-73461476D01*
X148010619Y-73413857D01*
X147963000Y-73366238D01*
X147915380Y-73271000D01*
X103163666Y-51019830D02*
X103163666Y-50543639D01*
X103449380Y-51115068D02*
X102449380Y-50781734D01*
X103449380Y-50448401D01*
X103449380Y-49591258D02*
X103449380Y-50162687D01*
X103449380Y-49876973D02*
X102449380Y-49876973D01*
X102592238Y-49972211D01*
X102687476Y-50067449D01*
X102735095Y-50162687D01*
X102449380Y-48972211D02*
X102449380Y-48876973D01*
X102497000Y-48781734D01*
X102544619Y-48734115D01*
X102639857Y-48686496D01*
X102830333Y-48638877D01*
X103068428Y-48638877D01*
X103258904Y-48686496D01*
X103354142Y-48734115D01*
X103401761Y-48781734D01*
X103449380Y-48876973D01*
X103449380Y-48972211D01*
X103401761Y-49067449D01*
X103354142Y-49115068D01*
X103258904Y-49162687D01*
X103068428Y-49210306D01*
X102830333Y-49210306D01*
X102639857Y-49162687D01*
X102544619Y-49115068D01*
X102497000Y-49067449D01*
X102449380Y-48972211D01*
X156535380Y-74461476D02*
X155535380Y-74461476D01*
X155535380Y-74223381D01*
X155583000Y-74080523D01*
X155678238Y-73985285D01*
X155773476Y-73937666D01*
X155963952Y-73890047D01*
X156106809Y-73890047D01*
X156297285Y-73937666D01*
X156392523Y-73985285D01*
X156487761Y-74080523D01*
X156535380Y-74223381D01*
X156535380Y-74461476D01*
X155535380Y-73556714D02*
X155535380Y-72890047D01*
X156535380Y-73318619D01*
X118435380Y-73890047D02*
X117959190Y-74223380D01*
X118435380Y-74461475D02*
X117435380Y-74461475D01*
X117435380Y-74080523D01*
X117483000Y-73985285D01*
X117530619Y-73937666D01*
X117625857Y-73890047D01*
X117768714Y-73890047D01*
X117863952Y-73937666D01*
X117911571Y-73985285D01*
X117959190Y-74080523D01*
X117959190Y-74461475D01*
X118435380Y-73461475D02*
X117435380Y-73461475D01*
X117435380Y-73223380D01*
X117483000Y-73080523D01*
X117578238Y-72985285D01*
X117673476Y-72937666D01*
X117863952Y-72890047D01*
X118006809Y-72890047D01*
X118197285Y-72937666D01*
X118292523Y-72985285D01*
X118387761Y-73080523D01*
X118435380Y-73223380D01*
X118435380Y-73461475D01*
X141295380Y-74461476D02*
X140295380Y-74461476D01*
X140295380Y-74223381D01*
X140343000Y-74080523D01*
X140438238Y-73985285D01*
X140533476Y-73937666D01*
X140723952Y-73890047D01*
X140866809Y-73890047D01*
X141057285Y-73937666D01*
X141152523Y-73985285D01*
X141247761Y-74080523D01*
X141295380Y-74223381D01*
X141295380Y-74461476D01*
X140295380Y-73032904D02*
X140295380Y-73223381D01*
X140343000Y-73318619D01*
X140390619Y-73366238D01*
X140533476Y-73461476D01*
X140723952Y-73509095D01*
X141104904Y-73509095D01*
X141200142Y-73461476D01*
X141247761Y-73413857D01*
X141295380Y-73318619D01*
X141295380Y-73128142D01*
X141247761Y-73032904D01*
X141200142Y-72985285D01*
X141104904Y-72937666D01*
X140866809Y-72937666D01*
X140771571Y-72985285D01*
X140723952Y-73032904D01*
X140676333Y-73128142D01*
X140676333Y-73318619D01*
X140723952Y-73413857D01*
X140771571Y-73461476D01*
X140866809Y-73509095D01*
X163226714Y-71191380D02*
X162655285Y-71191380D01*
X162941000Y-71191380D02*
X162941000Y-70191380D01*
X162845761Y-70334238D01*
X162750523Y-70429476D01*
X162655285Y-70477095D01*
X133675380Y-74461476D02*
X132675380Y-74461476D01*
X132675380Y-74223381D01*
X132723000Y-74080523D01*
X132818238Y-73985285D01*
X132913476Y-73937666D01*
X133103952Y-73890047D01*
X133246809Y-73890047D01*
X133437285Y-73937666D01*
X133532523Y-73985285D01*
X133627761Y-74080523D01*
X133675380Y-74223381D01*
X133675380Y-74461476D01*
X133008714Y-73032904D02*
X133675380Y-73032904D01*
X132627761Y-73271000D02*
X133342047Y-73509095D01*
X133342047Y-72890047D01*
X167798714Y-37409380D02*
X167227285Y-37409380D01*
X167513000Y-37409380D02*
X167513000Y-36409380D01*
X167417761Y-36552238D01*
X167322523Y-36647476D01*
X167227285Y-36695095D01*
X117496400Y-51543639D02*
X118496400Y-51305544D01*
X117782115Y-51115068D01*
X118496400Y-50924591D01*
X117496400Y-50686496D01*
X118210686Y-50353163D02*
X118210686Y-49876972D01*
X118496400Y-50448401D02*
X117496400Y-50115068D01*
X118496400Y-49781734D01*
X118496400Y-49448401D02*
X117496400Y-49448401D01*
X117496400Y-49115068D02*
X117496400Y-48543639D01*
X118496400Y-48829353D02*
X117496400Y-48829353D01*
X136215380Y-74461476D02*
X135215380Y-74461476D01*
X135215380Y-74223381D01*
X135263000Y-74080523D01*
X135358238Y-73985285D01*
X135453476Y-73937666D01*
X135643952Y-73890047D01*
X135786809Y-73890047D01*
X135977285Y-73937666D01*
X136072523Y-73985285D01*
X136167761Y-74080523D01*
X136215380Y-74223381D01*
X136215380Y-74461476D01*
X135215380Y-73556714D02*
X135215380Y-72937666D01*
X135596333Y-73271000D01*
X135596333Y-73128142D01*
X135643952Y-73032904D01*
X135691571Y-72985285D01*
X135786809Y-72937666D01*
X136024904Y-72937666D01*
X136120142Y-72985285D01*
X136167761Y-73032904D01*
X136215380Y-73128142D01*
X136215380Y-73413857D01*
X136167761Y-73509095D01*
X136120142Y-73556714D01*
X108529380Y-51496020D02*
X108053190Y-51829353D01*
X108529380Y-52067449D02*
X107529380Y-52067449D01*
X107529380Y-51686496D01*
X107577000Y-51591258D01*
X107624619Y-51543639D01*
X107719857Y-51496020D01*
X107862714Y-51496020D01*
X107957952Y-51543639D01*
X108005571Y-51591258D01*
X108053190Y-51686496D01*
X108053190Y-52067449D01*
X108005571Y-50734115D02*
X108005571Y-51067449D01*
X108529380Y-51067449D02*
X107529380Y-51067449D01*
X107529380Y-50591258D01*
X108481761Y-50257925D02*
X108529380Y-50115068D01*
X108529380Y-49876973D01*
X108481761Y-49781734D01*
X108434142Y-49734115D01*
X108338904Y-49686496D01*
X108243666Y-49686496D01*
X108148428Y-49734115D01*
X108100809Y-49781734D01*
X108053190Y-49876973D01*
X108005571Y-50067449D01*
X107957952Y-50162687D01*
X107910333Y-50210306D01*
X107815095Y-50257925D01*
X107719857Y-50257925D01*
X107624619Y-50210306D01*
X107577000Y-50162687D01*
X107529380Y-50067449D01*
X107529380Y-49829353D01*
X107577000Y-49686496D01*
X108529380Y-49257925D02*
X107529380Y-49257925D01*
X108005571Y-49257925D02*
X108005571Y-48686496D01*
X108529380Y-48686496D02*
X107529380Y-48686496D01*
X105703666Y-50067448D02*
X105703666Y-49591258D01*
X105989380Y-50162686D02*
X104989380Y-49829353D01*
X105989380Y-49496020D01*
X105417952Y-49019829D02*
X105370333Y-49115067D01*
X105322714Y-49162686D01*
X105227476Y-49210305D01*
X105179857Y-49210305D01*
X105084619Y-49162686D01*
X105037000Y-49115067D01*
X104989380Y-49019829D01*
X104989380Y-48829353D01*
X105037000Y-48734115D01*
X105084619Y-48686496D01*
X105179857Y-48638877D01*
X105227476Y-48638877D01*
X105322714Y-48686496D01*
X105370333Y-48734115D01*
X105417952Y-48829353D01*
X105417952Y-49019829D01*
X105465571Y-49115067D01*
X105513190Y-49162686D01*
X105608428Y-49210305D01*
X105798904Y-49210305D01*
X105894142Y-49162686D01*
X105941761Y-49115067D01*
X105989380Y-49019829D01*
X105989380Y-48829353D01*
X105941761Y-48734115D01*
X105894142Y-48686496D01*
X105798904Y-48638877D01*
X105608428Y-48638877D01*
X105513190Y-48686496D01*
X105465571Y-48734115D01*
X105417952Y-48829353D01*
X100655380Y-73890047D02*
X100179190Y-74223380D01*
X100655380Y-74461476D02*
X99655380Y-74461476D01*
X99655380Y-74080523D01*
X99703000Y-73985285D01*
X99750619Y-73937666D01*
X99845857Y-73890047D01*
X99988714Y-73890047D01*
X100083952Y-73937666D01*
X100131571Y-73985285D01*
X100179190Y-74080523D01*
X100179190Y-74461476D01*
X100131571Y-73128142D02*
X100131571Y-73461476D01*
X100655380Y-73461476D02*
X99655380Y-73461476D01*
X99655380Y-72985285D01*
X100607761Y-72651952D02*
X100655380Y-72509095D01*
X100655380Y-72271000D01*
X100607761Y-72175761D01*
X100560142Y-72128142D01*
X100464904Y-72080523D01*
X100369666Y-72080523D01*
X100274428Y-72128142D01*
X100226809Y-72175761D01*
X100179190Y-72271000D01*
X100131571Y-72461476D01*
X100083952Y-72556714D01*
X100036333Y-72604333D01*
X99941095Y-72651952D01*
X99845857Y-72651952D01*
X99750619Y-72604333D01*
X99703000Y-72556714D01*
X99655380Y-72461476D01*
X99655380Y-72223380D01*
X99703000Y-72080523D01*
X100655380Y-71651952D02*
X99655380Y-71651952D01*
X100131571Y-71651952D02*
X100131571Y-71080523D01*
X100655380Y-71080523D02*
X99655380Y-71080523D01*
X146375380Y-74461476D02*
X145375380Y-74461476D01*
X145375380Y-74223381D01*
X145423000Y-74080523D01*
X145518238Y-73985285D01*
X145613476Y-73937666D01*
X145803952Y-73890047D01*
X145946809Y-73890047D01*
X146137285Y-73937666D01*
X146232523Y-73985285D01*
X146327761Y-74080523D01*
X146375380Y-74223381D01*
X146375380Y-74461476D01*
X146375380Y-72937666D02*
X146375380Y-73509095D01*
X146375380Y-73223381D02*
X145375380Y-73223381D01*
X145518238Y-73318619D01*
X145613476Y-73413857D01*
X145661095Y-73509095D01*
D11*
%TO.C,SLOT*%
X91059000Y-60325000D02*
X162687000Y-60325000D01*
X162687000Y-69469000D02*
X91059000Y-69469000D01*
X162687000Y-60325000D02*
X162687000Y-69469000D01*
X91059000Y-69469000D02*
X91059000Y-60325000D01*
%TD*%
D12*
%TO.C,SLOT*%
X161163000Y-67437000D03*
X158623000Y-67437000D03*
X156083000Y-67437000D03*
X153543000Y-67437000D03*
X151003000Y-67437000D03*
X148463000Y-67437000D03*
X145923000Y-67437000D03*
X143383000Y-67437000D03*
X140843000Y-67437000D03*
X138303000Y-67437000D03*
X135763000Y-67437000D03*
X133223000Y-67437000D03*
X130683000Y-67437000D03*
X128143000Y-67437000D03*
X125603000Y-67437000D03*
X123063000Y-67437000D03*
X120523000Y-67437000D03*
X117983000Y-67437000D03*
X115443000Y-67437000D03*
X112903000Y-67437000D03*
X110363000Y-67437000D03*
X107823000Y-67437000D03*
X105283000Y-67437000D03*
X102743000Y-67437000D03*
X100203000Y-67437000D03*
X97663000Y-67437000D03*
X95123000Y-67437000D03*
X92583000Y-67437000D03*
X161163000Y-62357000D03*
X158623000Y-62357000D03*
X156083000Y-62357000D03*
X153543000Y-62357000D03*
X151003000Y-62357000D03*
X148463000Y-62357000D03*
X145923000Y-62357000D03*
X143383000Y-62357000D03*
X140843000Y-62357000D03*
X138303000Y-62357000D03*
X135763000Y-62357000D03*
X133223000Y-62357000D03*
X130683000Y-62357000D03*
X128143000Y-62357000D03*
X125603000Y-62357000D03*
X123063000Y-62357000D03*
X120523000Y-62357000D03*
X117983000Y-62357000D03*
X115443000Y-62357000D03*
X112903000Y-62357000D03*
X110363000Y-62357000D03*
X107823000Y-62357000D03*
X105283000Y-62357000D03*
X102743000Y-62357000D03*
X100203000Y-62357000D03*
X97663000Y-62357000D03*
X95123000Y-62357000D03*
X92583000Y-62357000D03*
%TD*%
M02*
